<svg width="160" height="151" viewBox="0 0 160 151" fill="none" xmlns="http://www.w3.org/2000/svg">
    <path d="M84.0561 141.311C117.412 141.311 144.454 114.269 144.454 80.7936C144.454 47.3187 117.293 20.2766 84.0561 20.2766C50.7002 20.2766 23.6582 47.3187 23.6582 80.7936C23.6582 114.269 50.7002 141.311 84.0561 141.311Z" fill="#E5DAD1"/>
    <path d="M148.208 119.84C150.906 119.84 153.093 117.653 153.093 114.956C153.093 112.258 150.906 110.072 148.208 110.072C145.511 110.072 143.324 112.258 143.324 114.956C143.324 117.653 145.511 119.84 148.208 119.84Z" fill="#F5EDE6"/>
    <path d="M155.355 100.78C157.197 100.78 158.691 99.2862 158.691 97.444C158.691 95.6018 157.197 94.1084 155.355 94.1084C153.513 94.1084 152.02 95.6018 152.02 97.444C152.02 99.2862 153.513 100.78 155.355 100.78Z" fill="#F5EDE6"/>
    <path d="M26.8766 41.0049C28.7188 41.0049 30.2122 39.5115 30.2122 37.6693C30.2122 35.8271 28.7188 34.3337 26.8766 34.3337C25.0344 34.3337 23.541 35.8271 23.541 37.6693C23.541 39.5115 25.0344 41.0049 26.8766 41.0049Z" fill="#F5EDE6"/>
    <path d="M6.5052 105.334C9.92641 105.334 12.6999 102.56 12.6999 99.1392C12.6999 95.718 9.92641 92.9446 6.5052 92.9446C3.08399 92.9446 0.310547 95.718 0.310547 99.1392C0.310547 102.56 3.08399 105.334 6.5052 105.334Z" fill="#F5EDE6"/>
    <path d="M91.6358 102.735H78.2134C75.1034 102.735 72.4844 105.604 72.4844 109.011V116.363C72.4844 123.894 78.0497 129.99 84.9246 129.99C91.7995 129.99 97.3648 123.894 97.3648 116.363V109.011C97.3648 105.425 94.7458 102.735 91.6358 102.735Z" fill="#F4ECE5"/>
    <g filter="url(#filter0_d_4031_17451)">
        <path fill-rule="evenodd" clip-rule="evenodd" d="M77.0237 32.2889V31.0358C77.0237 27.2721 79.97 24.3267 83.7348 24.3267C87.4996 24.3267 90.446 27.2721 90.446 31.0358V32.2892C103.579 35.3273 113.362 47.0892 113.362 61.145V64.9087C113.362 96.6543 137.26 117.436 137.26 117.436H30.0449C30.0449 117.436 54.1069 96.6543 54.1069 64.9087V61.145C54.1069 47.0888 63.8899 35.3267 77.0237 32.2889Z" fill="#F5EDE6"/>
    </g>
    <path d="M71.2932 77.8362C67.201 77.8362 63.7636 75.218 62.4541 71.4543C62.1267 70.6362 62.6178 69.818 63.4362 69.4907C64.2547 69.1634 65.0731 69.6543 65.4005 70.4725C66.2189 72.9271 68.6742 74.7271 71.2932 74.7271C73.9122 74.7271 76.3675 73.0907 77.186 70.4725C77.5133 69.6543 78.3318 69.1634 79.1502 69.4907C79.9686 69.818 80.4597 70.6362 80.1323 71.4543C78.8228 75.3816 75.3854 77.8362 71.2932 77.8362Z" fill="#C8BAAD"/>
    <path d="M96.01 77.8362C91.9178 77.8362 88.4804 75.218 87.1709 71.4543C86.8435 70.6362 87.3346 69.818 88.153 69.4907C88.9715 69.1634 89.7899 69.6543 90.1173 70.4725C90.9357 72.9271 93.391 74.7271 96.01 74.7271C98.629 74.7271 101.084 73.0907 101.903 70.4725C102.23 69.6543 103.049 69.1634 103.867 69.4907C104.685 69.818 105.176 70.6362 104.849 71.4543C103.54 75.3816 100.102 77.8362 96.01 77.8362Z" fill="#C8BAAD"/>
    <path d="M83.7336 97.872C85.8128 97.872 87.4984 96.187 87.4984 94.1084C87.4984 92.0298 85.8128 90.3447 83.7336 90.3447C81.6543 90.3447 79.9688 92.0298 79.9688 94.1084C79.9688 96.187 81.6543 97.872 83.7336 97.872Z" fill="#C8BAAD"/>
    <path d="M103.908 5.53906V0H125.315V5.53906L110.708 23.1633H125.567V28.7024H103.152V23.1633L117.76 5.53906H103.908Z" fill="#C8BAAD"/>
    <path d="M121.537 47.082V43.5571H135.389V47.082L126.07 58.4119H135.641V61.9367H121.033V58.4119L130.352 47.082H121.537Z" fill="#C8BAAD"/>
    <defs>
        <filter id="filter0_d_4031_17451" x="8.04492" y="13.3267" width="151.215" height="137.11" filterUnits="userSpaceOnUse" color-interpolation-filters="sRGB">
            <feFlood flood-opacity="0" result="BackgroundImageFix"/>
            <feColorMatrix in="SourceAlpha" type="matrix" values="0 0 0 0 0 0 0 0 0 0 0 0 0 0 0 0 0 0 127 0" result="hardAlpha"/>
            <feOffset dy="11"/>
            <feGaussianBlur stdDeviation="11"/>
            <feColorMatrix type="matrix" values="0 0 0 0 0.397708 0 0 0 0 0.47749 0 0 0 0 0.575 0 0 0 0.27 0"/>
            <feBlend mode="normal" in2="BackgroundImageFix" result="effect1_dropShadow_4031_17451"/>
            <feBlend mode="normal" in="SourceGraphic" in2="effect1_dropShadow_4031_17451" result="shape"/>
        </filter>
    </defs>
</svg>
