<svg width="20" height="20" viewBox="0 0 20 20" fill="none" xmlns="http://www.w3.org/2000/svg">
<path fill-rule="evenodd" clip-rule="evenodd" d="M2.58398 2.5C2.58398 2.08579 2.91977 1.75 3.33398 1.75H5.00065C5.41486 1.75 5.75065 2.08579 5.75065 2.5V3.46833L16.7208 4.25191C16.9283 4.26673 17.1204 4.36714 17.2511 4.52911C17.3817 4.69108 17.4392 4.90006 17.4098 5.10607L16.5764 10.9394C16.5237 11.3089 16.2072 11.5833 15.834 11.5833H5.75065V13.4167H14.1673C14.8083 13.4167 15.4229 13.6713 15.8762 14.1245C16.3294 14.5777 16.584 15.1924 16.584 15.8333C16.584 16.4743 16.3294 17.089 15.8762 17.5422C15.4229 17.9954 14.8083 18.25 14.1673 18.25C13.5264 18.25 12.9117 17.9954 12.4585 17.5422C12.0053 17.089 11.7507 16.4743 11.7507 15.8333C11.7507 15.5159 11.8131 15.2048 11.9312 14.9167H7.23672C7.35485 15.2048 7.41732 15.5159 7.41732 15.8333C7.41732 16.4743 7.16271 17.089 6.70949 17.5422C6.25628 17.9954 5.64159 18.25 5.00065 18.25C4.35971 18.25 3.74502 17.9954 3.29181 17.5422C2.8386 17.089 2.58398 16.4743 2.58398 15.8333C2.58398 15.1924 2.8386 14.5777 3.29181 14.1245C3.5632 13.8531 3.89249 13.6529 4.25065 13.536V4.17441C4.25061 4.16977 4.25061 4.16513 4.25065 4.16047V3.25H3.33398C2.91977 3.25 2.58398 2.91421 2.58398 2.5ZM5.75065 4.97215V10.0833H15.1835L15.811 5.69075L5.75065 4.97215ZM5.00065 14.9167C4.75754 14.9167 4.52438 15.0132 4.35247 15.1852C4.18056 15.3571 4.08398 15.5902 4.08398 15.8333C4.08398 16.0764 4.18056 16.3096 4.35247 16.4815C4.52438 16.6534 4.75754 16.75 5.00065 16.75C5.24377 16.75 5.47692 16.6534 5.64883 16.4815C5.82074 16.3096 5.91732 16.0764 5.91732 15.8333C5.91732 15.5902 5.82074 15.3571 5.64883 15.1852C5.47692 15.0132 5.24377 14.9167 5.00065 14.9167ZM14.1673 14.9167C13.9242 14.9167 13.691 15.0132 13.5191 15.1852C13.3472 15.3571 13.2507 15.5902 13.2507 15.8333C13.2507 16.0764 13.3472 16.3096 13.5191 16.4815C13.691 16.6534 13.9242 16.75 14.1673 16.75C14.4104 16.75 14.6436 16.6534 14.8155 16.4815C14.9874 16.3096 15.084 16.0764 15.084 15.8333C15.084 15.5902 14.9874 15.3571 14.8155 15.1852C14.6436 15.0132 14.4104 14.9167 14.1673 14.9167Z" fill="black"/>
</svg>
