<svg width="16" height="16" viewBox="0 0 16 16" fill="none" xmlns="http://www.w3.org/2000/svg">
<path fill-rule="evenodd" clip-rule="evenodd" d="M8.00004 3.25C8.25081 3.25 8.48498 3.37533 8.62408 3.58397L10.837 6.90332L13.5315 4.74768C13.7777 4.55076 14.1207 4.52878 14.39 4.69266C14.6592 4.85654 14.7973 5.17132 14.7355 5.48042L13.4021 12.1471C13.332 12.4977 13.0242 12.75 12.6667 12.75H3.33337C2.97586 12.75 2.66805 12.4977 2.59794 12.1471L1.2646 5.48042C1.20278 5.17132 1.34084 4.85654 1.61012 4.69266C1.8794 4.52878 2.22241 4.55076 2.46856 4.74768L5.16311 6.90332L7.376 3.58397C7.5151 3.37533 7.74928 3.25 8.00004 3.25ZM8.00004 5.35208L5.95741 8.41603C5.84081 8.59093 5.65616 8.70887 5.44844 8.74112C5.24072 8.77337 5.029 8.71697 4.86485 8.58565L3.13926 7.20518L3.94823 11.25H12.0519L12.8608 7.20518L11.1352 8.58565C10.9711 8.71697 10.7594 8.77337 10.5516 8.74112C10.3439 8.70887 10.1593 8.59093 10.0427 8.41603L8.00004 5.35208Z" fill="black"/>
</svg>
