<svg width="16" height="16" viewBox="0 0 16 16" fill="none" xmlns="http://www.w3.org/2000/svg">
    <path d="M8 4L10.6667 8L14 5.33333L12.6667 12H3.33333L2 5.33333L5.33333 8L8 4Z" fill="black"/>
    <path fill-rule="evenodd" clip-rule="evenodd" d="M8.00042 3.40039C8.20104 3.40039 8.38837 3.50065 8.49965 3.66757L10.8033 7.12305L13.6256 4.8652C13.8225 4.70767 14.0969 4.69008 14.3124 4.82119C14.5278 4.95229 14.6382 5.20411 14.5888 5.45139L13.2554 12.1181C13.1993 12.3985 12.9531 12.6004 12.6671 12.6004H3.33376C3.04775 12.6004 2.8015 12.3985 2.74541 12.1181L1.41207 5.45139C1.36262 5.20411 1.47307 4.95229 1.68849 4.82119C1.90391 4.69008 2.17832 4.70767 2.37524 4.8652L5.19754 7.12305L7.50119 3.66757C7.61247 3.50065 7.79981 3.40039 8.00042 3.40039ZM8.00042 5.08206L5.83299 8.33321C5.7397 8.47313 5.59198 8.56749 5.42581 8.59329C5.25963 8.61909 5.09026 8.57397 4.95894 8.46891L2.9118 6.8312L3.82564 11.4004H12.1752L13.089 6.8312L11.0419 8.46891C10.9106 8.57397 10.7412 8.61909 10.575 8.59329C10.4089 8.56749 10.2611 8.47313 10.1679 8.33321L8.00042 5.08206Z" fill="black"/>
</svg>
