<svg width="20" height="20" viewBox="0 0 20 20" fill="none" xmlns="http://www.w3.org/2000/svg">
<path fill-rule="evenodd" clip-rule="evenodd" d="M3.33333 4.0835C3.31124 4.0835 3.29004 4.09227 3.27441 4.10791C3.25878 4.12354 3.25 4.14473 3.25 4.16684V7.50017C3.25 7.52226 3.25878 7.54347 3.27441 7.5591C3.29003 7.57471 3.31122 7.5835 3.33333 7.5835H6.66667C6.68878 7.5835 6.70997 7.57471 6.72559 7.5591C6.74122 7.54347 6.75 7.52226 6.75 7.50017V4.16684C6.75 4.14473 6.74122 4.12354 6.72559 4.10791C6.70996 4.09227 6.68876 4.0835 6.66667 4.0835H3.33333ZM2.21375 3.04725C2.51068 2.75032 2.9134 2.5835 3.33333 2.5835H6.66667C7.0866 2.5835 7.48932 2.75032 7.78625 3.04725C8.08318 3.34418 8.25 3.7469 8.25 4.16684V7.50017C8.25 7.92009 8.08318 8.32282 7.78625 8.61976C7.48931 8.9167 7.08658 9.0835 6.66667 9.0835H3.33333C2.91342 9.0835 2.51069 8.9167 2.21375 8.61976C1.91682 8.32282 1.75 7.92009 1.75 7.50017V4.16684C1.75 3.7469 1.91682 3.34418 2.21375 3.04725ZM10.0833 4.16684C10.0833 3.75262 10.4191 3.41684 10.8333 3.41684H17.5C17.9142 3.41684 18.25 3.75262 18.25 4.16684C18.25 4.58105 17.9142 4.91684 17.5 4.91684H10.8333C10.4191 4.91684 10.0833 4.58105 10.0833 4.16684ZM10.0833 7.50017C10.0833 7.08595 10.4191 6.75017 10.8333 6.75017H15C15.4142 6.75017 15.75 7.08595 15.75 7.50017C15.75 7.91438 15.4142 8.25017 15 8.25017H10.8333C10.4191 8.25017 10.0833 7.91438 10.0833 7.50017ZM3.33333 12.4168C3.31125 12.4168 3.29007 12.4256 3.27444 12.4412C3.25873 12.4569 3.25 12.4781 3.25 12.5001V15.8335C3.25 15.8555 3.25873 15.8767 3.27444 15.8924C3.29007 15.9081 3.31125 15.9168 3.33333 15.9168H6.66667C6.68875 15.9168 6.70993 15.9081 6.72556 15.8924C6.74127 15.8767 6.75 15.8555 6.75 15.8335V12.5001C6.75 12.4781 6.74127 12.4569 6.72556 12.4412C6.70993 12.4256 6.68875 12.4168 6.66667 12.4168H3.33333ZM2.21372 11.3806C2.51065 11.0837 2.91339 10.9168 3.33333 10.9168H6.66667C7.08661 10.9168 7.48935 11.0837 7.78628 11.3806C8.08313 11.6775 8.25 12.0801 8.25 12.5001V15.8335C8.25 16.2535 8.08313 16.6561 7.78628 16.953C7.48935 17.25 7.08661 17.4168 6.66667 17.4168H3.33333C2.91339 17.4168 2.51065 17.25 2.21372 16.953C1.91687 16.6561 1.75 16.2535 1.75 15.8335V12.5001C1.75 12.0801 1.91687 11.6775 2.21372 11.3806ZM10.0833 12.5001C10.0833 12.0859 10.4191 11.7501 10.8333 11.7501H17.5C17.9142 11.7501 18.25 12.0859 18.25 12.5001C18.25 12.9143 17.9142 13.2501 17.5 13.2501H10.8333C10.4191 13.2501 10.0833 12.9143 10.0833 12.5001ZM10.0833 15.8335C10.0833 15.4193 10.4191 15.0835 10.8333 15.0835H15C15.4142 15.0835 15.75 15.4193 15.75 15.8335C15.75 16.2477 15.4142 16.5835 15 16.5835H10.8333C10.4191 16.5835 10.0833 16.2477 10.0833 15.8335Z" fill="black"/>
</svg>
