<svg width="20" height="20" viewBox="0 0 20 20" fill="none" xmlns="http://www.w3.org/2000/svg">
<path fill-rule="evenodd" clip-rule="evenodd" d="M2.45783 4.12482C2.91104 3.6716 3.52573 3.41699 4.16667 3.41699H12.5C13.1409 3.41699 13.7556 3.6716 14.2088 4.12482C14.6621 4.57803 14.9167 5.19272 14.9167 5.83366V6.75033H15.8333C16.4743 6.75033 17.089 7.00494 17.5422 7.45815C17.9954 7.91136 18.25 8.52605 18.25 9.16699V14.167C18.25 14.8079 17.9954 15.4226 17.5422 15.8758C17.089 16.329 16.4743 16.5837 15.8333 16.5837H7.5C6.85906 16.5837 6.24437 16.329 5.79116 15.8758C5.33795 15.4226 5.08333 14.8079 5.08333 14.167V13.2503H4.16667C3.52573 13.2503 2.91104 12.9957 2.45783 12.5425C2.00461 12.0893 1.75 11.4746 1.75 10.8337V5.83366C1.75 5.19272 2.00461 4.57803 2.45783 4.12482ZM6.58333 14.167C6.58333 14.4101 6.67991 14.6433 6.85182 14.8152C7.02373 14.9871 7.25689 15.0837 7.5 15.0837H15.8333C16.0764 15.0837 16.3096 14.9871 16.4815 14.8152C16.6534 14.6433 16.75 14.4101 16.75 14.167V9.16699C16.75 8.92388 16.6534 8.69072 16.4815 8.51881C16.3096 8.3469 16.0764 8.25033 15.8333 8.25033H7.5C7.25689 8.25033 7.02373 8.3469 6.85182 8.51881C6.67991 8.69072 6.58333 8.92388 6.58333 9.16699V14.167ZM13.4167 6.75033H7.5C6.85906 6.75033 6.24437 7.00494 5.79116 7.45815C5.33795 7.91136 5.08333 8.52605 5.08333 9.16699V11.7503H4.16667C3.92355 11.7503 3.69039 11.6537 3.51849 11.4818C3.34658 11.3099 3.25 11.0768 3.25 10.8337V5.83366C3.25 5.59054 3.34658 5.35739 3.51849 5.18548C3.69039 5.01357 3.92355 4.91699 4.16667 4.91699H12.5C12.7431 4.91699 12.9763 5.01357 13.1482 5.18548C13.3201 5.35739 13.4167 5.59054 13.4167 5.83366V6.75033ZM9.95782 9.95815C10.411 9.50494 11.0257 9.25033 11.6667 9.25033C12.3076 9.25033 12.9223 9.50494 13.3755 9.95815C13.8287 10.4114 14.0833 11.0261 14.0833 11.667C14.0833 12.3079 13.8287 12.9226 13.3755 13.3758C12.9223 13.829 12.3076 14.0837 11.6667 14.0837C11.0257 14.0837 10.411 13.829 9.95782 13.3758C9.50461 12.9226 9.25 12.3079 9.25 11.667C9.25 11.0261 9.50461 10.4114 9.95782 9.95815ZM11.6667 10.7503C11.4236 10.7503 11.1904 10.8469 11.0185 11.0188C10.8466 11.1907 10.75 11.4239 10.75 11.667C10.75 11.9101 10.8466 12.1433 11.0185 12.3152C11.1904 12.4871 11.4236 12.5837 11.6667 12.5837C11.9098 12.5837 12.1429 12.4871 12.3148 12.3152C12.4868 12.1433 12.5833 11.9101 12.5833 11.667C12.5833 11.4239 12.4868 11.1907 12.3148 11.0188C12.1429 10.8469 11.9098 10.7503 11.6667 10.7503Z" fill="black"/>
</svg>
