<svg width="20" height="20" viewBox="0 0 20 20" fill="none" xmlns="http://www.w3.org/2000/svg">
    <path fill-rule="evenodd" clip-rule="evenodd" d="M9.99583 8.12309C8.95924 8.12309 8.11892 8.96341 8.11892 10C8.11892 11.0366 8.95924 11.8769 9.99583 11.8769C11.0324 11.8769 11.8727 11.0366 11.8727 10C11.8727 8.96341 11.0324 8.12309 9.99583 8.12309ZM6.86764 10C6.86764 8.27235 8.26818 6.87181 9.99583 6.87181C11.7235 6.87181 13.124 8.27235 13.124 10C13.124 11.7277 11.7235 13.1282 9.99583 13.1282C8.26818 13.1282 6.86764 11.7277 6.86764 10Z" fill="black"/>
    <path fill-rule="evenodd" clip-rule="evenodd" d="M7.99668 3.1348C7.77339 2.7628 7.30315 2.64708 6.95394 2.85483L6.94485 2.86025L5.50166 3.68601C5.04505 3.94693 4.88752 4.53849 5.14871 4.99055L4.60699 5.30354L5.14828 4.9898C5.59462 5.75986 5.71461 6.60388 5.3159 7.29576C4.91724 7.98754 4.12716 8.30661 3.23893 8.30661C2.7107 8.30661 2.27961 8.74175 2.27961 9.26592V10.7341C2.27961 11.2582 2.7107 11.6934 3.23893 11.6934C4.12716 11.6934 4.91724 12.0125 5.3159 12.7042C5.71456 13.396 5.59465 14.2399 5.14845 15.0099C4.88763 15.4619 5.04486 16.053 5.50132 16.3138L6.95399 17.1451C7.30319 17.3528 7.77337 17.2372 7.99666 16.8652L8.08632 16.7104C8.5325 15.9406 9.20505 15.4159 10.0031 15.4159C10.8018 15.4159 11.4723 15.941 11.9144 16.7116C11.9146 16.712 11.9148 16.7123 11.915 16.7127L12.0033 16.8652C12.2266 17.2372 12.6968 17.3529 13.046 17.1452L13.0551 17.1398L14.4983 16.314C14.9537 16.0538 15.1137 15.4704 14.8506 15.0083C14.4052 14.2387 14.2857 13.3955 14.6841 12.7042C15.0827 12.0125 15.8728 11.6934 16.7611 11.6934C17.2893 11.6934 17.7204 11.2582 17.7204 10.7341V9.26592C17.7204 8.73769 17.2852 8.30661 16.7611 8.30661C15.8728 8.30661 15.0827 7.98754 14.6841 7.29576C14.2855 6.60401 14.4053 5.76019 14.8515 4.99025C15.1124 4.53824 14.9552 3.94707 14.4987 3.68621L13.046 2.85491C12.6968 2.64715 12.2266 2.7628 12.0033 3.1348L11.9137 3.28963C11.4675 4.05942 10.7949 4.58405 9.99687 4.58405C9.19827 4.58405 8.52784 4.05913 8.08572 3.2886C8.08547 3.28817 8.08523 3.28774 8.08498 3.28731L7.99668 3.1348ZM6.31914 1.77653C7.28632 1.20481 8.51312 1.55557 9.07368 2.49778L9.07748 2.50418L9.16921 2.6627L9.17054 2.66501C9.4792 3.20344 9.80115 3.33278 9.99687 3.33278C10.1935 3.33278 10.5179 3.20235 10.8308 2.66269C10.8308 2.6626 10.8307 2.66278 10.8308 2.66269L10.9263 2.49776C11.4868 1.55554 12.7137 1.20481 13.6809 1.77654L15.1195 2.59979C16.1811 3.20643 16.5411 4.56705 15.9347 5.61653L15.9343 5.61728C15.6215 6.15689 15.6706 6.50158 15.7682 6.671C15.8659 6.84051 16.1394 7.05533 16.7611 7.05533C17.972 7.05533 18.9717 8.04235 18.9717 9.26592V10.7341C18.9717 11.945 17.9846 12.9447 16.7611 12.9447C16.1394 12.9447 15.8659 13.1595 15.7682 13.329C15.6706 13.4984 15.6215 13.8431 15.9343 14.3827L15.9362 14.3861C16.5395 15.4418 16.1819 16.7929 15.1198 17.4C15.1197 17.4001 15.1199 17.4 15.1198 17.4L13.6808 18.2235C12.7136 18.7952 11.4869 18.4444 10.9263 17.5022L10.9225 17.4958L10.8308 17.3373L10.8294 17.335C10.5208 16.7966 10.1988 16.6672 10.0031 16.6672C9.80647 16.6672 9.48208 16.7977 9.16921 17.3373C9.16915 17.3374 9.16926 17.3372 9.16921 17.3373L9.07372 17.5022C8.51317 18.4444 7.28638 18.7952 6.31921 18.2235L4.88052 17.4002C4.8804 17.4001 4.88063 17.4003 4.88052 17.4002C3.81917 16.7935 3.45897 15.4328 4.06527 14.3835L4.0657 14.3827C4.37847 13.8431 4.32938 13.4984 4.23175 13.329C4.13407 13.1595 3.86057 12.9447 3.23893 12.9447C2.01536 12.9447 1.02834 11.945 1.02834 10.7341V9.26592C1.02834 8.05498 2.01536 7.05533 3.23893 7.05533C3.86057 7.05533 4.13407 6.84051 4.23175 6.671C4.32938 6.50158 4.37847 6.15689 4.0657 5.61728L4.06527 5.61653C3.45897 4.56716 3.81883 3.20671 4.88018 2.59999L6.31914 1.77653Z" fill="black"/>
</svg>
