<svg width="20" height="20" viewBox="0 0 20 20" fill="none" xmlns="http://www.w3.org/2000/svg">
<path fill-rule="evenodd" clip-rule="evenodd" d="M3.53393 3.53393C4.14343 2.92444 4.97008 2.58203 5.83203 2.58203H9.04786C9.69394 2.58228 10.3138 2.83902 10.7707 3.29583L17.5348 10.0592C17.5348 10.0592 17.5348 10.0592 17.5348 10.0592C17.7612 10.2855 17.9408 10.5542 18.0633 10.85C18.1858 11.1457 18.2489 11.4627 18.2489 11.7829C18.2489 12.103 18.1858 12.42 18.0633 12.7157C17.9408 13.0115 17.7612 13.2802 17.5348 13.5066L13.5066 17.5348C13.2802 17.7612 13.0115 17.9408 12.7157 18.0633C12.42 18.1858 12.103 18.2489 11.7829 18.2489C11.4627 18.2489 11.1457 18.1858 10.85 18.0633C10.5543 17.9408 10.2855 17.7612 10.0592 17.5349C10.0592 17.5348 10.0592 17.5349 10.0592 17.5349L3.29587 10.7715C2.83839 10.3141 2.58203 9.69405 2.58203 9.04786V5.83203C2.58203 4.97008 2.92444 4.14343 3.53393 3.53393ZM5.83203 4.08203C5.3679 4.08203 4.92278 4.26641 4.59459 4.59459C4.26641 4.92278 4.08203 5.3679 4.08203 5.83203V9.04786C4.08203 9.29668 4.18067 9.53501 4.35653 9.71087L11.1199 16.4742C11.2069 16.5613 11.3103 16.6304 11.4241 16.6775C11.5378 16.7246 11.6597 16.7489 11.7829 16.7489C11.906 16.7489 12.0279 16.7246 12.1417 16.6775C12.2554 16.6304 12.3588 16.5613 12.4458 16.4742L16.4742 12.4459C16.5613 12.3588 16.6304 12.2554 16.6775 12.1417C16.7246 12.0279 16.7489 11.906 16.7489 11.7829C16.7489 11.6597 16.7246 11.5378 16.6775 11.4241C16.6304 11.3103 16.5613 11.207 16.4742 11.1199L9.71008 4.35657C9.71007 4.35657 9.71008 4.35657 9.71008 4.35657C9.53442 4.18095 9.29625 4.0822 9.04786 4.08203H5.83203ZM7.08203 6.9987C7.03601 6.9987 6.9987 7.03601 6.9987 7.08203C6.9987 7.12805 7.03601 7.16536 7.08203 7.16536C7.12806 7.16536 7.16536 7.12806 7.16536 7.08203C7.16536 7.03601 7.12805 6.9987 7.08203 6.9987ZM5.4987 7.08203C5.4987 6.20758 6.20758 5.4987 7.08203 5.4987C7.95648 5.4987 8.66536 6.20758 8.66536 7.08203C8.66536 7.95648 7.95648 8.66536 7.08203 8.66536C6.20758 8.66536 5.4987 7.95648 5.4987 7.08203Z" fill="black"/>
</svg>
