<svg width="24" height="24" viewBox="0 0 24 24" fill="none" xmlns="http://www.w3.org/2000/svg">
<path d="M7.84595 11.996C7.84595 9.69995 9.70615 7.83801 12.0039 7.83801C14.3 7.83801 16.1619 9.69822 16.1619 11.996C16.1619 14.2921 14.3017 16.154 12.0039 16.154C9.70788 16.154 7.84595 14.2938 7.84595 11.996Z" fill="black"/>
<path fill-rule="evenodd" clip-rule="evenodd" d="M21.4448 21.4574C19.8913 23.0137 17.7837 23.0089 13.2312 22.9984C12.8406 22.9975 12.4315 22.9965 12.0037 22.9965C11.7411 22.9965 11.486 22.9967 11.238 22.9969C6.2199 23.0005 4.1169 23.002 2.56261 21.4407C0.9456 19.8285 0.97234 17.3755 1.01115 13.8155C1.01743 13.2395 1.02402 12.6345 1.02402 11.9994C1.02402 11.4608 1.01921 10.9354 1.01453 10.4247C0.965585 5.08412 0.931424 1.35653 6.57407 1.06701L6.63805 1.06475C8.00789 1.01625 8.46682 1 11.9881 1L12.0383 1.03351C12.5474 1.03351 13.0471 1.02893 13.5354 1.02446C18.7463 0.976741 22.6651 0.940856 22.921 6.60245C22.9845 8.01535 22.999 8.43978 22.999 12.0161C22.9989 12.3377 22.9992 12.6482 22.9995 12.9482C23.0041 17.7965 23.0061 19.886 21.4448 21.4574ZM18.406 7.03401C19.2007 7.03401 19.845 6.38974 19.845 5.59501C19.845 4.80027 19.2007 4.15601 18.406 4.15601C17.6113 4.15601 16.967 4.80027 16.967 5.59501C16.967 6.38974 17.6113 7.03401 18.406 7.03401ZM5.84595 11.996C5.84595 8.59601 8.60095 5.83801 12.0039 5.83801C15.4039 5.83801 18.1619 8.59301 18.1619 11.996C18.1619 15.396 15.4069 18.154 12.0039 18.154C8.60395 18.154 5.84595 15.399 5.84595 11.996Z" fill="black"/>
</svg>
