<svg width="24" height="24" viewBox="0 0 24 24" fill="none" xmlns="http://www.w3.org/2000/svg">
<path d="M1.48512 11.8706L5.23871 13.1193C6.06826 13.3953 6.97692 13.2956 7.72697 12.8465L18.5593 6.35973C18.7334 6.2554 18.9119 6.48708 18.7617 6.6225L10.2627 14.2853C9.87993 14.6303 9.64517 15.1098 9.60731 15.6237L9.32807 19.4139C9.30231 19.7632 9.73181 19.9576 9.9867 19.7121L12.4824 17.3083C12.6583 17.1388 12.9309 17.1213 13.1271 17.2667L17.9066 20.8108C18.4585 21.2201 19.2575 20.9316 19.4064 20.2695L22.9711 4.41528C23.1744 3.51084 22.2697 2.74764 21.3867 3.07886L1.45937 10.5533C0.834254 10.7878 0.851281 11.6598 1.48512 11.8706Z" fill="black"/>
</svg>
