<svg width="143" height="143" viewBox="0 0 143 143" fill="none" xmlns="http://www.w3.org/2000/svg">
<g clip-path="url(#clip0_4344_7854)">
<path d="M102.428 19.2889H40.572C34.8864 19.2889 30.2627 23.9123 30.2627 29.5982V52.7941C30.2627 54.2187 31.4155 55.3715 32.8401 55.3715H110.16C111.584 55.3715 112.737 54.2187 112.737 52.7941V29.5982C112.737 23.9123 108.113 19.2889 102.428 19.2889Z" fill="#C8C8C8"/>
<path d="M57.6135 45.0621H42.1496C41.1075 45.0621 40.1664 44.4353 39.7687 43.4715C39.3685 42.5074 39.5899 41.4 40.3275 40.6626L42.9049 38.0852C43.9118 37.0784 45.5427 37.0784 46.5493 38.0852C47.0526 38.5885 47.3044 39.2481 47.3044 39.9075H57.6137C59.0384 39.9075 60.1911 41.0603 60.1911 42.4849C60.1911 43.9095 59.0381 45.0621 57.6135 45.0621Z" fill="#8F8F8F"/>
<path d="M110.16 60.526H32.8401C31.4155 60.526 30.2627 61.6788 30.2627 63.1034V127.536C30.2627 133.222 34.8862 137.845 40.572 137.845V140.423C40.572 141.847 41.7248 143 43.1494 143H48.304C49.7286 143 50.8814 141.847 50.8814 140.423V137.845H92.1185V140.423C92.1185 141.847 93.2713 143 94.6959 143H99.8505C101.275 143 102.428 141.847 102.428 140.423V137.845C108.113 137.845 112.737 133.222 112.737 127.536V63.1032C112.737 61.6788 111.584 60.526 110.16 60.526Z" fill="#DADADA"/>
<path d="M110.484 60.7495L110.492 60.75H110.5C111.192 60.75 111.743 60.9786 112.124 61.4146C112.51 61.8551 112.75 62.5389 112.75 63.5V127.616C112.75 133.129 108.255 137.614 102.727 137.614H102.719L102.711 137.615L77.3727 139.259L77.3727 139.259L77.3674 139.26L57.0564 141.011C52.5659 141.398 48.6935 137.886 48.6413 133.379L47.7875 59.7308C47.7689 58.1309 49.1148 56.853 50.7115 56.9544L110.484 60.7495Z" fill="#C8C8C8" stroke="#F7F7F7" stroke-width="0.5"/>
<path d="M71 79.2426L59.0003 80C58.1917 80 57.4614 79.3515 57.1528 78.3543C56.8423 77.3568 57.014 76.211 57.5864 75.448L59.5864 72.7813C60.3677 71.7396 61.6333 71.7396 62.4144 72.7813C62.8049 73.3021 63.0003 73.9845 63.0003 74.6668L71 75.7015C71.7434 75.7015 73 75.8595 73 77.3335C73 78.8075 72.1055 79.2426 71 79.2426Z" fill="#8F8F8F"/>
<path d="M6 143.5H136" stroke="#C8C8C8" stroke-width="2" stroke-miterlimit="10" stroke-linecap="round" stroke-linejoin="round"/>
<rect x="97" y="10.5" width="36" height="36" rx="18" fill="url(#paint0_linear_4344_7854)"/>
<path d="M115.006 36.8355C113.998 36.8355 113.09 36.6577 112.283 36.3021C111.475 35.939 110.786 35.4055 110.215 34.7016C109.652 33.9978 109.219 33.1272 108.915 32.0898C108.611 31.0525 108.459 29.8559 108.459 28.5C108.459 27.1441 108.611 25.9475 108.915 24.9102C109.219 23.8729 109.652 23.0023 110.215 22.2984C110.786 21.5945 111.475 21.0647 112.283 20.7091C113.09 20.346 113.998 20.1645 115.006 20.1645C116.013 20.1645 116.917 20.346 117.717 20.7091C118.525 21.0647 119.21 21.5945 119.774 22.2984C120.344 23.0023 120.781 23.8729 121.085 24.9102C121.389 25.9475 121.541 27.1441 121.541 28.5C121.541 29.8559 121.389 31.0525 121.085 32.0898C120.781 33.1272 120.344 33.9978 119.774 34.7016C119.21 35.4055 118.525 35.939 117.717 36.3021C116.917 36.6577 116.013 36.8355 115.006 36.8355ZM115.006 33.9903C115.569 33.9903 116.058 33.8607 116.473 33.6014C116.888 33.342 117.232 32.9753 117.506 32.5011C117.788 32.0195 117.995 31.4415 118.129 30.7673C118.269 30.0856 118.34 29.3299 118.34 28.5C118.34 27.6628 118.269 26.907 118.129 26.2327C117.995 25.5585 117.788 24.9843 117.506 24.5101C117.232 24.0285 116.888 23.658 116.473 23.3987C116.058 23.1393 115.569 23.0097 115.006 23.0097C114.443 23.0097 113.95 23.1393 113.527 23.3987C113.113 23.658 112.764 24.0285 112.483 24.5101C112.209 24.9843 112.001 25.5585 111.86 26.2327C111.727 26.907 111.66 27.6628 111.66 28.5C111.66 29.3299 111.727 30.0856 111.86 30.7673C112.001 31.4415 112.209 32.0195 112.483 32.5011C112.764 32.9753 113.113 33.342 113.527 33.6014C113.95 33.8607 114.443 33.9903 115.006 33.9903Z" fill="white"/>
</g>
<defs>
<linearGradient id="paint0_linear_4344_7854" x1="115.052" y1="-9.95455" x2="111.871" y2="56.5776" gradientUnits="userSpaceOnUse">
<stop stop-color="#FF831B"/>
<stop offset="1" stop-color="#FF3300"/>
</linearGradient>
<clipPath id="clip0_4344_7854">
<rect width="143" height="143" fill="white"/>
</clipPath>
</defs>
</svg>
