<svg width="144" height="144" viewBox="0 0 144 144" fill="none" xmlns="http://www.w3.org/2000/svg">
    <path d="M140.741 29.1662C140.345 28.7019 139.853 28.329 139.299 28.0733C138.745 27.8176 138.142 27.6852 137.531 27.6851H40.1107L39.4312 22.4907C38.8043 17.7083 36.479 13.3371 32.8835 10.1824C29.2882 7.02842 24.6524 5.29114 19.8301 5.29114H6.46875C4.13887 5.29114 2.25 7.18001 2.25 9.50989C2.25 11.8398 4.13887 13.7286 6.46875 13.7286H19.8301C25.5915 13.7286 30.3168 17.8745 31.0652 23.5859L40.0435 92.2278L39.7673 92.2517C32.3066 92.905 26.723 99.2736 27.0554 106.744C27.3769 114.221 33.4879 120.07 40.9731 120.07H40.995L45.3797 120.063C44.7205 121.679 44.382 123.408 44.3829 125.154C44.3829 132.628 50.4596 138.708 57.9291 138.708C65.3985 138.708 71.4831 132.628 71.4831 125.154C71.4841 123.394 71.1398 121.65 70.4697 120.022L97.5167 119.978C96.8581 121.594 96.5199 123.322 96.5208 125.067C96.5208 132.541 102.601 138.621 110.075 138.621C117.548 138.621 123.621 132.541 123.621 125.067C123.621 117.593 117.544 111.521 110.075 111.521H110.068L40.9815 111.632H40.9728C39.5558 111.636 38.1924 111.09 37.169 110.11C36.1456 109.13 35.5419 107.792 35.4845 106.376C35.3531 103.427 37.5576 100.915 40.4994 100.657L119.359 93.8174C126.971 93.1598 132.898 87.6476 134.107 80.0991L141.697 32.569C141.793 31.9664 141.757 31.35 141.592 30.7625C141.427 30.175 141.137 29.6303 140.741 29.1659L140.741 29.1662ZM57.9291 130.271C55.1121 130.271 52.8204 127.976 52.8204 125.155C52.8204 122.333 55.1121 120.046 57.9291 120.046C60.7461 120.046 63.0456 122.337 63.0456 125.155C63.0456 127.972 60.7503 130.271 57.9291 130.271ZM115.184 125.067C115.184 127.888 112.892 130.184 110.075 130.184C107.258 130.184 104.959 127.888 104.959 125.067C104.959 122.245 107.254 119.958 110.075 119.958H110.075C112.892 119.958 115.184 122.25 115.184 125.067ZM64.4383 79.0422C64.3042 79.0549 64.1708 79.061 64.0387 79.061C61.8865 79.061 60.0486 77.4222 59.8433 75.2366L57.1967 47.0708C56.979 44.7511 58.6825 42.694 61.0023 42.476C63.3192 42.2584 65.3791 43.9619 65.5973 46.2816L68.2439 74.4474C68.4616 76.7672 66.7581 78.8242 64.4383 79.0422ZM91.3897 74.842C91.3897 77.1719 89.5008 79.0608 87.1709 79.0608C84.841 79.0608 82.9522 77.1719 82.9522 74.842V46.6762C82.9522 44.3464 84.841 42.4575 87.1709 42.4575C89.5008 42.4575 91.3897 44.3464 91.3897 46.6762V74.842ZM117.145 47.0722L114.49 75.238C114.285 77.423 112.447 79.061 110.295 79.061C110.163 79.061 110.029 79.0549 109.895 79.0422C107.575 78.8237 105.871 76.766 106.09 74.4463L108.745 46.2805C108.963 43.9608 111.021 42.2553 113.341 42.4763C115.66 42.6949 117.364 44.7525 117.145 47.0722Z" fill="#C8C8C8"/>
</svg>
