<svg width="24" height="24" viewBox="0 0 24 24" fill="none" xmlns="http://www.w3.org/2000/svg">
<path d="M15.2122 7.33252H9.58789V17.1432H15.2122V7.33252Z" fill="#FF5F00"/>
<path d="M9.94507 12.2403C9.9443 11.2956 10.1649 10.3631 10.5903 9.51345C11.0156 8.66375 11.6345 7.91909 12.4001 7.33583C11.4519 6.6125 10.3131 6.1627 9.1139 6.03785C7.91473 5.913 6.70355 6.11812 5.6188 6.62978C4.53405 7.14144 3.61949 7.93899 2.97964 8.93128C2.3398 9.92357 2.00049 11.0706 2.00049 12.2412C2.00049 13.4118 2.3398 14.5588 2.97964 15.5511C3.61949 16.5434 4.53405 17.3409 5.6188 17.8526C6.70355 18.3642 7.91473 18.5694 9.1139 18.4445C10.3131 18.3196 11.4519 17.8698 12.4001 17.1465C11.6343 16.5631 11.0152 15.8181 10.5899 14.9681C10.1645 14.1181 9.94403 13.1853 9.94507 12.2403Z" fill="#EB001B"/>
<path d="M22.801 12.2404C22.801 13.4111 22.4616 14.5582 21.8216 15.5505C21.1817 16.5428 20.267 17.3404 19.1821 17.8519C18.0972 18.3635 16.8859 18.5685 15.6866 18.4435C14.4874 18.3185 13.3486 17.8684 12.4004 17.1449C13.1657 16.5611 13.7844 15.8162 14.2099 14.9665C14.6353 14.1168 14.8564 13.1843 14.8564 12.2395C14.8564 11.2948 14.6353 10.3623 14.2099 9.51259C13.7844 8.66285 13.1657 7.91798 12.4004 7.3342C13.3487 6.61055 14.4877 6.16052 15.6871 6.03555C16.8865 5.91058 18.0979 6.11572 19.1829 6.62752C20.2678 7.13932 21.1825 7.93711 21.8223 8.92969C22.4622 9.92227 22.8013 11.0696 22.801 12.2404Z" fill="#F79E1B"/>
<path d="M22.1831 16.1033V15.9022H22.267V15.8624H22.0581V15.904H22.142V16.105L22.1831 16.1033ZM22.5955 16.1033V15.8607H22.5402L22.4652 16.034L22.3902 15.8607H22.3241V16.1033H22.3616V15.9213L22.4313 16.079H22.4795L22.5491 15.9213V16.105L22.5955 16.1033Z" fill="#F79E1B"/>
</svg>
