<svg width="24" height="24" viewBox="0 0 24 24" fill="none" xmlns="http://www.w3.org/2000/svg">
<path fill-rule="evenodd" clip-rule="evenodd" d="M2.91823 8.96155C3.11733 8.96036 3.70903 8.90706 3.95966 9.75295C4.12849 10.3228 4.39743 11.2561 4.76647 12.553H4.91676C5.31253 11.1857 5.5844 10.2524 5.73237 9.75295C5.98562 8.89825 6.61873 8.96156 6.87197 8.96156L8.82581 8.96157V15.0394H6.83441V11.4576H6.70087L5.59076 15.0394H4.09248L2.98237 11.455H2.84883V15.0394H0.857422V8.96157L2.91823 8.96155ZM11.6854 8.96157V12.546H11.8443L13.1946 9.59855C13.4568 9.01199 14.0154 8.96157 14.0154 8.96157H15.9425V15.0394H13.9095V11.455H13.7507L12.4268 14.4024C12.1647 14.9863 11.5795 15.0394 11.5795 15.0394H9.65244V8.96157H11.6854ZM22.9695 11.8498C22.6859 12.6534 21.7953 13.2289 20.8094 13.2289H18.6774V15.0394H16.7441V11.8498H22.9695Z" fill="#0F754E"/>
<path fill-rule="evenodd" clip-rule="evenodd" d="M20.9025 8.96155H16.6426C16.744 10.3147 17.9092 11.4731 19.1156 11.4731H23.1037C23.3338 10.3484 22.5415 8.96155 20.9025 8.96155Z" fill="url(#paint0_linear_542_4177)"/>
<defs>
<linearGradient id="paint0_linear_542_4177" x1="666.662" y1="166.946" x2="16.6426" y2="166.946" gradientUnits="userSpaceOnUse">
<stop stop-color="#1F5CD7"/>
<stop offset="1" stop-color="#02AEFF"/>
</linearGradient>
</defs>
</svg>
