<svg width="24" height="24" viewBox="0 0 24 24" fill="none" xmlns="http://www.w3.org/2000/svg">
<path d="M9.1125 8.49184L5.97 15.9881H3.92L2.37375 10.0056C2.28 9.63684 2.19875 9.50184 1.9125 9.34684C1.44625 9.09434 0.67625 8.85684 0 8.70934L0.04625 8.49184H3.34625C3.76625 8.49184 4.145 8.77184 4.24 9.25684L5.05625 13.5943L7.075 8.49184H9.1125ZM17.145 13.5406C17.1537 11.5618 14.4087 11.4531 14.4275 10.5693C14.4337 10.3006 14.69 10.0143 15.25 9.94184C15.5275 9.90559 16.2938 9.87809 17.1625 10.2768L17.5025 8.68684C17.0362 8.51684 16.4363 8.35434 15.6888 8.35434C13.7712 8.35434 12.4225 9.37309 12.4113 10.8331C12.3988 11.9118 13.3737 12.5143 14.1087 12.8731C14.865 13.2406 15.1187 13.4768 15.115 13.8043C15.11 14.3068 14.5125 14.5293 13.9538 14.5381C12.9788 14.5531 12.4137 14.2743 11.9625 14.0643L11.6113 15.7068C12.0638 15.9143 12.9013 16.0956 13.7675 16.1056C15.8063 16.1056 17.1388 15.0993 17.145 13.5406ZM22.2063 15.9881H24L22.4338 8.49184H20.7788C20.4062 8.49184 20.0925 8.70809 19.9538 9.04184L17.0438 15.9881H19.08L19.485 14.8681H21.9725L22.2063 15.9881ZM20.0425 13.3318L21.0637 10.5168L21.6513 13.3318H20.0425ZM11.8837 8.49184L10.28 15.9881H8.34L9.945 8.49184H11.8837Z" fill="#1434CB"/>
</svg>
