<svg width="90" height="121" viewBox="0 0 90 121" fill="none" xmlns="http://www.w3.org/2000/svg">
<path opacity="0.4" d="M1.2998 39.6428C1.2998 29.8842 1.2998 25.005 3.14062 21.1592C4.76161 17.7727 7.36032 14.9497 10.6014 13.0545C14.2819 10.9023 19.1445 10.4993 28.8697 9.69326L56.8953 7.37046C68.189 6.43441 73.8359 5.96639 78.1917 7.87698C82.0188 9.55564 85.1768 12.4627 87.1658 16.1381C89.4297 20.3212 89.4297 25.9875 89.4297 37.3199V84.817C89.4297 95.7946 89.4297 101.283 87.2597 105.397C85.3523 109.013 82.3172 111.907 78.6152 113.642C74.4039 115.615 68.9212 115.355 57.9558 114.836L29.9302 113.508C19.8636 113.031 14.8302 112.793 11.0057 110.682C7.63935 108.824 4.92443 105.977 3.22761 102.527C1.2998 98.6066 1.2998 93.5676 1.2998 83.4897V39.6428Z" fill="#FF3D12"/>
<path d="M0.289062 35.5606C0.289062 25.9998 0.289062 21.2194 2.07587 17.4213C3.64975 14.0758 6.176 11.2692 9.33806 9.35314C12.9279 7.17793 17.682 6.67667 27.1901 5.67415L43.0598 4.00089C54.5586 2.78848 60.308 2.18228 64.755 4.05045C68.661 5.69131 71.8975 8.60451 73.9389 12.3169C76.2631 16.5436 76.2631 22.3249 76.2631 33.8874V87.1126C76.2631 98.6751 76.2631 104.456 73.9389 108.683C71.8975 112.395 68.661 115.309 64.755 116.95C60.308 118.818 54.5586 118.212 43.0597 116.999L27.1901 115.326C17.6819 114.323 12.9279 113.822 9.33806 111.647C6.176 109.731 3.64975 106.924 2.07587 103.579C0.289062 99.7806 0.289062 95.0002 0.289062 85.4393V35.5606Z" fill="url(#paint0_linear_2936_18942)"/>
<path d="M0.289062 41.9018L76.2631 39.1086" stroke="white" stroke-width="2.08696"/>
<path d="M44.8604 59.0477L61.4307 58.8211" stroke="white" stroke-width="5.21739" stroke-linecap="round"/>
<defs>
<linearGradient id="paint0_linear_2936_18942" x1="38.2761" y1="0.500002" x2="38.2761" y2="120.5" gradientUnits="userSpaceOnUse">
<stop stop-color="#FF831B"/>
<stop offset="1" stop-color="#FF3300"/>
</linearGradient>
</defs>
</svg>
