<svg width="96" height="96" viewBox="0 0 96 96" fill="none" xmlns="http://www.w3.org/2000/svg">
<path opacity="0.4" d="M18.646 41.7431C18.646 32.3907 18.646 27.7145 20.4102 24.0289C21.9638 20.7834 24.4544 18.078 27.5606 16.2618C31.088 14.1994 35.7482 13.8134 45.0687 13.0414L46.8578 12.8932C57.6804 11.9968 63.0918 11.5486 67.2659 13.3797C70.9334 14.9885 73.9596 17.7744 75.8656 21.2965C78.035 25.3053 78.035 30.7352 78.035 41.5949V55.3063C78.035 65.8263 78.035 71.0863 75.9556 75.0281C74.1277 78.4932 71.2191 81.2673 67.6715 82.9294C63.6358 84.8201 58.3817 84.5715 47.8735 84.0741L46.0844 83.9894C36.4369 83.5328 31.6131 83.3045 27.9478 81.2814C24.7216 79.5007 22.1197 76.7728 20.4936 73.466C18.646 69.7092 18.646 64.88 18.646 55.2216V41.7431Z" fill="#FF3D12"/>
<path d="M17.9649 35.9377C17.9649 29.5063 17.9649 26.2906 18.8196 23.6169C20.3906 18.7024 23.9949 14.6983 28.7177 12.621C31.2872 11.4909 34.4852 11.1539 40.8812 10.4799V10.4799C48.6107 9.66549 52.4755 9.25827 55.5935 10.0502C61.3375 11.5092 65.9952 15.7019 68.048 21.2613C69.1623 24.2792 69.1623 28.1654 69.1623 35.9377V59.8748C69.1623 67.6471 69.1623 71.5333 68.048 74.5512C65.9952 80.1106 61.3375 84.3033 55.5935 85.7623C52.4755 86.5542 48.6107 86.147 40.8812 85.3326V85.3326C34.4852 84.6586 31.2872 84.3216 28.7177 83.1915C23.9949 81.1142 20.3906 77.1101 18.8196 72.1956C17.9649 69.5219 17.9649 66.3062 17.9649 59.8748V35.9377Z" fill="url(#paint0_linear_1_4)"/>
<path d="M17.9649 35.3815L69.1623 33.5005" stroke="white" stroke-width="2.32"/>
<path d="M48.0007 46.9282L59.1697 46.7756" stroke="white" stroke-width="3.29" stroke-linecap="round"/>
<defs>
<linearGradient id="paint0_linear_1_4" x1="43.5636" y1="7.5" x2="43.5636" y2="88.3125" gradientUnits="userSpaceOnUse">
<stop stop-color="#FF831B"/>
<stop offset="1" stop-color="#FF3300"/>
</linearGradient>
</defs>
</svg>
