<svg width="20" height="20" viewBox="0 0 20 20" fill="none" xmlns="http://www.w3.org/2000/svg">
<path fill-rule="evenodd" clip-rule="evenodd" d="M14.6971 5.30317C14.99 5.59606 14.99 6.07093 14.6971 6.36383L10.5304 10.5305C10.2375 10.8234 9.76264 10.8234 9.46975 10.5305C9.17686 10.2376 9.17686 9.76273 9.46975 9.46983L13.6364 5.30317C13.9293 5.01027 14.4042 5.01027 14.6971 5.30317ZM18.8637 5.30317C19.1566 5.59606 19.1566 6.07093 18.8637 6.36383L10.5304 14.6972C10.2375 14.9901 9.76264 14.9901 9.46975 14.6972L5.30308 10.5305C5.01019 10.2376 5.01019 9.76273 5.30308 9.46983C5.59598 9.17694 6.07085 9.17694 6.36375 9.46983L10.0001 13.1062L17.8031 5.30317C18.096 5.01027 18.5709 5.01027 18.8637 5.30317ZM1.13642 9.46983C1.42931 9.17694 1.90418 9.17694 2.19708 9.46983L6.36375 13.6365C6.65664 13.9294 6.65664 14.4043 6.36375 14.6972C6.07085 14.9901 5.59598 14.9901 5.30308 14.6972L1.13642 10.5305C0.843525 10.2376 0.843525 9.76273 1.13642 9.46983Z" fill="black"/>
</svg>
