<svg width="24" height="24" viewBox="0 0 24 24" fill="none" xmlns="http://www.w3.org/2000/svg">
<path fill-rule="evenodd" clip-rule="evenodd" d="M8.79427 1.87301C10.6954 1.33869 12.7121 1.37921 14.5903 1.98946C16.4684 2.59971 18.1238 3.75237 19.3477 5.30211C20.5716 6.85185 21.3093 8.72928 21.4678 10.6977C21.5121 11.2482 21.1017 11.7304 20.5512 11.7747C20.0007 11.819 19.5185 11.4087 19.4742 10.8581C19.3475 9.28342 18.7573 7.78148 17.7782 6.54169C16.799 5.3019 15.4747 4.37977 13.9722 3.89157C12.4697 3.40337 10.8563 3.37095 9.33542 3.79841C7.81453 4.22586 6.45425 5.09405 5.42609 6.29351C4.39793 7.49297 3.74792 8.97 3.55801 10.5384C3.36811 12.1067 3.64682 13.6962 4.359 15.1064C5.07118 16.5166 6.18494 17.6843 7.55986 18.4624C8.93478 19.2405 10.5093 19.5941 12.0849 19.4786C12.6357 19.4382 13.1149 19.852 13.1553 20.4028C13.1957 20.9536 12.7819 21.4329 12.2311 21.4732C10.2616 21.6176 8.29347 21.1756 6.57483 20.203C4.85618 19.2304 3.46397 17.7707 2.57375 16.008C1.68353 14.2453 1.33514 12.2584 1.57252 10.298C1.80989 8.3375 2.6224 6.49122 3.90761 4.99189C5.19281 3.49257 6.89316 2.40733 8.79427 1.87301ZM11.5 5.49991C12.0523 5.49991 12.5 5.94762 12.5 6.49991V11.0857L13.7071 12.2928C14.0976 12.6833 14.0976 13.3165 13.7071 13.707C13.3166 14.0975 12.6834 14.0975 12.2929 13.707L10.7929 12.207C10.6054 12.0195 10.5 11.7651 10.5 11.4999V6.49991C10.5 5.94762 10.9477 5.49991 11.5 5.49991ZM16.2776 14.1735C16.9354 13.7339 17.7088 13.4993 18.5 13.4993C19.2912 13.4993 20.0646 13.7339 20.7224 14.1735C21.3802 14.6131 21.8929 15.2378 22.1956 15.9688C22.4984 16.6998 22.5775 17.5041 22.4231 18.2801C22.2687 19.0558 21.8878 19.7683 21.3285 20.3276C20.9322 20.7249 20.193 21.3766 19.1462 22.263C18.7749 22.5775 18.2311 22.579 17.858 22.2666C16.8604 21.4313 16.1241 20.7812 15.672 20.3281M15.6711 20.3272C15.112 19.7679 14.7313 19.0556 14.5769 18.2801C14.4225 17.5041 14.5017 16.6998 14.8044 15.9688C15.1071 15.2378 15.6198 14.6131 16.2776 14.1735M18.5 15.4993C18.1044 15.4993 17.7177 15.6166 17.3888 15.8364C17.0599 16.0562 16.8035 16.3686 16.6522 16.734C16.5008 17.0995 16.4613 17.5017 16.5385 17.8897C16.6157 18.2776 16.8062 18.634 17.086 18.9137L17.087 18.9146C17.3813 19.2097 17.8479 19.632 18.4973 20.1878C19.1903 19.5919 19.6575 19.1709 19.9129 18.9148L19.914 18.9137C20.1938 18.634 20.3843 18.2776 20.4615 17.8897C20.5387 17.5017 20.4992 17.0995 20.3478 16.734C20.1965 16.3686 19.9401 16.0562 19.6112 15.8364C19.2823 15.6166 18.8956 15.4993 18.5 15.4993ZM18.5 16.4999C19.0523 16.4999 19.5 16.9476 19.5 17.4999V17.5099C19.5 18.0622 19.0523 18.5099 18.5 18.5099C17.9477 18.5099 17.5 18.0622 17.5 17.5099V17.4999C17.5 16.9476 17.9477 16.4999 18.5 16.4999Z" fill="black"/>
</svg>
