<svg width="24" height="24" viewBox="0 0 24 24" fill="none" xmlns="http://www.w3.org/2000/svg">
<path fill-rule="evenodd" clip-rule="evenodd" d="M9.65527 4.84533C8.95951 4.07227 8.20923 3.7382 7.51306 3.75033L7.5 3.75056C7.03587 3.75056 6.59075 3.93482 6.26256 4.26301C5.93437 4.59119 5.75 5.03631 5.75 5.50044C5.75 5.96457 5.93437 6.40969 6.26256 6.73788C6.58936 7.06467 7.03208 7.24887 7.49408 7.25043H11.0002C10.6592 6.26439 10.1939 5.44378 9.65527 4.84533ZM11.25 8.75043V11.2504H4C3.9337 11.2504 3.87011 11.2241 3.82322 11.1772C3.77634 11.1303 3.75 11.0667 3.75 11.0004V9.00043C3.75 8.93413 3.77634 8.87054 3.82322 8.82366C3.87011 8.77677 3.9337 8.75043 4 8.75043H7.49193C7.49462 8.75044 7.49731 8.75044 7.5 8.75044C7.50131 8.75044 7.50261 8.75044 7.50392 8.75043H11.25ZM4.76137 7.25043C4.43003 6.73188 4.25 6.12544 4.25 5.50044C4.25 4.63849 4.59241 3.81184 5.2019 3.20235C5.80984 2.5944 6.63384 2.25219 7.49342 2.25045C8.72414 2.23118 9.86213 2.83291 10.7702 3.84188C11.2484 4.37324 11.6608 5.01331 12 5.73149C12.3392 5.01331 12.7516 4.37324 13.2298 3.84188C14.1379 2.83291 15.2759 2.23118 16.5066 2.25045C17.3662 2.25219 18.1902 2.5944 18.7981 3.20235C19.4076 3.81184 19.75 4.63849 19.75 5.50044C19.75 6.12544 19.57 6.73188 19.2386 7.25043H20C20.4641 7.25043 20.9092 7.43481 21.2374 7.763C21.5656 8.09119 21.75 8.5363 21.75 9.00043V11.0004C21.75 11.4646 21.5656 11.9097 21.2374 12.2379C20.9092 12.5661 20.4641 12.7504 20 12.7504H19.75V19.0004C19.75 19.7298 19.4603 20.4293 18.9445 20.945C18.4288 21.4607 17.7293 21.7504 17 21.7504H7C6.27065 21.7504 5.57118 21.4607 5.05546 20.945C4.53973 20.4293 4.25 19.7298 4.25 19.0004V12.7504H4C3.53587 12.7504 3.09075 12.5661 2.76256 12.2379C2.43437 11.9097 2.25 11.4646 2.25 11.0004V9.00043C2.25 8.5363 2.43437 8.09118 2.76256 7.763C3.09075 7.43481 3.53587 7.25043 4 7.25043H4.76137ZM5.75 12.7504V19.0004C5.75 19.332 5.8817 19.6499 6.11612 19.8843C6.35054 20.1187 6.66848 20.2504 7 20.2504H11.25V12.7504H5.75ZM12.75 12.7504V20.2504H17C17.3315 20.2504 17.6495 20.1187 17.8839 19.8843C18.1183 19.6499 18.25 19.332 18.25 19.0004V12.7504H12.75ZM20 11.2504C20.0663 11.2504 20.1299 11.2241 20.1768 11.1772C20.2237 11.1303 20.25 11.0667 20.25 11.0004V9.00043C20.25 8.93413 20.2237 8.87054 20.1768 8.82366C20.1299 8.77677 20.0663 8.75043 20 8.75043H16.5081C16.5054 8.75044 16.5027 8.75044 16.5 8.75044C16.4987 8.75044 16.4974 8.75044 16.4961 8.75043H12.75V11.2504H20Z" fill="black"/>
</svg>
