<svg width="24" height="24" viewBox="0 0 24 24" fill="none" xmlns="http://www.w3.org/2000/svg">
<path fill-rule="evenodd" clip-rule="evenodd" d="M11.2787 2.94168L4.53893 6.91565C4.53243 6.91948 4.52588 6.92321 4.51926 6.92685C4.04155 7.18942 3.75 7.68399 3.75 8.21659V15.5007C3.75065 15.7648 3.82217 16.0238 3.9571 16.2508C4.09215 16.478 4.28575 16.6647 4.51766 16.7915C4.53168 16.7991 4.54545 16.8072 4.55895 16.8158L11.2874 21.0721C11.5067 21.1886 11.7514 21.2496 12 21.2496C12.2486 21.2496 12.4933 21.1886 12.7126 21.0721L19.441 16.8158C19.454 16.8075 19.4673 16.7997 19.4807 16.7923C19.9581 16.5299 20.25 16.0346 20.25 15.5016V8.21293C20.2533 7.67915 19.9682 7.18535 19.5043 6.92157C19.4539 6.89289 19.4078 6.85903 19.3665 6.82096L12.7873 2.94168C12.5558 2.81592 12.2965 2.75 12.033 2.75C11.7695 2.75 11.5102 2.81592 11.2787 2.94168ZM20.4316 5.73248C20.3893 5.69126 20.3416 5.65456 20.2889 5.62353L13.5389 1.64353C13.5327 1.63987 13.5264 1.63629 13.5201 1.6328C13.0647 1.38169 12.5531 1.25 12.033 1.25C11.5129 1.25 11.0013 1.38169 10.5459 1.6328C10.5396 1.63629 10.5333 1.63987 10.5271 1.64353L3.78612 5.61819C2.84003 6.14316 2.25 7.13523 2.25 8.21659L2.25 15.5031C2.25107 16.0361 2.39534 16.5591 2.66772 17.0173C2.93572 17.4681 3.31805 17.84 3.77582 18.0953L10.507 22.3534C10.5201 22.3617 10.5335 22.3696 10.547 22.377C10.9923 22.6215 11.492 22.7496 12 22.7496C12.508 22.7496 13.0077 22.6215 13.453 22.377C13.4665 22.3696 13.4799 22.3617 13.493 22.3534L20.2249 18.0949C21.1649 17.5681 21.75 16.5784 21.75 15.5016V8.2196C21.7553 7.21757 21.2565 6.28518 20.4316 5.73248ZM11.4757 8.30291C12.0797 8.18205 12.7069 8.26904 13.2552 8.54973C13.8059 8.83051 14.2459 9.28864 14.5043 9.85019C14.7628 10.412 14.8243 11.0445 14.6791 11.6456C14.5338 12.2467 14.1902 12.7813 13.7036 13.1631C13.2171 13.5448 12.6162 13.7515 11.9977 13.7496C11.5835 13.7484 11.2488 13.4116 11.25 12.9974C11.2512 12.5831 11.588 12.2484 12.0023 12.2496C12.2833 12.2505 12.5565 12.1565 12.7777 11.983C12.9988 11.8095 13.155 11.5665 13.221 11.2933C13.2871 11.02 13.2591 10.7325 13.1416 10.4772C13.0241 10.2218 12.824 10.0135 12.5735 9.88586L12.5721 9.88513C12.3249 9.75853 12.0422 9.71928 11.77 9.77375C11.4977 9.82823 11.2518 9.97323 11.0725 10.1852C10.8048 10.5013 10.3316 10.5407 10.0154 10.2731C9.69928 10.0054 9.65993 9.53221 9.92755 9.21605C10.3257 8.74565 10.8713 8.42382 11.4757 8.30291ZM12 15.2496C12.4142 15.2496 12.75 15.5854 12.75 15.9996V16.0096C12.75 16.4238 12.4142 16.7596 12 16.7596C11.5858 16.7596 11.25 16.4238 11.25 16.0096V15.9996C11.25 15.5854 11.5858 15.2496 12 15.2496Z" fill="black"/>
</svg>
