<svg width="24" height="24" viewBox="0 0 24 24" fill="none" xmlns="http://www.w3.org/2000/svg">
<path fill-rule="evenodd" clip-rule="evenodd" d="M6 4.5C5.46957 4.5 4.96086 4.71071 4.58579 5.08579C4.21071 5.46086 4 5.96957 4 6.5V14.5C4 15.0304 4.21071 15.5391 4.58579 15.9142C4.96086 16.2893 5.46957 16.5 6 16.5H8C8.55228 16.5 9 16.9477 9 17.5V18.7338L12.4855 16.6425C12.6409 16.5493 12.8188 16.5 13 16.5H18C18.5304 16.5 19.0391 16.2893 19.4142 15.9142C19.7893 15.5391 20 15.0304 20 14.5V6.5C20 5.96957 19.7893 5.46086 19.4142 5.08579C19.0391 4.71071 18.5304 4.5 18 4.5H6ZM3.17157 3.67157C3.92172 2.92143 4.93913 2.5 6 2.5H18C19.0609 2.5 20.0783 2.92143 20.8284 3.67157C21.5786 4.42172 22 5.43913 22 6.5V14.5C22 15.5609 21.5786 16.5783 20.8284 17.3284C20.0783 18.0786 19.0609 18.5 18 18.5H13.277L8.5145 21.3575C8.20556 21.5429 7.82081 21.5477 7.5073 21.3702C7.19379 21.1927 7 20.8603 7 20.5V18.5H6C4.93913 18.5 3.92172 18.0786 3.17157 17.3284C2.42143 16.5783 2 15.5609 2 14.5V6.5C2 5.43913 2.42143 4.42172 3.17157 3.67157ZM7 8.5C7 7.94772 7.44772 7.5 8 7.5H16C16.5523 7.5 17 7.94772 17 8.5C17 9.05228 16.5523 9.5 16 9.5H8C7.44772 9.5 7 9.05228 7 8.5ZM7 12.5C7 11.9477 7.44772 11.5 8 11.5H14C14.5523 11.5 15 11.9477 15 12.5C15 13.0523 14.5523 13.5 14 13.5H8C7.44772 13.5 7 13.0523 7 12.5Z" fill="black"/>
</svg>
