<svg width="24" height="24" viewBox="0 0 24 24" fill="none" xmlns="http://www.w3.org/2000/svg">
<path fill-rule="evenodd" clip-rule="evenodd" d="M12 2.25C12.4142 2.25 12.75 2.58579 12.75 3V10.1893L15.9697 6.96967C16.2626 6.67678 16.7374 6.67678 17.0303 6.96967C17.3232 7.26256 17.3232 7.73744 17.0303 8.03033L13.8107 11.25H21C21.4142 11.25 21.75 11.5858 21.75 12C21.75 12.4142 21.4142 12.75 21 12.75H13.8107L17.0303 15.9697C17.3232 16.2626 17.3232 16.7374 17.0303 17.0303C16.7374 17.3232 16.2626 17.3232 15.9697 17.0303L12.75 13.8107V21C12.75 21.4142 12.4142 21.75 12 21.75C11.5858 21.75 11.25 21.4142 11.25 21V13.8107L8.03033 17.0303C7.73744 17.3232 7.26256 17.3232 6.96967 17.0303C6.67678 16.7374 6.67678 16.2626 6.96967 15.9697L10.1893 12.75H3C2.58579 12.75 2.25 12.4142 2.25 12C2.25 11.5858 2.58579 11.25 3 11.25H10.1893L6.96967 8.03033C6.67678 7.73744 6.67678 7.26256 6.96967 6.96967C7.26256 6.67678 7.73744 6.67678 8.03033 6.96967L11.25 10.1893V3C11.25 2.58579 11.5858 2.25 12 2.25Z" fill="black"/>
</svg>
