<svg width="24" height="24" viewBox="0 0 24 24" fill="none" xmlns="http://www.w3.org/2000/svg">
<path d="M16.4402 12.5054C14.3262 12.5559 14.3227 15.6545 16.436 15.7107C18.55 15.6595 18.5528 12.5622 16.4402 12.5054ZM15.8889 14.1101C15.8896 13.391 16.9831 13.3882 16.9873 14.1073C16.9845 14.8244 15.8945 14.8272 15.8889 14.1101ZM12.2256 11.4954C14.3389 11.442 14.3389 8.34342 12.2256 8.29004C10.1116 8.34412 10.113 11.4406 12.2256 11.4954ZM12.2256 9.34422C12.9441 9.34703 12.9441 10.4398 12.2256 10.4426C11.5071 10.4391 11.5078 9.34843 12.2256 9.34422ZM17.7528 8.58571C17.6539 8.48654 17.5196 8.4307 17.3795 8.43043C17.2394 8.43017 17.1049 8.48551 17.0056 8.58431L10.9024 14.6587C10.852 14.7071 10.8118 14.7652 10.784 14.8294C10.7563 14.8936 10.7416 14.9626 10.7408 15.0326C10.74 15.1025 10.7532 15.1719 10.7795 15.2367C10.8059 15.3015 10.8448 15.3604 10.8942 15.4099C10.9435 15.4595 11.0022 15.4987 11.0669 15.5254C11.1316 15.552 11.2009 15.5655 11.2708 15.5651C11.3407 15.5646 11.4099 15.5503 11.4742 15.5228C11.5385 15.4954 11.5968 15.4554 11.6455 15.4052L17.7493 9.33158C17.7986 9.28288 17.8378 9.22494 17.8646 9.16107C17.8915 9.0972 17.9055 9.02866 17.9058 8.95937C17.9061 8.89009 17.8928 8.82142 17.8665 8.7573C17.8403 8.69318 17.8016 8.63487 17.7528 8.58571ZM7.68299 8.86594C7.54329 8.86594 7.40931 8.92144 7.31053 9.02022C7.21175 9.119 7.15625 9.25298 7.15625 9.39268V10.7432C7.15625 10.8829 7.21175 11.0169 7.31053 11.1157C7.40931 11.2145 7.54329 11.27 7.68299 11.27C7.82269 11.27 7.95667 11.2145 8.05545 11.1157C8.15423 11.0169 8.20973 10.8829 8.20973 10.7432V9.39268C8.20973 9.25298 8.15423 9.119 8.05545 9.02022C7.95667 8.92144 7.82269 8.86594 7.68299 8.86594ZM7.68299 12.7315C7.54329 12.7315 7.40931 12.787 7.31053 12.8858C7.21175 12.9846 7.15625 13.1185 7.15625 13.2582V14.6081C7.15625 14.7478 7.21175 14.8818 7.31053 14.9806C7.40931 15.0793 7.54329 15.1348 7.68299 15.1348C7.82269 15.1348 7.95667 15.0793 8.05545 14.9806C8.15423 14.8818 8.20973 14.7478 8.20973 14.6081V13.2582C8.20973 13.1185 8.15423 12.9846 8.05545 12.8858C7.95667 12.787 7.82269 12.7315 7.68299 12.7315Z" fill="black"/>
<path d="M21.3961 10.2597C21.6881 10.1031 21.9319 9.87003 22.1015 9.58548C22.2711 9.30093 22.3601 8.97559 22.359 8.64433V6.83797C22.3585 6.35068 22.1646 5.88351 21.8201 5.53894C21.4755 5.19438 21.0083 5.00056 20.5211 5H3.47861C2.99132 5.00056 2.52415 5.19438 2.17958 5.53894C1.83502 5.88351 1.6412 6.35068 1.64064 6.83797V8.64292C1.63952 8.97419 1.72853 9.29952 1.89815 9.58407C2.06777 9.86862 2.3116 10.1017 2.60352 10.2583C2.91859 10.427 3.18197 10.678 3.3656 10.9846C3.54922 11.2912 3.6462 11.6419 3.6462 11.9993C3.6462 12.3567 3.54922 12.7074 3.3656 13.014C3.18197 13.3206 2.91859 13.5716 2.60352 13.7403C2.31138 13.897 2.06742 14.1303 1.89779 14.4151C1.72816 14.7 1.63926 15.0256 1.64064 15.3571V17.162C1.6412 17.6493 1.83502 18.1165 2.17958 18.4611C2.52415 18.8056 2.99132 18.9994 3.47861 19H20.5211C21.0083 18.9994 21.4755 18.8056 21.8201 18.4611C22.1646 18.1165 22.3585 17.6493 22.359 17.162V15.3571C22.3601 15.0258 22.2711 14.7005 22.1015 14.4159C21.9319 14.1314 21.6881 13.8983 21.3961 13.7418C20.0168 13.0514 20.0273 10.95 21.3961 10.2597ZM19.6614 13.4285C19.9431 13.9547 20.3742 14.3857 20.9003 14.6674C21.1524 14.8037 21.3084 15.0677 21.3055 15.3543V17.1592C21.3054 17.3672 21.2226 17.5667 21.0756 17.7137C20.9285 17.8608 20.7291 17.9435 20.5211 17.9437H8.20731C8.17852 17.4872 8.38851 16.6135 7.68058 16.596C6.97194 16.6128 7.18263 17.4907 7.15384 17.9465H3.47861C3.2706 17.9463 3.07117 17.8636 2.92409 17.7166C2.77701 17.5695 2.6943 17.37 2.69412 17.162V15.3571C2.69273 15.2165 2.72974 15.0783 2.80115 14.9573C2.87257 14.8362 2.97568 14.737 3.09936 14.6702C3.58221 14.4115 3.98583 14.0267 4.26722 13.5567C4.54861 13.0867 4.69723 12.5492 4.69723 12.0014C4.69723 11.4536 4.54861 10.9161 4.26722 10.4461C3.98583 9.97613 3.58221 9.59129 3.09936 9.3326C2.97568 9.26585 2.87257 9.1666 2.80115 9.04556C2.72974 8.92451 2.69273 8.78627 2.69412 8.64573V6.83797C2.69482 6.40464 3.04528 6.05418 3.47861 6.05348H7.15384C7.18263 6.51069 6.97124 7.38648 7.68058 7.40403C8.38922 7.38718 8.17852 6.50928 8.20731 6.05348H20.5211C20.9544 6.05418 21.3048 6.40464 21.3055 6.83797V8.64292C21.3084 8.92947 21.1524 9.19354 20.9003 9.32979C20.5498 9.5175 20.2396 9.77243 19.9876 10.08C19.7357 10.3876 19.5467 10.7419 19.4317 11.1225C19.3166 11.5031 19.2777 11.9027 19.3171 12.2984C19.3565 12.694 19.4735 13.0781 19.6614 13.4285Z" fill="black"/>
</svg>
