<svg width="24" height="24" viewBox="0 0 24 24" fill="none" xmlns="http://www.w3.org/2000/svg">
<path fill-rule="evenodd" clip-rule="evenodd" d="M8.17317 2.7612C9.38642 2.25866 10.6868 2 12 2C13.3132 2 14.6136 2.25866 15.8268 2.7612C17.0401 3.26375 18.1425 4.00035 19.0711 4.92893C19.9997 5.85752 20.7362 6.95991 21.2388 8.17317C21.7413 9.38642 22 10.6868 22 12C22 13.3132 21.7413 14.6136 21.2388 15.8268C20.7362 17.0401 19.9997 18.1425 19.0711 19.0711C18.896 19.2462 18.7147 19.4145 18.5276 19.5756C18.4981 19.6041 18.4667 19.6308 18.4336 19.6556C17.652 20.3124 16.7732 20.8468 15.8268 21.2388C14.6136 21.7413 13.3132 22 12 22C10.6868 22 9.38642 21.7413 8.17317 21.2388C6.95991 20.7362 5.85752 19.9997 4.92893 19.0711C4.00035 18.1425 3.26375 17.0401 2.7612 15.8268C2.25866 14.6136 2 13.3132 2 12C2 10.6868 2.25866 9.38642 2.7612 8.17317C3.26375 6.95991 4.00035 5.85752 4.92893 4.92893C5.85752 4.00035 6.95991 3.26375 8.17317 2.7612ZM18.1151 17.158C18.6449 16.53 19.0756 15.823 19.391 15.0615C19.7931 14.0909 20 13.0506 20 12C20 10.9494 19.7931 9.90914 19.391 8.93853C18.989 7.96793 18.3997 7.08602 17.6569 6.34315C16.914 5.60028 16.0321 5.011 15.0615 4.60896C14.0909 4.20693 13.0506 4 12 4C10.9494 4 9.90914 4.20693 8.93853 4.60896C7.96793 5.011 7.08601 5.60028 6.34315 6.34315C5.60028 7.08601 5.011 7.96793 4.60896 8.93853C4.20693 9.90914 4 10.9494 4 12C4 13.0506 4.20693 14.0909 4.60896 15.0615C4.92443 15.8231 5.35518 16.5301 5.88497 17.1581C6.19343 16.7116 6.57449 16.3154 7.0156 15.9875C7.87837 15.346 8.92491 14.9997 10 15M7.38216 18.5327C7.58737 18.1667 7.8683 17.8457 8.20889 17.5925C8.7266 17.2076 9.35459 16.9998 9.9997 17H14C14.6459 16.9998 15.2751 17.208 15.7931 17.5938C16.1329 17.8468 16.4132 18.1673 16.618 18.5326C16.1338 18.8748 15.6119 19.163 15.0615 19.391C14.0909 19.7931 13.0506 20 12 20C10.9494 20 9.90914 19.7931 8.93853 19.391C8.38817 19.1631 7.86632 18.8749 7.38216 18.5327ZM18.1151 17.158C17.8074 16.7126 17.4274 16.3172 16.9876 15.9897C16.1243 15.3468 15.0765 14.9997 14 15C14.0001 15 13.9999 15 14 15H10M9.17157 7.17157C9.92172 6.42143 10.9391 6 12 6C13.0609 6 14.0783 6.42143 14.8284 7.17157C15.5786 7.92172 16 8.93913 16 10C16 11.0609 15.5786 12.0783 14.8284 12.8284C14.0783 13.5786 13.0609 14 12 14C10.9391 14 9.92172 13.5786 9.17157 12.8284C8.42143 12.0783 8 11.0609 8 10C8 8.93913 8.42143 7.92172 9.17157 7.17157ZM12 8C11.4696 8 10.9609 8.21071 10.5858 8.58579C10.2107 8.96086 10 9.46957 10 10C10 10.5304 10.2107 11.0391 10.5858 11.4142C10.9609 11.7893 11.4696 12 12 12C12.5304 12 13.0391 11.7893 13.4142 11.4142C13.7893 11.0391 14 10.5304 14 10C14 9.46957 13.7893 8.96086 13.4142 8.58579C13.0391 8.21071 12.5304 8 12 8Z" fill="black"/>
</svg>
