<svg width="24" height="24" viewBox="0 0 24 24" fill="none" xmlns="http://www.w3.org/2000/svg">
<path fill-rule="evenodd" clip-rule="evenodd" d="M8.64124 3.64124C9.53204 2.75044 10.7402 2.25 12 2.25C13.2598 2.25 14.468 2.75044 15.3588 3.64124C16.2496 4.53204 16.75 5.74022 16.75 7C16.75 8.25978 16.2496 9.46796 15.3588 10.3588C14.468 11.2496 13.2598 11.75 12 11.75C10.7402 11.75 9.53204 11.2496 8.64124 10.3588C7.75044 9.46796 7.25 8.25978 7.25 7C7.25 5.74022 7.75044 4.53204 8.64124 3.64124ZM12 3.75C11.138 3.75 10.3114 4.09241 9.7019 4.7019C9.09241 5.3114 8.75 6.13805 8.75 7C8.75 7.86195 9.09241 8.6886 9.7019 9.2981C10.3114 9.90759 11.138 10.25 12 10.25C12.862 10.25 13.6886 9.90759 14.2981 9.2981C14.9076 8.6886 15.25 7.86195 15.25 7C15.25 6.13805 14.9076 5.3114 14.2981 4.7019C13.6886 4.09241 12.862 3.75 12 3.75ZM17.8 15.1982L17.0351 16.7428C16.9257 16.9638 16.7146 17.1168 16.4706 17.1522L14.7659 17.3994L15.9976 18.596C16.1751 18.7685 16.2561 19.0173 16.2141 19.2612L15.9228 20.9538L17.4519 20.1526C17.6699 20.0384 17.9301 20.0384 18.1481 20.1526L19.6766 20.9535L19.3858 19.261C19.344 19.0172 19.425 18.7684 19.6024 18.596L20.8341 17.3994L19.1294 17.1522C18.8854 17.1168 18.6743 16.9638 18.5649 16.7428L17.8 15.1982ZM20.3234 21.2924L20.3201 21.2906C20.3212 21.2912 20.3223 21.2918 20.3234 21.2924ZM14.2393 16.8877C14.2397 16.8882 14.2402 16.8886 14.2406 16.889ZM17.1986 13.4207C17.3792 13.3088 17.5875 13.2495 17.8 13.2495C18.0125 13.2495 18.2208 13.3088 18.4015 13.4207C18.5821 13.5327 18.7279 13.6928 18.8226 13.883L18.8231 13.8841L19.7343 15.7242L21.7718 16.0196M17.1986 13.4207C17.0179 13.5326 16.8721 13.6927 16.7774 13.883ZM16.7774 13.883L16.7769 13.8841ZM16.7769 13.8841L15.8657 15.7242ZM15.8657 15.7242L13.8291 16.0195C13.6186 16.0492 13.4207 16.1372 13.2577 16.2736C13.0938 16.4106 12.9718 16.5909 12.9056 16.794C12.8393 16.997 12.8315 17.2146 12.883 17.4219C12.9344 17.6289 13.0429 17.8173 13.1961 17.9656C13.1963 17.9658 13.1965 17.966 13.1967 17.9662L14.6688 19.3964L14.3209 21.4178L14.3208 21.4177L14.3195 21.4258C14.2859 21.6348 14.311 21.8491 14.3921 22.0446C14.4732 22.2402 14.607 22.4093 14.7786 22.5332C14.9503 22.6571 15.153 22.7309 15.3641 22.7462C15.5752 22.7616 15.7865 22.718 15.9743 22.6203L15.9761 22.6193L17.8 21.6637L19.6207 22.6176C19.6213 22.6179 19.622 22.6183 19.6227 22.6187C19.8106 22.7178 20.0224 22.7625 20.2343 22.7476C20.4469 22.7328 20.6512 22.6586 20.8238 22.5334C20.9964 22.4083 21.1304 22.2373 21.2107 22.0398C21.2909 21.8426 21.3143 21.6268 21.2782 21.417M21.278 21.4162L20.9311 19.3965ZM10 15.75C9.13805 15.75 8.3114 16.0924 7.7019 16.7019C7.09241 17.3114 6.75 18.138 6.75 19V21C6.75 21.4142 6.41421 21.75 6 21.75C5.58579 21.75 5.25 21.4142 5.25 21V19C5.25 17.7402 5.75044 16.532 6.64124 15.6412C7.53204 14.7504 8.74022 14.25 10 14.25H10.5C10.9142 14.25 11.25 14.5858 11.25 15C11.25 15.4142 10.9142 15.75 10.5 15.75H10Z" fill="black"/>
</svg>
