<svg xmlns="http://www.w3.org/2000/svg" width="20" height="20" viewBox="0 0 20 20" fill="none">
  <g clip-path="url(#clip0_3167_30379)">
    <path d="M6.53894 9.99672C6.53894 8.08333 8.08911 6.53172 10.0039 6.53172C11.9173 6.53172 13.4689 8.08189 13.4689 9.99672C13.4689 11.9101 11.9188 13.4617 10.0039 13.4617C8.09055 13.4617 6.53894 11.9115 6.53894 9.99672Z" fill="url(#paint0_linear_3167_30379)"/>
    <path fill-rule="evenodd" clip-rule="evenodd" d="M17.8713 17.8812C16.5767 19.1782 14.8204 19.1741 11.0267 19.1654C10.7012 19.1646 10.3602 19.1638 10.0037 19.1638C9.78494 19.1638 9.57231 19.164 9.36562 19.1641C5.1839 19.1671 3.4314 19.1684 2.13616 17.8673C0.788651 16.5238 0.810935 14.4796 0.843275 11.5129C0.848508 11.0329 0.854004 10.5288 0.854004 9.99953C0.854004 9.55072 0.849991 9.11286 0.846091 8.6873C0.805305 4.23681 0.776837 1.13049 5.47904 0.88922L5.53236 0.887332C6.67389 0.846915 7.05634 0.833374 9.99074 0.833374L10.0325 0.861297C10.4568 0.861297 10.8732 0.857484 11.2802 0.853757C15.6226 0.813992 18.8882 0.784087 19.1015 5.50208C19.1544 6.6795 19.1665 7.03319 19.1665 10.0135C19.1664 10.2815 19.1667 10.5402 19.1669 10.7902C19.1708 14.8304 19.1724 16.5717 17.8713 17.8812ZM15.339 5.86171C16.0013 5.86171 16.5381 5.32483 16.5381 4.66254C16.5381 4.00026 16.0013 3.46338 15.339 3.46338C14.6767 3.46338 14.1398 4.00026 14.1398 4.66254C14.1398 5.32483 14.6767 5.86171 15.339 5.86171ZM4.87227 9.99672C4.87227 7.16338 7.16811 4.86505 10.0039 4.86505C12.8373 4.86505 15.1356 7.16088 15.1356 9.99672C15.1356 12.8301 12.8398 15.1284 10.0039 15.1284C7.17061 15.1284 4.87227 12.8326 4.87227 9.99672Z" fill="url(#paint1_linear_3167_30379)"/>
  </g>
  <defs>
    <linearGradient id="paint0_linear_3167_30379" x1="10.0006" y1="0.833374" x2="10.0006" y2="19.1667" gradientUnits="userSpaceOnUse">
      <stop stop-color="#FF831B"/>
      <stop offset="1" stop-color="#FF3300"/>
    </linearGradient>
    <linearGradient id="paint1_linear_3167_30379" x1="10.0006" y1="0.833374" x2="10.0006" y2="19.1667" gradientUnits="userSpaceOnUse">
      <stop stop-color="#FF831B"/>
      <stop offset="1" stop-color="#FF3300"/>
    </linearGradient>
    <clipPath id="clip0_3167_30379">
      <rect width="20" height="20" fill="white"/>
    </clipPath>
  </defs>
</svg>