<svg xmlns="http://www.w3.org/2000/svg" width="20" height="20" viewBox="0 0 20 20" fill="none">
    <g clip-path="url(#clip0_253_18570)">
        <path d="M6.53699 9.99672C6.53699 8.08333 8.08716 6.53172 10.002 6.53172C11.9154 6.53172 13.467 8.08189 13.467 9.99672C13.467 11.9101 11.9168 13.4617 10.002 13.4617C8.0886 13.4617 6.53699 11.9115 6.53699 9.99672Z" fill="#ED2024"/>
        <path fill-rule="evenodd" clip-rule="evenodd" d="M17.8694 17.8812C16.5748 19.1782 14.8184 19.1741 11.0247 19.1654C10.6992 19.1646 10.3583 19.1638 10.0018 19.1638C9.78299 19.1638 9.57036 19.164 9.36367 19.1641C5.18195 19.1671 3.42945 19.1684 2.1342 17.8673C0.786698 16.5238 0.808982 14.4796 0.841322 11.5129C0.846555 11.0329 0.852051 10.5288 0.852051 9.99953C0.852051 9.55072 0.848038 9.11286 0.844138 8.6873C0.803352 4.23681 0.774884 1.13049 5.47709 0.88922L5.53041 0.887332C6.67194 0.846915 7.05438 0.833374 9.98878 0.833374L10.0306 0.861297C10.4548 0.861297 10.8713 0.857484 11.2782 0.853757C15.6206 0.813992 18.8863 0.784087 19.0995 5.50208C19.1525 6.6795 19.1645 7.03319 19.1645 10.0135C19.1645 10.2815 19.1647 10.5402 19.165 10.7902C19.1688 14.8304 19.1705 16.5717 17.8694 17.8812ZM15.337 5.86171C15.9993 5.86171 16.5362 5.32483 16.5362 4.66255C16.5362 4.00026 15.9993 3.46338 15.337 3.46338C14.6748 3.46338 14.1379 4.00026 14.1379 4.66255C14.1379 5.32483 14.6748 5.86171 15.337 5.86171ZM4.87032 9.99672C4.87032 7.16339 7.16615 4.86505 10.002 4.86505C12.8353 4.86505 15.1337 7.16088 15.1337 9.99672C15.1337 12.8301 12.8378 15.1284 10.002 15.1284C7.16865 15.1284 4.87032 12.8326 4.87032 9.99672Z" fill="#ED2024"/>
    </g>
    <defs>
        <clipPath id="clip0_253_18570">
            <rect width="20" height="20" fill="white"/>
        </clipPath>
    </defs>
</svg>