<svg xmlns="http://www.w3.org/2000/svg" width="20" height="20" viewBox="0 0 20 20" fill="none">
    <path d="M1.23629 9.89216L4.36429 10.9327C5.05558 11.1627 5.8128 11.0797 6.43784 10.7054L15.4648 5.29977C15.6099 5.21283 15.7586 5.4059 15.6334 5.51875L8.55091 11.9044C8.23198 12.1919 8.03634 12.5915 8.00479 13.0198L7.77209 16.1782C7.75063 16.4693 8.10854 16.6313 8.32095 16.4267L10.4007 14.4235C10.5473 14.2823 10.7744 14.2677 10.9379 14.3889L14.9209 17.3423C15.3807 17.6834 16.0466 17.443 16.1707 16.8913L19.1413 3.6794C19.3107 2.9257 18.5568 2.2897 17.8209 2.56572L1.21484 8.79442C0.69391 8.98983 0.708098 9.71648 1.23629 9.89216Z" fill="#ED2024"/>
</svg>