<svg xmlns="http://www.w3.org/2000/svg" width="20" height="20" viewBox="0 0 20 20" fill="none">
    <path d="M1.23825 9.89216L4.36624 10.9327C5.05753 11.1627 5.81475 11.0797 6.43979 10.7054L15.4667 5.29977C15.6118 5.21283 15.7605 5.4059 15.6354 5.51875L8.55286 11.9044C8.23393 12.1919 8.03829 12.5915 8.00674 13.0198L7.77404 16.1782C7.75258 16.4693 8.11049 16.6313 8.3229 16.4267L10.4026 14.4235C10.5492 14.2823 10.7764 14.2677 10.9399 14.3889L14.9228 17.3423C15.3827 17.6834 16.0486 17.443 16.1726 16.8913L19.1432 3.6794C19.3127 2.9257 18.5587 2.2897 17.8229 2.56572L1.21679 8.79442C0.695863 8.98983 0.710052 9.71648 1.23825 9.89216Z" fill="url(#paint0_linear_3167_30383)"/>
    <defs>
        <linearGradient id="paint0_linear_3167_30383" x1="10.0007" y1="2.5" x2="10.0007" y2="17.5" gradientUnits="userSpaceOnUse">
            <stop stop-color="#FF831B"/>
            <stop offset="1" stop-color="#FF3300"/>
        </linearGradient>
    </defs>
</svg>