<svg width="24" height="24" viewBox="0 0 24 24" fill="none" xmlns="http://www.w3.org/2000/svg">
<path d="M3.23158 11.5881C8.35334 9.47245 11.7686 8.07769 13.4775 7.40382C18.3566 5.47977 19.3705 5.14554 20.0313 5.13438C20.1766 5.13207 20.5016 5.16622 20.7121 5.32816C20.8898 5.4649 20.9387 5.64962 20.9621 5.77926C20.9855 5.9089 21.0147 6.20423 20.9915 6.43499C20.7271 9.06887 19.5831 15.4606 19.001 18.4106C18.7547 19.6588 18.2698 20.0774 17.8003 20.1183C16.7801 20.2074 16.0053 19.4791 15.0171 18.8649C13.4708 17.9039 12.5972 17.3057 11.0963 16.3679C9.36166 15.2842 10.4861 14.6885 11.4747 13.7151C11.7334 13.4603 16.2288 9.58371 16.3158 9.23204C16.3266 9.18806 16.3367 9.02411 16.234 8.93755C16.1313 8.85098 15.9797 8.88058 15.8702 8.90412C15.7152 8.9375 13.2449 10.4855 8.45949 13.5481C7.75832 14.0046 7.12321 14.227 6.55419 14.2153C5.92688 14.2025 4.72019 13.8791 3.82314 13.6026C2.72287 13.2635 1.8484 13.0842 1.92454 12.5084C1.96421 12.2084 2.39988 11.9016 3.23158 11.5881Z" fill="url(#paint0_linear_4257_18964)"/>
<defs>
<linearGradient id="paint0_linear_4257_18964" x1="11.46" y1="5.13428" x2="11.46" y2="20.1258" gradientUnits="userSpaceOnUse">
<stop stop-color="#FF831B"/>
<stop offset="1" stop-color="#FF3300"/>
</linearGradient>
</defs>
</svg>
