<svg width="16" height="16" viewBox="0 0 16 16" fill="none" xmlns="http://www.w3.org/2000/svg">
<path fill-rule="evenodd" clip-rule="evenodd" d="M0 3.70728C0 1.66048 1.66048 0 3.70728 0C5.75408 0 7.41456 1.66048 7.41456 3.70728C7.41456 5.75408 5.75408 7.41456 3.70728 7.41456C1.65808 7.41456 0 5.75648 0 3.70728Z" fill="currentColor"/>
<path fill-rule="evenodd" clip-rule="evenodd" d="M8.5827 12.2927C8.5827 10.2459 10.2432 8.58545 12.29 8.58545C14.3368 8.58545 15.9973 10.2459 15.9973 12.2927C15.9973 14.3395 14.3368 16 12.29 16C10.2432 15.9976 8.5827 14.3395 8.5827 12.2927Z" fill="currentColor"/>
<path d="M0 12.3984C0 10.7019 0 9.85247 0.527897 9.32697C1.05579 8.79907 1.90283 8.79907 3.5993 8.79907C5.29577 8.79907 6.14521 8.79907 6.6707 9.32697C7.1986 9.85487 7.1986 10.7019 7.1986 12.3984C7.1986 14.0948 7.1986 14.9443 6.6707 15.4698C6.14281 15.9977 5.29577 15.9977 3.5993 15.9977C1.90283 15.9977 1.0534 15.9977 0.527897 15.4698C0.00239954 14.9419 0 14.0948 0 12.3984Z" fill="currentColor"/>
<path d="M8.79673 3.60162C8.79673 1.90515 8.79673 1.05571 9.32463 0.530217C9.85252 0.00471888 10.6996 0.00231934 12.396 0.00231934C14.0925 0.00231934 14.9419 0.00231934 15.4674 0.530217C15.9929 1.05811 15.9953 1.90515 15.9953 3.60162C15.9953 5.29809 15.9953 6.14752 15.4674 6.67302C14.9395 7.20092 14.0925 7.20092 12.396 7.20092C10.6996 7.20092 9.85013 7.20092 9.32463 6.67302C8.79673 6.14513 8.79673 5.29809 8.79673 3.60162Z" fill="currentColor" fill-opacity="0.5"/>
</svg>
