<svg width="24" height="24" viewBox="0 0 24 24" fill="none" xmlns="http://www.w3.org/2000/svg">
<path d="M19.6973 8.80273H4.29846C2.05892 8.92942 1.80145 11.3978 2.07527 12.2111L3.84483 20.0004C4.11047 21.1774 5.0259 21.9989 6.06802 21.9989H17.9278C18.9699 21.9989 19.8853 21.1774 20.151 20.0004L21.9205 12.2111C22.2843 11.1812 21.6059 8.80273 19.6973 8.80273ZM8.69989 18.1655C8.69989 18.6273 8.328 18.9992 7.8662 18.9992C7.40439 18.9992 7.0325 18.6273 7.0325 18.1655V12.959C7.0325 12.4972 7.40439 12.1253 7.8662 12.1253C8.328 12.1253 8.69989 12.4972 8.69989 12.959V18.1655ZM12.7335 18.1655C12.7335 18.6273 12.3616 18.9992 11.8998 18.9992C11.438 18.9992 11.0661 18.6273 11.0661 18.1655V12.959C11.0661 12.4972 11.438 12.1253 11.8998 12.1253C12.3616 12.1253 12.7335 12.4972 12.7335 12.959V18.1655ZM16.7671 18.1655C16.7671 18.6273 16.3952 18.9992 15.9334 18.9992C15.4716 18.9992 15.0997 18.6273 15.0997 18.1655V12.959C15.0997 12.4972 15.4716 12.1253 15.9334 12.1253C16.3952 12.1253 16.7671 12.4972 16.7671 12.959V18.1655Z" fill="black"/>
<path d="M11.9979 3.66526C13.9228 3.66526 15.5656 5.09563 16.2318 7.11039H17.9646C17.2085 4.16385 14.8259 2.00195 11.9979 2.00195C9.16988 2.00195 6.79139 4.16385 6.03125 7.11039H7.75995C8.43017 5.09563 10.073 3.66526 11.9979 3.66526Z" fill="black"/>
</svg>
