<svg width="20" height="20" viewBox="0 0 20 20" fill="none" xmlns="http://www.w3.org/2000/svg">
<path fill-rule="evenodd" clip-rule="evenodd" d="M10.0007 3.25C9.7576 3.25 9.52445 3.34658 9.35254 3.51849C9.18063 3.69039 9.08405 3.92355 9.08405 4.16667C9.08405 4.45669 8.91684 4.72071 8.65466 4.84469C7.82069 5.23903 7.10976 5.85288 6.59805 6.62044C6.08948 7.38329 5.79675 8.2694 5.75072 9.18487V11.6667C5.75072 11.6968 5.7489 11.7269 5.74529 11.7568C5.67392 12.3464 5.47488 12.9127 5.16266 13.4167H14.8388C14.5266 12.9127 14.3275 12.3464 14.2562 11.7568C14.2525 11.7269 14.2507 11.6968 14.2507 11.6667V9.18486C14.2047 8.2694 13.912 7.38329 13.4034 6.62044C12.8917 5.85288 12.1807 5.23903 11.3468 4.84469C11.0846 4.72071 10.9174 4.45669 10.9174 4.16667C10.9174 3.92355 10.8208 3.69039 10.6489 3.51849C10.477 3.34658 10.2438 3.25 10.0007 3.25ZM11.7507 14.9167H8.25072V15C8.25072 15.4641 8.43509 15.9092 8.76328 16.2374C9.09147 16.5656 9.53659 16.75 10.0007 16.75C10.4648 16.75 10.91 16.5656 11.2382 16.2374C11.5663 15.9092 11.7507 15.4641 11.7507 15V14.9167ZM6.75072 14.9167V15C6.75072 15.862 7.09313 16.6886 7.70262 17.2981C8.31212 17.9076 9.13877 18.25 10.0007 18.25C10.8627 18.25 11.6893 17.9076 12.2988 17.2981C12.9083 16.6886 13.2507 15.862 13.2507 15V14.9167H16.6674C17.008 14.9167 17.3059 14.6871 17.3926 14.3578C17.4794 14.0284 17.3333 13.6819 17.037 13.514C16.685 13.3147 16.3848 13.0356 16.1604 12.6991C15.9439 12.3743 15.8039 12.0049 15.7507 11.6186V9.16667C15.7507 9.15494 15.7504 9.14322 15.7499 9.1315C15.6939 7.93811 15.3142 6.78245 14.6515 5.78839C14.0681 4.91329 13.2847 4.19247 12.3687 3.68406C12.2747 3.22295 12.0473 2.79555 11.7096 2.45783C11.2563 2.00461 10.6417 1.75 10.0007 1.75C9.35978 1.75 8.74509 2.00461 8.29188 2.45783C7.95415 2.79555 7.72671 3.22295 7.63272 3.68406C6.71673 4.19247 5.93337 4.91329 5.34997 5.78839C4.68727 6.78245 4.30756 7.93811 4.25154 9.1315C4.25099 9.14322 4.25072 9.15494 4.25072 9.16667V11.6186C4.19752 12.0049 4.05752 12.3743 3.841 12.6991C3.61666 13.0356 3.31643 13.3147 2.96449 13.514C2.66809 13.6819 2.52202 14.0284 2.6088 14.3578C2.69559 14.6871 2.99343 14.9167 3.33405 14.9167H6.75072Z" fill="black"/>
</svg>
