<svg width="20" height="20" viewBox="0 0 20 20" fill="none" xmlns="http://www.w3.org/2000/svg">
<path fill-rule="evenodd" clip-rule="evenodd" d="M6.66732 1.75C7.08153 1.75 7.41732 2.08579 7.41732 2.5V3.41667H12.584V2.5C12.584 2.08579 12.9198 1.75 13.334 1.75C13.7482 1.75 14.084 2.08579 14.084 2.5V3.41667H15.0007C15.6416 3.41667 16.2563 3.67128 16.7095 4.12449C17.1627 4.5777 17.4173 5.19239 17.4173 5.83333V15.8333C17.4173 16.4743 17.1627 17.089 16.7095 17.5422C16.2563 17.9954 15.6416 18.25 15.0007 18.25H5.00065C4.35971 18.25 3.74502 17.9954 3.29181 17.5422C2.8386 17.089 2.58398 16.4743 2.58398 15.8333V5.83333C2.58398 5.19239 2.8386 4.5777 3.29181 4.12449C3.74502 3.67128 4.35971 3.41667 5.00065 3.41667H5.91732V2.5C5.91732 2.08579 6.2531 1.75 6.66732 1.75ZM5.91732 4.91667H5.00065C4.75754 4.91667 4.52438 5.01324 4.35247 5.18515C4.18056 5.35706 4.08398 5.59022 4.08398 5.83333V8.41667H15.9173V5.83333C15.9173 5.59022 15.8207 5.35706 15.6488 5.18515C15.4769 5.01324 15.2438 4.91667 15.0007 4.91667H14.084V5.83333C14.084 6.24755 13.7482 6.58333 13.334 6.58333C12.9198 6.58333 12.584 6.24755 12.584 5.83333V4.91667H7.41732V5.83333C7.41732 6.24755 7.08153 6.58333 6.66732 6.58333C6.2531 6.58333 5.91732 6.24755 5.91732 5.83333V4.91667ZM15.9173 9.91667H4.08398V15.8333C4.08398 16.0764 4.18056 16.3096 4.35247 16.4815C4.52438 16.6534 4.75754 16.75 5.00065 16.75H15.0007C15.2438 16.75 15.4769 16.6534 15.6488 16.4815C15.8207 16.3096 15.9173 16.0764 15.9173 15.8333V9.91667ZM5.91732 12.5C5.91732 12.0858 6.2531 11.75 6.66732 11.75H8.33398C8.7482 11.75 9.08398 12.0858 9.08398 12.5V14.1667C9.08398 14.5809 8.7482 14.9167 8.33398 14.9167H6.66732C6.2531 14.9167 5.91732 14.5809 5.91732 14.1667V12.5ZM7.41732 13.25V13.4167H7.58398V13.25H7.41732Z" fill="black"/>
</svg>
