<svg width="20" height="20" viewBox="0 0 20 20" fill="none" xmlns="http://www.w3.org/2000/svg">
<path fill-rule="evenodd" clip-rule="evenodd" d="M10 2.58301C10.2226 2.58301 10.4337 2.68188 10.5762 2.85287L14.518 7.58301H17.5C17.731 7.58301 17.949 7.68941 18.0912 7.87145C18.2333 8.05349 18.2836 8.29085 18.2276 8.51491L16.568 15.1532C16.4638 15.7538 16.1933 16.319 15.7718 16.7406C15.3411 17.1712 14.7721 17.4287 14.1583 17.4163H5.84174C5.2279 17.4287 4.65887 17.1712 4.22825 16.7406C3.80668 16.319 3.5362 15.7538 3.43198 15.1532L1.7724 8.51491C1.71639 8.29085 1.76672 8.05349 1.90885 7.87145C2.05098 7.68941 2.26906 7.58301 2.50001 7.58301H5.48206L9.42384 2.85287C9.56634 2.68188 9.77742 2.58301 10 2.58301ZM5.8276 9.08301C5.83116 9.08303 5.83472 9.08303 5.83828 9.08301H14.1617C14.1653 9.08303 14.1689 9.08303 14.1724 9.08301H16.5394L15.1057 14.8178C15.1007 14.838 15.0965 14.8584 15.0931 14.8789C15.0372 15.2215 14.8909 15.5001 14.7111 15.6799C14.5351 15.8559 14.3475 15.9207 14.1856 15.9166L14.1667 15.9163H5.83334L5.81444 15.9166C5.65247 15.9207 5.4649 15.8559 5.28891 15.6799C5.10908 15.5001 4.96277 15.2215 4.90689 14.8789C4.90354 14.8584 4.89933 14.838 4.89428 14.8178L3.46059 9.08301H5.8276ZM12.5654 7.58301H7.43462L10 4.50455L12.5654 7.58301ZM8.29117 10.7908C8.74438 10.3376 9.35907 10.083 10 10.083C10.6409 10.083 11.2556 10.3376 11.7088 10.7908C12.1621 11.244 12.4167 11.8587 12.4167 12.4997C12.4167 13.1406 12.1621 13.7553 11.7088 14.2085C11.2556 14.6617 10.6409 14.9163 10 14.9163C9.35907 14.9163 8.74438 14.6617 8.29117 14.2085C7.83795 13.7553 7.58334 13.1406 7.58334 12.4997C7.58334 11.8587 7.83795 11.244 8.29117 10.7908ZM10 11.583C9.75689 11.583 9.52373 11.6796 9.35183 11.8515C9.17992 12.0234 9.08334 12.2566 9.08334 12.4997C9.08334 12.7428 9.17992 12.9759 9.35183 13.1479C9.52373 13.3198 9.75689 13.4163 10 13.4163C10.2431 13.4163 10.4763 13.3198 10.6482 13.1479C10.8201 12.9759 10.9167 12.7428 10.9167 12.4997C10.9167 12.2566 10.8201 12.0234 10.6482 11.8515C10.4763 11.6796 10.2431 11.583 10 11.583Z" fill="black"/>
</svg>
