<svg width="24" height="24" viewBox="0 0 24 24" fill="none" xmlns="http://www.w3.org/2000/svg">
<path d="M19.6988 8.80396H4.29992C2.06038 8.93064 1.80292 11.399 2.07673 12.2123L3.8463 20.0017C4.11193 21.1786 5.02737 22.0001 6.06949 22.0001H17.9292C18.9714 22.0001 19.8868 21.1786 20.1524 20.0017L21.922 12.2123C22.2857 11.1824 21.6073 8.80396 19.6988 8.80396ZM8.70136 18.1667C8.70136 18.6285 8.32946 19.0004 7.86766 19.0004C7.40586 19.0004 7.03396 18.6285 7.03396 18.1667V12.9602C7.03396 12.4984 7.40586 12.1265 7.86766 12.1265C8.32946 12.1265 8.70136 12.4984 8.70136 12.9602V18.1667ZM12.735 18.1667C12.735 18.6285 12.3631 19.0004 11.9013 19.0004C11.4395 19.0004 11.0676 18.6285 11.0676 18.1667V12.9602C11.0676 12.4984 11.4395 12.1265 11.9013 12.1265C12.3631 12.1265 12.735 12.4984 12.735 12.9602V18.1667ZM16.7686 18.1667C16.7686 18.6285 16.3967 19.0004 15.9349 19.0004C15.4731 19.0004 15.1012 18.6285 15.1012 18.1667V12.9602C15.1012 12.4984 15.4731 12.1265 15.9349 12.1265C16.3967 12.1265 16.7686 12.4984 16.7686 12.9602V18.1667Z" fill="black"/>
<path d="M11.9995 3.66685C13.9244 3.66685 15.5672 5.09721 16.2334 7.11198H17.9662C17.2101 4.16543 14.8275 2.00354 11.9995 2.00354C9.17146 2.00354 6.79297 4.16543 6.03284 7.11198H7.76153C8.43176 5.09721 10.0746 3.66685 11.9995 3.66685Z" fill="black"/>
</svg>
