<svg width="343" height="39" viewBox="0 0 343 39" fill="none" xmlns="http://www.w3.org/2000/svg">
<path d="M96.729 28.558C94.9307 28.558 93.2481 28.1508 91.6813 27.3365C90.1144 26.5222 88.8592 25.3804 87.9155 23.9112C86.9718 22.4419 86.5 20.7602 86.5 18.866C86.5 16.9719 86.9718 15.2902 87.9155 13.8209C88.8592 12.334 90.1144 11.1922 91.6813 10.3956C93.2481 9.58128 94.9307 9.17413 96.729 9.17413C98.0822 9.17413 99.2484 9.33345 100.228 9.65208C101.207 9.97072 101.99 10.369 102.578 10.847V16.5559H99.6401V13.343C98.9457 13.1837 98.1979 13.104 97.3967 13.104C96.2571 13.104 95.2245 13.3518 94.2986 13.8475C93.3905 14.3254 92.6694 15.007 92.1353 15.8921C91.6011 16.7595 91.3341 17.7508 91.3341 18.866C91.3341 19.9813 91.6011 20.9814 92.1353 21.8666C92.6694 22.734 93.3905 23.4155 94.2986 23.9112C95.2245 24.3891 96.2571 24.6281 97.3967 24.6281C98.4472 24.6281 99.3908 24.4953 100.228 24.2298C101.064 23.9643 101.848 23.5571 102.578 23.0083V26.8851C101.243 28.0003 99.2929 28.558 96.729 28.558Z" fill="black"/>
<path d="M107.058 28.2128V11.8029H104.067V8.9086H111.598V16.0249C112.115 15.4584 112.738 14.9981 113.468 14.6441C114.198 14.2723 115.026 14.0865 115.952 14.0865C117.483 14.0865 118.711 14.5113 119.637 15.361C120.581 16.2107 121.053 17.4056 121.053 18.9457V28.2128H116.513V20.3265C116.513 19.4945 116.29 18.8749 115.845 18.4677C115.418 18.0429 114.785 17.8305 113.949 17.8305C112.952 17.8305 112.168 18.1137 111.598 18.6802V28.2128H107.058Z" fill="black"/>
<path d="M138.888 27.9738C138.727 28.0977 138.416 28.2216 137.953 28.3455C137.508 28.4872 137.009 28.558 136.457 28.558C135.656 28.558 134.944 28.3986 134.321 28.08C133.697 27.7614 133.27 27.31 133.039 26.7258C132.131 27.9472 130.697 28.558 128.739 28.558C127.777 28.558 126.905 28.3721 126.121 28.0003C125.338 27.6286 124.715 27.1152 124.252 26.4603C123.807 25.7876 123.584 25.0441 123.584 24.2298C123.584 22.7605 124.198 21.663 125.427 20.9372C126.656 20.1937 128.178 19.822 129.994 19.822C131.027 19.822 131.979 19.937 132.852 20.1672V19.583C132.852 18.8749 132.549 18.3438 131.944 17.9898C131.356 17.618 130.564 17.4322 129.567 17.4322C128.73 17.4322 127.893 17.5649 127.056 17.8305C126.219 18.0783 125.463 18.4589 124.786 18.9723V15.4141C125.445 15.0247 126.282 14.706 127.297 14.4582C128.311 14.2104 129.362 14.0865 130.448 14.0865C132.602 14.0865 134.276 14.5733 135.469 15.5469C136.68 16.5205 137.285 17.857 137.285 19.5564V24.4953C137.285 24.7963 137.374 25.0175 137.552 25.1591C137.748 25.2831 137.988 25.345 138.273 25.345C138.54 25.345 138.745 25.3008 138.888 25.2123V27.9738ZM128.124 23.9908C128.124 24.4334 128.311 24.7874 128.685 25.0529C129.077 25.3185 129.585 25.4512 130.208 25.4512C131.24 25.4512 132.122 25.0618 132.852 24.2829V22.7428C132.175 22.5481 131.445 22.4507 130.662 22.4507C129.967 22.4507 129.371 22.5746 128.872 22.8225C128.374 23.0526 128.124 23.442 128.124 23.9908Z" fill="black"/>
<path d="M141.196 11.8294H138.338V8.9086H145.736V19.2909H147.632L150.81 14.4317H155.591L151.371 20.8841L155.938 28.2128H150.891L147.579 22.7428H145.736V28.2128H141.196V11.8294Z" fill="black"/>
<path d="M172.22 27.9738C172.06 28.0977 171.748 28.2216 171.285 28.3455C170.84 28.4872 170.341 28.558 169.789 28.558C168.988 28.558 168.276 28.3986 167.653 28.08C167.03 27.7614 166.602 27.31 166.371 26.7258C165.463 27.9472 164.03 28.558 162.071 28.558C161.11 28.558 160.237 28.3721 159.454 28.0003C158.67 27.6286 158.047 27.1152 157.584 26.4603C157.139 25.7876 156.916 25.0441 156.916 24.2298C156.916 22.7605 157.531 21.663 158.759 20.9372C159.988 20.1937 161.51 19.822 163.326 19.822C164.359 19.822 165.312 19.937 166.184 20.1672V19.583C166.184 18.8749 165.881 18.3438 165.276 17.9898C164.688 17.618 163.896 17.4322 162.899 17.4322C162.062 17.4322 161.225 17.5649 160.388 17.8305C159.552 18.0783 158.795 18.4589 158.118 18.9723V15.4141C158.777 15.0247 159.614 14.706 160.629 14.4582C161.644 14.2104 162.694 14.0865 163.78 14.0865C165.935 14.0865 167.608 14.5733 168.801 15.5469C170.012 16.5205 170.617 17.857 170.617 19.5564V24.4953C170.617 24.7963 170.706 25.0175 170.884 25.1591C171.08 25.2831 171.321 25.345 171.606 25.345C171.873 25.345 172.077 25.3008 172.22 25.2123V27.9738ZM161.457 23.9908C161.457 24.4334 161.644 24.7874 162.018 25.0529C162.409 25.3185 162.917 25.4512 163.54 25.4512C164.573 25.4512 165.454 25.0618 166.184 24.2829V22.7428C165.507 22.5481 164.777 22.4507 163.994 22.4507C163.3 22.4507 162.703 22.5746 162.205 22.8225C161.706 23.0526 161.457 23.442 161.457 23.9908Z" fill="black"/>
<path d="M175.346 28.2128V17.3525H172.488V14.4317H179.673V16.2904C180.171 15.6531 180.803 15.1309 181.569 14.7237C182.352 14.2989 183.242 14.0865 184.239 14.0865C185.771 14.0865 186.999 14.5113 187.925 15.361C188.869 16.2107 189.341 17.4056 189.341 18.9457V28.2128H184.8V20.3265C184.8 19.4945 184.578 18.8749 184.133 18.4677C183.705 18.0429 183.073 17.8305 182.236 17.8305C181.239 17.8305 180.456 18.1137 179.886 18.6802V28.2128H175.346Z" fill="black"/>
<path d="M207.169 27.9738C207.009 28.0977 206.697 28.2216 206.234 28.3455C205.789 28.4872 205.291 28.558 204.739 28.558C203.938 28.558 203.225 28.3986 202.602 28.08C201.979 27.7614 201.552 27.31 201.32 26.7258C200.412 27.9472 198.979 28.558 197.02 28.558C196.059 28.558 195.186 28.3721 194.403 28.0003C193.62 27.6286 192.996 27.1152 192.533 26.4603C192.088 25.7876 191.866 25.0441 191.866 24.2298C191.866 22.7605 192.48 21.663 193.709 20.9372C194.937 20.1937 196.459 19.822 198.276 19.822C199.308 19.822 200.261 19.937 201.133 20.1672V19.583C201.133 18.8749 200.831 18.3438 200.225 17.9898C199.638 17.618 198.845 17.4322 197.848 17.4322C197.011 17.4322 196.175 17.5649 195.338 17.8305C194.501 18.0783 193.744 18.4589 193.068 18.9723V15.4141C193.726 15.0247 194.563 14.706 195.578 14.4582C196.593 14.2104 197.643 14.0865 198.73 14.0865C200.884 14.0865 202.558 14.5733 203.751 15.5469C204.961 16.5205 205.567 17.857 205.567 19.5564V24.4953C205.567 24.7963 205.656 25.0175 205.834 25.1591C206.03 25.2831 206.27 25.345 206.555 25.345C206.822 25.345 207.027 25.3008 207.169 25.2123V27.9738ZM196.406 23.9908C196.406 24.4334 196.593 24.7874 196.967 25.0529C197.359 25.3185 197.866 25.4512 198.489 25.4512C199.522 25.4512 200.403 25.0618 201.133 24.2829V22.7428C200.457 22.5481 199.727 22.4507 198.943 22.4507C198.249 22.4507 197.652 22.5746 197.154 22.8225C196.655 23.0526 196.406 23.442 196.406 23.9908Z" fill="black"/>
<path d="M214.77 0H239.808C249.027 0 256.5 7.43017 256.5 16.5957V23C256.5 31.8366 249.337 39 240.5 39H231.462C222.243 39 214.77 31.5698 214.77 22.4043V0Z" fill="#FF0000"/>
<path d="M231.963 14.8655H229.423V24.9643H231.963V27.383H223.116V24.9643H225.655V14.8655H223.116V12.4468H231.963V14.8655Z" fill="white"/>
<path d="M239.73 12.4468C241.423 12.4468 242.905 12.7509 244.175 13.3591C245.445 13.9532 246.425 14.8159 247.117 15.9475C247.808 17.0649 248.154 18.3873 248.154 19.9149C248.154 21.4425 247.808 22.772 247.117 23.9035C246.425 25.0209 245.445 25.8837 244.175 26.4919C242.905 27.086 241.423 27.383 239.73 27.383H234.227V12.4468H239.73ZM239.434 24.3491C240.915 24.3491 242.101 23.953 242.99 23.161C243.879 22.3689 244.323 21.2869 244.323 19.9149C244.323 18.5429 243.879 17.4609 242.99 16.6688C242.101 15.8768 240.915 15.4807 239.434 15.4807H237.995V24.3491H239.434Z" fill="white"/>
</svg>
