<svg width="16" height="16" viewBox="0 0 16 16" fill="none" xmlns="http://www.w3.org/2000/svg">
<path fill-rule="evenodd" clip-rule="evenodd" d="M6.90921 1.2582C8.23896 1.03184 9.6062 1.22478 10.8214 1.81027C12.0366 2.39577 13.0395 3.34481 13.6912 4.52584C14.3428 5.70688 14.6109 7.06139 14.4583 8.4016C14.427 8.67597 14.1792 8.87306 13.9049 8.84181C13.6305 8.81056 13.4334 8.56281 13.4647 8.28844C13.5938 7.15441 13.367 6.00828 12.8156 5.00895C12.2642 4.00961 11.4156 3.20658 10.3873 2.71116C9.35909 2.21574 8.2022 2.05248 7.07702 2.24402C5.95185 2.43556 4.91413 2.9724 4.10773 3.78013C3.30132 4.58786 2.76619 5.62645 2.5765 6.75194C2.38681 7.87743 2.55196 9.03406 3.04907 10.0615C3.54618 11.0889 4.35061 11.9362 5.35084 12.486C6.35108 13.0357 7.49758 13.2607 8.6314 13.1297C8.90571 13.098 9.15379 13.2946 9.18549 13.569C9.21719 13.8433 9.02051 14.0913 8.74619 14.123C7.40623 14.2779 6.05128 14.012 4.86918 13.3623C3.68708 12.7126 2.73639 11.7112 2.1489 10.497C1.56141 9.28279 1.36622 7.91587 1.5904 6.58575C1.81458 5.25562 2.44702 4.02819 3.40004 3.0736C4.35306 2.11902 5.57945 1.48456 6.90921 1.2582ZM8.00012 3.83302C8.27627 3.83302 8.50012 4.05688 8.50012 4.33302V7.45924L9.68701 8.64613C9.88227 8.84139 9.88227 9.15798 9.68701 9.35324C9.49175 9.5485 9.17516 9.5485 8.9799 9.35324L7.64657 8.01991C7.5528 7.92614 7.50012 7.79896 7.50012 7.66635V4.33302C7.50012 4.05688 7.72398 3.83302 8.00012 3.83302ZM11.3335 10.4997C11.6096 10.4997 11.8335 10.7235 11.8335 10.9997V14.333C11.8335 14.6092 11.6096 14.833 11.3335 14.833C11.0573 14.833 10.8335 14.6092 10.8335 14.333V10.9997C10.8335 10.7235 11.0573 10.4997 11.3335 10.4997ZM14.0001 10.4997C14.2763 10.4997 14.5001 10.7235 14.5001 10.9997V14.333C14.5001 14.6092 14.2763 14.833 14.0001 14.833C13.724 14.833 13.5001 14.6092 13.5001 14.333V10.9997C13.5001 10.7235 13.724 10.4997 14.0001 10.4997Z" fill="black"/>
</svg>
