<svg width="64" height="64" viewBox="0 0 64 64" fill="none" xmlns="http://www.w3.org/2000/svg">
    <path fill-rule="evenodd" clip-rule="evenodd" d="M13.2617 13.2617C18.2314 8.29196 24.9718 5.5 32 5.5C39.0282 5.5 45.7686 8.29196 50.7383 13.2617C55.708 18.2314 58.5 24.9718 58.5 32C58.5 35.48 57.8146 38.926 56.4828 42.1411C55.1511 45.3562 53.1991 48.2776 50.7383 50.7383C48.2776 53.1991 45.3562 55.1511 42.1411 56.4828C38.926 57.8146 35.48 58.5 32 58.5C28.52 58.5 25.074 57.8146 21.8589 56.4828C18.6438 55.1511 15.7224 53.1991 13.2617 50.7383C10.8009 48.2776 8.84894 45.3562 7.51719 42.1411C6.18544 38.926 5.5 35.48 5.5 32C5.5 24.9718 8.29196 18.2314 13.2617 13.2617ZM32 10.5C26.2978 10.5 20.8292 12.7652 16.7972 16.7972C12.7652 20.8292 10.5 26.2978 10.5 32C10.5 34.8234 11.0561 37.6192 12.1366 40.2277C13.2171 42.8362 14.8007 45.2063 16.7972 47.2028C18.7937 49.1993 21.1638 50.7829 23.7723 51.8634C26.3808 52.9439 29.1766 53.5 32 53.5C34.8234 53.5 37.6192 52.9439 40.2277 51.8634C42.8362 50.7829 45.2063 49.1993 47.2028 47.2028C49.1993 45.2063 50.7829 42.8362 51.8634 40.2277C52.9439 37.6192 53.5 34.8234 53.5 32C53.5 26.2978 51.2348 20.8292 47.2028 16.7972C43.1708 12.7652 37.7022 10.5 32 10.5ZM32 16.1667C33.3807 16.1667 34.5 17.286 34.5 18.6667V30.9645L41.7678 38.2322C42.7441 39.2085 42.7441 40.7915 41.7678 41.7678C40.7915 42.7441 39.2085 42.7441 38.2322 41.7678L30.2322 33.7678C29.7634 33.2989 29.5 32.663 29.5 32V18.6667C29.5 17.286 30.6193 16.1667 32 16.1667Z" fill="black"/>
</svg>
