<svg width="20" height="20" viewBox="0 0 20 20" fill="none" xmlns="http://www.w3.org/2000/svg">
<path fill-rule="evenodd" clip-rule="evenodd" d="M3.11503 3.11406C3.61513 2.61396 4.29341 2.33301 5.00065 2.33301H11.6673C12.3746 2.33301 13.0528 2.61396 13.5529 3.11406C14.053 3.61415 14.334 4.29243 14.334 4.99967V5.66634H15.0007C15.7079 5.66634 16.3862 5.94729 16.8863 6.44739C17.3864 6.94749 17.6673 7.62576 17.6673 8.33301V14.9997C17.6673 15.7069 17.3864 16.3852 16.8863 16.8853C16.3862 17.3854 15.7079 17.6663 15.0007 17.6663H8.33398C7.62674 17.6663 6.94846 17.3854 6.44837 16.8853C5.94827 16.3852 5.66732 15.7069 5.66732 14.9997V14.333H5.00065C4.29341 14.333 3.61513 14.0521 3.11503 13.552C2.61494 13.0519 2.33398 12.3736 2.33398 11.6663V4.99967C2.33398 4.29243 2.61494 3.61415 3.11503 3.11406ZM7.66732 14.9997C7.66732 15.1765 7.73756 15.3461 7.86258 15.4711C7.9876 15.5961 8.15717 15.6663 8.33398 15.6663H15.0007C15.1775 15.6663 15.347 15.5961 15.4721 15.4711C15.5971 15.3461 15.6673 15.1765 15.6673 14.9997V8.33301C15.6673 8.1562 15.5971 7.98663 15.4721 7.8616C15.347 7.73658 15.1775 7.66634 15.0007 7.66634H8.33398C8.15717 7.66634 7.9876 7.73658 7.86258 7.8616C7.73756 7.98663 7.66732 8.1562 7.66732 8.33301V14.9997ZM12.334 5.66634H8.33398C7.62674 5.66634 6.94846 5.94729 6.44837 6.44739C5.94827 6.94749 5.66732 7.62576 5.66732 8.33301V12.333H5.00065C4.82384 12.333 4.65427 12.2628 4.52925 12.1377C4.40422 12.0127 4.33398 11.8432 4.33398 11.6663V4.99967C4.33398 4.82286 4.40422 4.65329 4.52925 4.52827C4.65427 4.40325 4.82384 4.33301 5.00065 4.33301H11.6673C11.8441 4.33301 12.0137 4.40325 12.1387 4.52827C12.2637 4.65329 12.334 4.82286 12.334 4.99967V5.66634Z" fill="black"/>
</svg>
