<svg width="18" height="18" viewBox="0 0 18 18" fill="none" xmlns="http://www.w3.org/2000/svg">
<path d="M9.00045 3.69231C9.74391 3.69231 10.3466 3.08961 10.3466 2.34615C10.3466 1.60269 9.74391 1 9.00045 1C8.25699 1 7.6543 1.60269 7.6543 2.34615C7.6543 3.08961 8.25699 3.69231 9.00045 3.69231Z" fill="black"/>
<path d="M15.9223 5.99992C16.6658 5.99992 17.2685 5.39723 17.2685 4.65377C17.2685 3.91031 16.6658 3.30762 15.9223 3.30762C15.1789 3.30762 14.5762 3.91031 14.5762 4.65377C14.5762 5.39723 15.1789 5.99992 15.9223 5.99992Z" fill="black"/>
<path d="M2.07662 5.99992C2.82008 5.99992 3.42278 5.39723 3.42278 4.65377C3.42278 3.91031 2.82008 3.30762 2.07662 3.30762C1.33316 3.30762 0.730469 3.91031 0.730469 4.65377C0.730469 5.39723 1.33316 5.99992 2.07662 5.99992Z" fill="black"/>
<path fill-rule="evenodd" clip-rule="evenodd" d="M16.1038 5.53578C16.1531 5.29116 16.0392 5.04347 15.8231 4.92039C15.6061 4.79809 15.3346 4.82809 15.15 4.99578C15.15 4.99578 14.3454 5.72732 13.4377 6.5527C13.0131 6.93885 12.4246 7.08885 11.8669 6.95424C11.3092 6.81962 10.8546 6.41732 10.6531 5.87962L9.53998 2.9127C9.45536 2.68732 9.24074 2.53809 8.99998 2.53809C8.75921 2.53809 8.54459 2.68732 8.45998 2.9127L7.3469 5.87962C7.14536 6.41732 6.69075 6.81962 6.13305 6.95424C5.57536 7.08885 4.9869 6.93885 4.56228 6.5527C3.65459 5.72732 2.84998 4.99578 2.84998 4.99578C2.66536 4.82809 2.39382 4.79809 2.1769 4.92039C1.96075 5.04347 1.8469 5.29116 1.89613 5.53578C1.89613 5.53578 2.75228 9.81655 3.1869 11.9912C3.38459 12.9804 4.25305 13.6919 5.26151 13.6919H12.7384C13.7469 13.6919 14.6154 12.9804 14.8131 11.9912C15.2477 9.81655 16.1038 5.53578 16.1038 5.53578Z" fill="black"/>
<path fill-rule="evenodd" clip-rule="evenodd" d="M13.6143 14.8457H4.38356C4.0651 14.8457 3.80664 15.1042 3.80664 15.4226C3.80664 15.7411 4.0651 15.9995 4.38356 15.9995H13.6143C13.9328 15.9995 14.1913 15.7411 14.1913 15.4226C14.1913 15.1042 13.9328 14.8457 13.6143 14.8457Z" fill="black"/>
</svg>
