<svg width="16" height="16" viewBox="0 0 16 16" fill="none" xmlns="http://www.w3.org/2000/svg">
<path fill-rule="evenodd" clip-rule="evenodd" d="M1.16602 3.33301C1.16602 3.05687 1.38987 2.83301 1.66602 2.83301H8.99935C9.27549 2.83301 9.49935 3.05687 9.49935 3.33301V3.49967H12.3327C12.5083 3.49967 12.6711 3.59182 12.7614 3.74243L14.7614 7.07576C14.8081 7.15347 14.8327 7.24239 14.8327 7.33301V11.333C14.8327 11.6092 14.6088 11.833 14.3327 11.833H13.4299C13.3453 12.1314 13.1856 12.4062 12.9624 12.6294C12.6186 12.9732 12.1522 13.1663 11.666 13.1663C11.1798 13.1663 10.7135 12.9732 10.3697 12.6294C10.1465 12.4062 9.98677 12.1314 9.90218 11.833H6.76319C6.6786 12.1314 6.5189 12.4062 6.29571 12.6294C5.95189 12.9732 5.48558 13.1663 4.99935 13.1663C4.51312 13.1663 4.0468 12.9732 3.70299 12.6294C3.4798 12.4062 3.3201 12.1314 3.23551 11.833H2.33268C2.05654 11.833 1.83268 11.6092 1.83268 11.333V8.66634C1.83268 8.3902 2.05654 8.16634 2.33268 8.16634C2.60882 8.16634 2.83268 8.3902 2.83268 8.66634V10.833H3.23551C3.3201 10.5346 3.4798 10.2598 3.70299 10.0366C4.0468 9.69283 4.51312 9.49967 4.99935 9.49967C5.48558 9.49967 5.95189 9.69283 6.29571 10.0366C6.5189 10.2598 6.6786 10.5346 6.76319 10.833H8.49935V3.83301H1.66602C1.38987 3.83301 1.16602 3.60915 1.16602 3.33301ZM9.49935 4.49967V6.83301H13.4496L12.0496 4.49967H9.49935ZM13.8327 7.83301H9.49935V10.833H9.90218C9.98677 10.5346 10.1465 10.2598 10.3697 10.0366C10.7135 9.69283 11.1798 9.49967 11.666 9.49967C12.1522 9.49967 12.6186 9.69283 12.9624 10.0366C13.1856 10.2598 13.3453 10.5346 13.4299 10.833H13.8327V7.83301ZM1.83268 5.99967C1.83268 5.72353 2.05654 5.49967 2.33268 5.49967H4.99935C5.27549 5.49967 5.49935 5.72353 5.49935 5.99967C5.49935 6.27582 5.27549 6.49967 4.99935 6.49967H2.33268C2.05654 6.49967 1.83268 6.27582 1.83268 5.99967ZM4.99935 10.4997C4.77834 10.4997 4.56637 10.5875 4.41009 10.7438C4.25381 10.9 4.16602 11.112 4.16602 11.333C4.16602 11.554 4.25381 11.766 4.41009 11.9223C4.56637 12.0785 4.77834 12.1663 4.99935 12.1663C5.22036 12.1663 5.43232 12.0785 5.5886 11.9223C5.74488 11.766 5.83268 11.554 5.83268 11.333C5.83268 11.112 5.74488 10.9 5.5886 10.7438C5.43232 10.5875 5.22036 10.4997 4.99935 10.4997ZM11.666 10.4997C11.445 10.4997 11.233 10.5875 11.0768 10.7438C10.9205 10.9 10.8327 11.112 10.8327 11.333C10.8327 11.554 10.9205 11.766 11.0768 11.9223C11.233 12.0785 11.445 12.1663 11.666 12.1663C11.887 12.1663 12.099 12.0785 12.2553 11.9223C12.4116 11.766 12.4993 11.554 12.4993 11.333C12.4993 11.112 12.4116 10.9 12.2553 10.7438C12.099 10.5875 11.887 10.4997 11.666 10.4997Z" fill="black"/>
</svg>
