<svg width="20" height="20" viewBox="0 0 20 20" fill="none" xmlns="http://www.w3.org/2000/svg">
<path fill-rule="evenodd" clip-rule="evenodd" d="M13.5654 2.89875C14.0342 2.43021 14.6699 2.16699 15.3327 2.16699C15.9957 2.16699 16.6317 2.43039 17.1005 2.89925C17.5694 3.36811 17.8328 4.00402 17.8328 4.66708C17.8328 5.3299 17.5696 5.96558 17.101 6.43439C17.1009 6.43456 17.1012 6.43421 17.101 6.43439L16.0418 7.49742C16.0145 7.53864 15.9827 7.57776 15.9463 7.61408C15.9107 7.64974 15.8723 7.68105 15.8319 7.70803L10.114 13.4465C9.97323 13.5877 9.78206 13.6671 9.58268 13.6671H7.08268C6.66847 13.6671 6.33268 13.3313 6.33268 12.9171V10.4171C6.33268 10.2177 6.41207 10.0265 6.5533 9.8858L12.2917 4.16783C12.3187 4.12744 12.35 4.08908 12.3857 4.05342C12.422 4.0171 12.4611 3.98528 12.5023 3.95797L13.5654 2.89875C13.5655 2.89859 13.5652 2.89892 13.5654 2.89875ZM12.9255 5.65388L7.83268 10.7285V12.1671H9.27124L14.3459 7.07428L12.9255 5.65388ZM15.4047 6.01172L13.988 4.59511L14.6255 3.95991C14.8131 3.77236 15.0674 3.66699 15.3327 3.66699C15.5979 3.66699 15.8523 3.77236 16.0399 3.95991C16.2274 4.14746 16.3328 4.40184 16.3328 4.66708C16.3328 4.93232 16.2274 5.1867 16.0399 5.37425L15.4047 6.01172ZM2.87384 6.20824C3.32705 5.75503 3.94174 5.50041 4.58268 5.50041H5.41602C5.83023 5.50041 6.16602 5.8362 6.16602 6.25041C6.16602 6.66463 5.83023 7.00041 5.41602 7.00041H4.58268C4.33957 7.00041 4.10641 7.09699 3.9345 7.2689C3.76259 7.44081 3.66602 7.67397 3.66602 7.91708V15.4171C3.66602 15.6602 3.76259 15.8934 3.9345 16.0653C4.10641 16.2372 4.33957 16.3337 4.58268 16.3337H12.0827C12.3258 16.3337 12.559 16.2372 12.7309 16.0653C12.9028 15.8934 12.9993 15.6602 12.9993 15.4171V14.5837C12.9993 14.1695 13.3351 13.8337 13.7493 13.8337C14.1636 13.8337 14.4993 14.1695 14.4993 14.5837V15.4171C14.4993 16.058 14.2447 16.6727 13.7915 17.1259C13.3383 17.5791 12.7236 17.8337 12.0827 17.8337H4.58268C3.94174 17.8337 3.32705 17.5791 2.87384 17.1259C2.42063 16.6727 2.16602 16.058 2.16602 15.4171V7.91708C2.16602 7.27614 2.42063 6.66145 2.87384 6.20824Z" fill="black"/>
</svg>
