<svg width="32" height="32" viewBox="0 0 32 32" fill="none" xmlns="http://www.w3.org/2000/svg">
    <path fill-rule="evenodd" clip-rule="evenodd" d="M18.6269 6.62598C19.5217 5.7312 20.7352 5.22852 22.0007 5.22852C23.2661 5.22852 24.4796 5.7312 25.3744 6.62598C26.2692 7.52076 26.7719 8.73434 26.7719 9.99975C26.7719 11.2652 26.2692 12.4787 25.3744 13.3735L24.0427 14.7053C24.0421 14.7058 24.0416 14.7063 24.0411 14.7069C24.0406 14.7074 24.04 14.7079 24.0395 14.7084L11.3744 27.3735C11.1869 27.5611 10.9325 27.6664 10.6673 27.6664H5.33398C4.7817 27.6664 4.33398 27.2187 4.33398 26.6664V21.3331C4.33398 21.0679 4.43934 20.8135 4.62688 20.626L18.6269 6.62598ZM18.0006 10.0806L6.33398 21.7473V25.6664H10.2531L21.9198 13.9998L18.0006 10.0806ZM23.334 12.5855L19.4149 8.66642L20.0411 8.04019C20.5608 7.52048 21.2657 7.22852 22.0007 7.22852C22.7356 7.22852 23.4405 7.52048 23.9602 8.04019C24.4799 8.5599 24.7719 9.26477 24.7719 9.99975C24.7719 10.7347 24.4799 11.4396 23.9602 11.9593L23.334 12.5855Z" fill="black"/>
</svg>
