<svg width="20" height="20" viewBox="0 0 20 20" fill="none" xmlns="http://www.w3.org/2000/svg">
<path fill-rule="evenodd" clip-rule="evenodd" d="M9.46902 1.96967C9.76191 1.67678 10.2368 1.67678 10.5297 1.96967L13.0297 4.46967C13.3226 4.76256 13.3226 5.23744 13.0297 5.53033C12.7368 5.82322 12.2619 5.82322 11.969 5.53033L10.7493 4.31066V11.6667C10.7493 12.0809 10.4136 12.4167 9.99935 12.4167C9.58514 12.4167 9.24935 12.0809 9.24935 11.6667V4.31066L8.02968 5.53033C7.73679 5.82322 7.26191 5.82322 6.96902 5.53033C6.67613 5.23744 6.67613 4.76256 6.96902 4.46967L9.46902 1.96967ZM4.12384 7.45783C4.57705 7.00461 5.19174 6.75 5.83268 6.75H6.66602C7.08023 6.75 7.41602 7.08579 7.41602 7.5C7.41602 7.91421 7.08023 8.25 6.66602 8.25H5.83268C5.58957 8.25 5.35641 8.34658 5.1845 8.51849C5.01259 8.69039 4.91602 8.92355 4.91602 9.16667V15.8333C4.91602 16.0764 5.01259 16.3096 5.1845 16.4815C5.35641 16.6534 5.58957 16.75 5.83268 16.75H14.166C14.4091 16.75 14.6423 16.6534 14.8142 16.4815C14.9861 16.3096 15.0827 16.0764 15.0827 15.8333V9.16667C15.0827 8.92355 14.9861 8.69039 14.8142 8.51849C14.6423 8.34658 14.4091 8.25 14.166 8.25H13.3327C12.9185 8.25 12.5827 7.91421 12.5827 7.5C12.5827 7.08579 12.9185 6.75 13.3327 6.75H14.166C14.807 6.75 15.4216 7.00461 15.8749 7.45783C16.3281 7.91104 16.5827 8.52573 16.5827 9.16667V15.8333C16.5827 16.4743 16.3281 17.089 15.8749 17.5422C15.4216 17.9954 14.807 18.25 14.166 18.25H5.83268C5.19174 18.25 4.57705 17.9954 4.12384 17.5422C3.67063 17.089 3.41602 16.4743 3.41602 15.8333V9.16667C3.41602 8.52573 3.67063 7.91104 4.12384 7.45783Z" fill="black"/>
</svg>
