<svg width="22" height="17" viewBox="0 0 22 17" fill="none" xmlns="http://www.w3.org/2000/svg">
<path d="M3.3457 0.292893C3.73623 -0.097631 4.36924 -0.0976311 4.75977 0.292893L19.7598 15.2929C20.1503 15.6834 20.1503 16.3164 19.7598 16.707C19.3692 17.0975 18.7362 17.0975 18.3457 16.707L16.4297 14.7909C14.9195 15.7158 13.0072 16.3511 10.6367 16.3124C6.63535 16.247 3.98582 14.3929 2.35938 12.5644C1.55174 11.6563 0.994967 10.7541 0.638672 10.078C0.460104 9.7392 0.33048 9.45421 0.244141 9.24992C0.200936 9.14769 0.168013 9.06489 0.145508 9.00578C0.134358 8.9765 0.125474 8.95297 0.119141 8.93547C0.116019 8.92684 0.113309 8.9196 0.111328 8.91399C0.11033 8.91116 0.109105 8.9082 0.108398 8.90617L0.107422 8.90324V8.90227L1.05273 8.5761C0.0984327 8.27725 0.0985262 8.27663 0.0986328 8.27629V8.27532L0.0996094 8.27434C0.100006 8.27308 0.100054 8.27112 0.100586 8.26946C0.101642 8.26615 0.102904 8.26165 0.104492 8.25676C0.107703 8.24688 0.11276 8.23372 0.118164 8.2177C0.129087 8.18533 0.144795 8.14053 0.165039 8.08489C0.205653 7.97326 0.265168 7.81668 0.34668 7.62492C0.509563 7.24175 0.759781 6.7138 1.11523 6.11809C1.76033 5.03707 2.76986 3.70502 4.25684 2.61809L3.3457 1.70696C2.95518 1.31643 2.95518 0.683417 3.3457 0.292893ZM5.69238 4.05364C4.34541 4.96454 3.42367 6.1527 2.83301 7.1425C2.53143 7.64786 2.32112 8.09284 2.1875 8.40715C2.16395 8.46255 2.14474 8.51477 2.12598 8.56145C2.19234 8.71268 2.28438 8.9123 2.40723 9.14543C2.7067 9.71373 3.17661 10.4742 3.85352 11.2353C5.1963 12.745 7.34753 14.2581 10.6689 14.3124C12.4186 14.341 13.8291 13.9325 14.9648 13.3261L12.748 11.1093C12.1686 11.5551 11.4403 11.8212 10.6523 11.8212C8.80067 11.821 7.25294 10.3537 7.25293 8.48625C7.25293 7.68487 7.54411 6.95257 8.01953 6.38078L5.69238 4.05364ZM10.6523 0.599534C14.7212 0.599534 17.3819 2.53029 18.9971 4.44231C19.7987 5.39135 20.346 6.3374 20.6934 7.04582C20.8676 7.40109 20.9929 7.70006 21.0762 7.91399C21.1178 8.02095 21.1494 8.10723 21.1709 8.16887C21.1815 8.19932 21.1893 8.22398 21.1953 8.24211C21.1983 8.25111 21.2013 8.25879 21.2031 8.26457C21.2041 8.26746 21.2044 8.27033 21.2051 8.27239C21.2054 8.27342 21.2058 8.2745 21.2061 8.27532L21.207 8.27629C21.207 8.27686 21.192 8.28201 20.2529 8.5761L21.2012 8.89153V8.8925L21.2002 8.89446C21.1998 8.89577 21.1998 8.89761 21.1992 8.89934C21.1979 8.90312 21.1963 8.90831 21.1943 8.91399C21.1904 8.92548 21.1845 8.94094 21.1777 8.95989C21.1641 8.99771 21.1445 9.0499 21.1191 9.11516C21.0683 9.2459 20.9931 9.42937 20.8906 9.65227C20.6859 10.0976 20.3704 10.7069 19.9229 11.3769C19.6161 11.8361 18.9954 11.9599 18.5361 11.6532C18.077 11.3466 17.9533 10.7257 18.2598 10.2665C18.6384 9.69973 18.9039 9.18552 19.0732 8.81731C19.1168 8.72263 19.1508 8.63656 19.1816 8.5634C19.1164 8.40092 19.0231 8.18302 18.8975 7.92668C18.6035 7.32712 18.1411 6.52827 17.4697 5.73332C16.1387 4.15742 13.9985 2.59953 10.6523 2.59953C10.2716 2.59955 9.90787 2.61961 9.56055 2.65715C9.01146 2.71652 8.51835 2.31952 8.45898 1.77043C8.39987 1.22152 8.79676 0.728224 9.3457 0.66887C9.76563 0.623484 10.2011 0.599548 10.6523 0.599534ZM1.05273 8.5761L0.107422 8.90129L0 8.59074L0.0986328 8.27727L1.05273 8.5761ZM21.3037 8.58489L21.2021 8.89153L20.2529 8.5761L21.207 8.27727L21.3037 8.58489ZM2.00586 8.87785L2.00684 8.87688V8.8759C2.00685 8.87587 2.00692 8.87529 2.00586 8.87492C2.0054 8.87635 2.00586 8.87785 2.00586 8.87785ZM9.25293 8.48625C9.25294 9.19806 9.85343 9.82101 10.6523 9.82121C10.8901 9.82121 11.1118 9.76481 11.3057 9.66692L9.44629 7.80754C9.32193 8.00779 9.25293 8.23969 9.25293 8.48625Z" fill="#7C8A94"/>
</svg>
