<svg width="23" height="23" viewBox="0 0 23 23" fill="none" xmlns="http://www.w3.org/2000/svg">
<path fill-rule="evenodd" clip-rule="evenodd" d="M3.33325 3.87499C3.33325 3.32271 3.78097 2.87499 4.33325 2.87499H18.9999C19.5522 2.87499 19.9999 3.32271 19.9999 3.87499V5.86599C19.9998 6.61733 19.7012 7.33805 19.1699 7.86927C19.1698 7.8693 19.1699 7.86923 19.1699 7.86927L15.4166 11.6225V17.625C15.4166 18.0554 15.1412 18.4376 14.7328 18.5737L9.23281 20.407C8.92787 20.5087 8.59264 20.4575 8.33187 20.2696C8.07111 20.0816 7.91659 19.7798 7.91659 19.4583V12.0533L4.06998 7.822C3.59603 7.30056 3.33333 6.62116 3.33325 5.91652V3.87499ZM5.33325 4.87499V5.9163C5.33325 5.91634 5.33325 5.91627 5.33325 5.9163C5.3333 6.12348 5.41052 6.32332 5.54986 6.47665C5.54988 6.47667 5.54984 6.47663 5.54986 6.47665L9.65653 10.994C9.82386 11.1781 9.91659 11.4179 9.91659 11.6667V18.0709L13.4166 16.9042V11.2083C13.4166 10.9431 13.5219 10.6888 13.7095 10.5012L17.7556 6.45505C17.9119 6.29886 17.9998 6.08691 17.9999 5.86599C17.9999 5.86592 17.9999 5.86606 17.9999 5.86599V4.87499H5.33325Z" fill="black"/>
</svg>
