<svg width="32" height="32" viewBox="0 0 32 32" fill="none" xmlns="http://www.w3.org/2000/svg">
<path fill-rule="evenodd" clip-rule="evenodd" d="M7.66602 6.72702V16.3145C8.78144 15.7071 10.0405 15.3809 11.3327 15.3809C13.3395 15.3809 15.2662 16.1677 16.6993 17.5724C17.7586 18.6107 19.1828 19.1923 20.666 19.1923C22.0134 19.1923 23.3121 18.7124 24.3327 17.8461V8.25864C23.2173 8.86604 21.9582 9.19229 20.666 9.19229C18.6592 9.19229 16.7325 8.40546 15.2993 7.00072C14.2401 5.96243 12.8159 5.38086 11.3327 5.38086C9.98527 5.38086 8.68665 5.86078 7.66602 6.72702ZM7.66602 18.727C8.68665 17.8608 9.98527 17.3809 11.3327 17.3809C12.8159 17.3809 14.2401 17.9624 15.2993 19.0007C16.7325 20.4055 18.6592 21.1923 20.666 21.1923C22.6728 21.1923 24.5996 20.4055 26.0327 19.0007C26.2246 18.8126 26.3327 18.5553 26.3327 18.2866V6.28657C26.3327 5.88393 26.0912 5.52056 25.72 5.36462C25.3488 5.20868 24.9202 5.29058 24.6327 5.57243C23.5734 6.61072 22.1493 7.19229 20.666 7.19229C19.1828 7.19229 17.7586 6.61072 16.6993 5.57243C15.2662 4.16769 13.3395 3.38086 11.3327 3.38086C9.32591 3.38086 7.39914 4.16769 5.96602 5.57243C5.77414 5.76051 5.66602 6.01789 5.66602 6.28657V27.6199C5.66602 28.1722 6.11373 28.6199 6.66602 28.6199C7.2183 28.6199 7.66602 28.1722 7.66602 27.6199V18.727Z" fill="black"/>
</svg>
