<svg width="10" height="10" viewBox="0 0 10 10" fill="none" xmlns="http://www.w3.org/2000/svg">
<g clip-path="url(#clip0_363_377)">
<path d="M7.74656 3.79545C7.71959 3.76166 7.6869 3.7683 7.66977 3.7752C7.65541 3.78102 7.62252 3.79961 7.62707 3.84621C7.63254 3.90217 7.63561 3.95922 7.63619 4.0158C7.63863 4.25053 7.54447 4.48049 7.37787 4.64672C7.21232 4.81188 6.99459 4.90086 6.76275 4.89828C6.44607 4.89424 6.18342 4.72906 6.00316 4.42061C5.85412 4.16555 5.91963 3.83658 5.98899 3.48828C6.02957 3.28441 6.07154 3.07359 6.07154 2.87295C6.07154 1.31066 5.02127 0.409336 4.39521 0.0111133C4.38227 0.00289062 4.36994 0 4.35902 0C4.34127 0 4.32721 0.00765625 4.32027 0.0123437C4.30684 0.0214453 4.28533 0.0421875 4.29225 0.0789063C4.53154 1.34965 3.81779 2.11393 3.06213 2.92307C2.28322 3.75711 1.40039 4.70244 1.40039 6.40736C1.40039 8.38838 3.01205 10 4.99307 10C6.62416 10 8.06227 8.86285 8.49024 7.23461C8.78207 6.12439 8.47625 4.71018 7.74656 3.79545ZM5.0827 9.23318C4.58664 9.2558 4.11488 9.07789 3.75455 8.73336C3.39809 8.3925 3.19363 7.91682 3.19363 7.42826C3.19363 6.51145 3.54418 5.8384 4.48703 4.94488C4.50246 4.93025 4.51826 4.92562 4.53203 4.92562C4.54451 4.92562 4.55533 4.92943 4.56277 4.93301C4.57846 4.94057 4.60424 4.95928 4.60076 4.99975C4.56705 5.39203 4.56764 5.71764 4.60248 5.96756C4.69154 6.60594 5.15887 7.03486 5.76541 7.03486C6.06279 7.03486 6.34606 6.92295 6.56303 6.71973C6.5882 6.69613 6.61633 6.69914 6.62711 6.70143C6.64139 6.70451 6.66051 6.71326 6.67053 6.73742C6.76049 6.95463 6.80647 7.1852 6.80717 7.42268C6.81004 8.37824 6.03645 9.19045 5.0827 9.23318Z" fill="black"/>
</g>
<defs>
<clipPath id="clip0_363_377">
<rect width="10" height="10" fill="white"/>
</clipPath>
</defs>
</svg>
