<svg width="10" height="10" viewBox="0 0 10 10" fill="none" xmlns="http://www.w3.org/2000/svg">
<g clip-path="url(#clip0_363_381)">
<path d="M2.10218 5.45024L3.92611 5.69608L3.06968 9.20521C3.06658 9.21572 3.06188 9.24746 3.06044 9.2582C3.02209 9.54271 3.22252 9.80559 3.50703 9.84394C3.6689 9.86576 3.8338 9.80894 3.95474 9.68524L8.25668 5.01849C8.33513 4.93867 8.38669 4.83378 8.40166 4.7227C8.44001 4.43819 8.23958 4.17531 7.95506 4.13696L5.72275 3.83607L6.51756 0.74664C6.52041 0.734832 6.52619 0.698192 6.52781 0.686217C6.56657 0.401762 6.36614 0.138883 6.08163 0.100534C5.91976 0.0787163 5.75486 0.135531 5.63006 0.262919L1.80057 4.56871C1.72212 4.64853 1.67056 4.75342 1.65559 4.8645C1.61724 5.14901 1.81767 5.41189 2.10218 5.45024Z" fill="black"/>
</g>
<defs>
<clipPath id="clip0_363_381">
<rect width="10" height="10" fill="white"/>
</clipPath>
</defs>
</svg>
