<svg width="20" height="20" viewBox="0 0 20 20" fill="none" xmlns="http://www.w3.org/2000/svg">
<path fill-rule="evenodd" clip-rule="evenodd" d="M7.02322 4.0974C6.55421 4.04737 6.07991 4.09499 5.63021 4.23727C5.1805 4.37954 4.76513 4.61339 4.41024 4.92408C4.05535 5.23478 3.76863 5.61559 3.56815 6.04253C3.36766 6.46948 3.25775 6.93331 3.24533 7.40482C3.23291 7.87634 3.31825 8.34531 3.49598 8.78222C3.67371 9.21913 3.93998 9.61451 4.27802 9.94345L4.28276 9.94806L4.28274 9.94808L10.0024 15.6129L10.308 15.3073C10.6009 15.0144 11.0757 15.0144 11.3686 15.3073C11.6615 15.6002 11.6615 16.0751 11.3686 16.368L10.5353 17.2013C10.2434 17.4932 9.7705 17.4943 9.4772 17.2038L3.22945 11.0161C2.74417 10.5432 2.36187 9.97509 2.10654 9.34743C1.85078 8.71871 1.72797 8.04384 1.74585 7.36533C1.76372 6.68681 1.92189 6.01934 2.21039 5.40496C2.4989 4.79057 2.91149 4.24258 3.42218 3.79548C3.93288 3.34838 4.53061 3.01187 5.17775 2.80713C5.82489 2.60239 6.50741 2.53387 7.18233 2.60586C7.85725 2.67786 8.50996 2.88882 9.09935 3.22547C9.42747 3.41288 9.732 3.63699 10.0074 3.89284C10.734 3.22358 11.6513 2.78372 12.643 2.64205C13.9339 2.45764 15.2451 2.79358 16.2883 3.57596C17.3315 4.35835 18.0211 5.5231 18.2056 6.81398C18.39 8.10485 18.054 9.41611 17.2716 10.4593C17.0231 10.7907 16.553 10.8578 16.2216 10.6093C15.8903 10.3608 15.8231 9.89067 16.0716 9.5593C16.6153 8.83437 16.8488 7.92316 16.7206 7.02611C16.5925 6.12906 16.1132 5.31966 15.3883 4.77596C14.6634 4.23227 13.7522 3.99882 12.8551 4.12697C11.9581 4.25512 11.1487 4.73437 10.605 5.4593C10.463 5.64861 10.24 5.75981 10.0033 5.7593C9.7667 5.75878 9.54418 5.64661 9.40302 5.45669C9.12166 5.07812 8.76496 4.76191 8.35539 4.52797C7.94581 4.29403 7.49224 4.14743 7.02322 4.0974ZM14.1716 10.0876C14.5858 10.0876 14.9216 10.4234 14.9216 10.8376V12.5876H16.6716C17.0858 12.5876 17.4216 12.9234 17.4216 13.3376C17.4216 13.7518 17.0858 14.0876 16.6716 14.0876H14.9216V15.8376C14.9216 16.2518 14.5858 16.5876 14.1716 16.5876C13.7574 16.5876 13.4216 16.2518 13.4216 15.8376V14.0876H11.6716C11.2574 14.0876 10.9216 13.7518 10.9216 13.3376C10.9216 12.9234 11.2574 12.5876 11.6716 12.5876H13.4216V10.8376C13.4216 10.4234 13.7574 10.0876 14.1716 10.0876Z" fill="black"/>
</svg>
