<svg width="29" height="29" viewBox="0 0 29 29" fill="none" xmlns="http://www.w3.org/2000/svg">
<path fill-rule="evenodd" clip-rule="evenodd" d="M10.3254 6.34062C9.6619 6.26985 8.99095 6.33721 8.35478 6.53848C7.71862 6.73975 7.13101 7.07056 6.62897 7.51008C6.12693 7.94959 5.72133 8.4883 5.43772 9.09227C5.1541 9.69625 4.99862 10.3524 4.98105 11.0194C4.96348 11.6864 5.0842 12.3499 5.33563 12.9679C5.58705 13.586 5.96373 14.1453 6.44193 14.6106L6.44825 14.6168L6.44822 14.6168L14.4945 22.5859L22.5408 14.6168C22.5636 14.5943 22.5871 14.5731 22.6113 14.5533C23.0538 14.1011 23.4035 13.5662 23.6401 12.9788C23.8887 12.3618 24.0072 11.7002 23.9883 11.0353C23.9694 10.3704 23.8134 9.71652 23.5302 9.11467C23.247 8.51281 22.8426 7.9759 22.3423 7.53752C21.842 7.09915 21.2566 6.76876 20.6228 6.56702C19.989 6.36528 19.3203 6.29654 18.6587 6.36511C17.9971 6.43367 17.3567 6.63807 16.7777 6.96549C16.1987 7.29292 15.6935 7.73633 15.2938 8.26797C15.1043 8.51999 14.8071 8.66787 14.4917 8.66699C14.1764 8.66611 13.88 8.51658 13.6919 8.26351C13.2939 7.72798 12.7893 7.28066 12.2099 6.94972C11.6305 6.61879 10.9889 6.4114 10.3254 6.34062ZM23.8734 16.1119L15.1982 24.7038C14.8085 25.0898 14.1806 25.0898 13.7908 24.7038L5.04385 16.0408C4.36933 15.3836 3.83793 14.5939 3.48305 13.7215C3.12758 12.8477 2.9569 11.9098 2.98174 10.9668C3.00658 10.0237 3.22641 9.09606 3.62738 8.24217C4.02835 7.38828 4.60178 6.62666 5.31156 6.00527C6.02134 5.38388 6.8521 4.91619 7.75151 4.63164C8.65092 4.34708 9.59951 4.25184 10.5375 4.35191C11.4756 4.45197 12.3827 4.74517 13.2019 5.21305C13.6718 5.48145 14.1069 5.80399 14.4987 6.17316C14.8904 5.80816 15.3247 5.48951 15.7932 5.22458C16.6118 4.76167 17.5171 4.4727 18.4525 4.37576C19.3879 4.27883 20.3333 4.37601 21.2294 4.66122C22.1255 4.94644 22.9531 5.41355 23.6604 6.03332C24.3677 6.65309 24.9394 7.41218 25.3398 8.26307C25.7403 9.11397 25.9607 10.0384 25.9875 10.9784C26.0142 11.9184 25.8467 12.8538 25.4952 13.7261C25.1438 14.5984 24.6162 15.3888 23.9453 16.0478C23.9221 16.0705 23.8981 16.0919 23.8734 16.1119Z" fill="black"/>
</svg>
