<svg width="28" height="28" viewBox="0 0 28 28" fill="none" xmlns="http://www.w3.org/2000/svg">
    <path d="M22.75 14.6673L14 23.3333L5.25003 14.6673C4.67288 14.1057 4.21828 13.4307 3.91483 12.6847C3.61139 11.9388 3.46568 11.1381 3.48689 10.3331C3.50809 9.52808 3.69575 8.73617 4.03804 8.00723C4.38034 7.2783 4.86985 6.62814 5.47576 6.09768C6.08167 5.56723 6.79085 5.16798 7.55864 4.92507C8.32643 4.68216 9.1362 4.60086 9.93695 4.68628C10.7377 4.7717 11.5121 5.02199 12.2114 5.4214C12.9107 5.82081 13.5196 6.36067 14 7.00701C14.4825 6.36537 15.0922 5.83022 15.791 5.43505C16.4898 5.03988 17.2626 4.7932 18.0611 4.71045C18.8596 4.6277 19.6666 4.71066 20.4316 4.95413C21.1966 5.19761 21.9031 5.59636 22.5068 6.12543C23.1106 6.6545 23.5987 7.30251 23.9405 8.02888C24.2823 8.75526 24.4706 9.54437 24.4934 10.3468C24.5162 11.1493 24.3732 11.9478 24.0732 12.6925C23.7732 13.4371 23.3228 14.1118 22.75 14.6743" stroke="black" stroke-width="2" stroke-linecap="round" stroke-linejoin="round"/>
</svg>
