<svg width="24" height="24" viewBox="0 0 24 24" fill="none" xmlns="http://www.w3.org/2000/svg">
<path d="M19.5091 12.5775L12.0091 20.0055L4.50909 12.5775C4.0144 12.0962 3.62473 11.5176 3.36464 10.8782C3.10454 10.2388 2.97965 9.5525 2.99783 8.86248C3.016 8.17246 3.17685 7.49368 3.47025 6.86888C3.76364 6.24409 4.18323 5.6868 4.70258 5.23213C5.22193 4.77745 5.8298 4.43524 6.4879 4.22703C7.14601 4.01882 7.8401 3.94913 8.52646 4.02235C9.21282 4.09557 9.87659 4.3101 10.476 4.65245C11.0753 4.9948 11.5973 5.45755 12.0091 6.01155C12.4226 5.46157 12.9452 5.00287 13.5442 4.66415C14.1432 4.32544 14.8056 4.114 15.49 4.04307C16.1745 3.97214 16.8662 4.04325 17.5219 4.25194C18.1776 4.46063 18.7831 4.80242 19.3006 5.25591C19.8182 5.7094 20.2365 6.26483 20.5295 6.88744C20.8225 7.51005 20.9838 8.18643 21.0034 8.87426C21.023 9.56208 20.9004 10.2465 20.6432 10.8848C20.3861 11.5231 20 12.1014 19.5091 12.5835" fill="black"/>
</svg>
