<svg width="24" height="24" viewBox="0 0 24 24" fill="none" xmlns="http://www.w3.org/2000/svg">
<path fill-rule="evenodd" clip-rule="evenodd" d="M10.5339 2.384C10.9814 2.13225 11.4862 2 11.9996 2C12.513 2 13.0178 2.13225 13.4652 2.384C13.9127 2.63576 14.2878 2.99853 14.5543 3.43735L14.5574 3.44255L22.9804 17.5026L22.9887 17.5167C23.2495 17.9685 23.3874 18.4808 23.3888 19.0025C23.3902 19.5243 23.2551 20.0373 22.9967 20.4906C22.7384 20.9438 22.3659 21.3216 21.9164 21.5863C21.4668 21.851 20.9557 21.9934 20.434 21.9994L20.4226 21.9995L3.56616 21.9995C3.04446 21.9935 2.53342 21.851 2.08383 21.5863C1.63424 21.3216 1.26176 20.9438 1.00344 20.4906C0.745111 20.0373 0.609932 19.5243 0.611339 19.0025C0.612746 18.4808 0.750691 17.9685 1.01146 17.5167L1.01972 17.5026L9.44487 3.43734C9.7114 2.99852 10.0865 2.63576 10.5339 2.384ZM11.9996 4C11.8297 4 11.6627 4.04376 11.5146 4.12706C11.3673 4.20995 11.2437 4.32923 11.1556 4.47347L2.74037 18.5221C2.65626 18.6702 2.61179 18.8375 2.61133 19.0079C2.61087 19.1806 2.65559 19.3503 2.74107 19.5003C2.82654 19.6503 2.94979 19.7753 3.09855 19.8629C3.24596 19.9496 3.41334 19.9967 3.58432 19.9995H20.4159C20.5868 19.9967 20.7542 19.9496 20.9016 19.8629C21.0504 19.7753 21.1736 19.6503 21.2591 19.5003C21.3446 19.3503 21.3893 19.1806 21.3888 19.0079C21.3884 18.8376 21.3439 18.6702 21.2598 18.5222L12.8449 4.47559C12.8445 4.47488 12.844 4.47418 12.8436 4.47348C12.7555 4.32923 12.6319 4.20996 12.4845 4.12706C12.3365 4.04376 12.1695 4 11.9996 4ZM11.0596 9.99948C11.0596 9.4472 11.5073 8.99948 12.0596 8.99948H12.0696C12.6219 8.99948 13.0696 9.4472 13.0696 9.99948C13.0696 10.5518 12.6219 10.9995 12.0696 10.9995H12.0596C11.5073 10.9995 11.0596 10.5518 11.0596 9.99948ZM10.0596 12.9995C10.0596 12.4472 10.5073 11.9995 11.0596 11.9995H12.0596C12.6119 11.9995 13.0596 12.4472 13.0596 12.9995V15.9995C13.6119 15.9995 14.0596 16.4472 14.0596 16.9995C14.0596 17.5518 13.6119 17.9995 13.0596 17.9995H12.0596C11.5073 17.9995 11.0596 17.5518 11.0596 16.9995V13.9995C10.5073 13.9995 10.0596 13.5518 10.0596 12.9995Z" fill="black"/>
</svg>
