<svg width="24" height="24" viewBox="0 0 24 24" fill="none" xmlns="http://www.w3.org/2000/svg">
<path fill-rule="evenodd" clip-rule="evenodd" d="M8.59931 3.90128C9.06794 4.36991 9.06794 5.1297 8.59931 5.59833L6.09931 8.09833C5.63068 8.56696 4.87088 8.56696 4.40225 8.09833L2.90225 6.59833C2.43362 6.1297 2.43362 5.36991 2.90225 4.90128C3.37088 4.43265 4.13068 4.43265 4.59931 4.90128L5.25078 5.55275L6.90225 3.90128C7.37088 3.43265 8.13068 3.43265 8.59931 3.90128ZM10.0508 6.2498C10.0508 5.58706 10.588 5.0498 11.2508 5.0498H20.2508C20.9135 5.0498 21.4508 5.58706 21.4508 6.2498C21.4508 6.91255 20.9135 7.4498 20.2508 7.4498H11.2508C10.588 7.4498 10.0508 6.91255 10.0508 6.2498ZM8.59931 9.90128C9.06794 10.3699 9.06794 11.1297 8.59931 11.5983L6.09931 14.0983C5.63068 14.567 4.87088 14.567 4.40225 14.0983L2.90225 12.5983C2.43362 12.1297 2.43362 11.3699 2.90225 10.9013C3.37088 10.4326 4.13068 10.4326 4.59931 10.9013L5.25078 11.5527L6.90225 9.90128C7.37088 9.43265 8.13068 9.43265 8.59931 9.90128ZM10.0508 12.2498C10.0508 11.5871 10.588 11.0498 11.2508 11.0498H20.2508C20.9135 11.0498 21.4508 11.5871 21.4508 12.2498C21.4508 12.9125 20.9135 13.4498 20.2508 13.4498H11.2508C10.588 13.4498 10.0508 12.9125 10.0508 12.2498ZM8.59931 15.9013C9.06794 16.3699 9.06794 17.1297 8.59931 17.5983L6.09931 20.0983C5.63068 20.567 4.87088 20.567 4.40225 20.0983L2.90225 18.5983C2.43362 18.1297 2.43362 17.3699 2.90225 16.9013C3.37088 16.4326 4.13068 16.4326 4.59931 16.9013L5.25078 17.5527L6.90225 15.9013C7.37088 15.4326 8.13068 15.4326 8.59931 15.9013ZM10.0508 18.2498C10.0508 17.5871 10.588 17.0498 11.2508 17.0498H20.2508C20.9135 17.0498 21.4508 17.5871 21.4508 18.2498C21.4508 18.9125 20.9135 19.4498 20.2508 19.4498H11.2508C10.588 19.4498 10.0508 18.9125 10.0508 18.2498Z" fill="black"/>
</svg>
