<svg width="20" height="20" viewBox="0 0 20 20" fill="none" xmlns="http://www.w3.org/2000/svg">
<path fill-rule="evenodd" clip-rule="evenodd" d="M10.0007 3.04785C8.83046 3.04785 7.68655 3.39485 6.71356 4.04497C5.74058 4.69509 4.98222 5.61913 4.5344 6.70024C4.08657 7.78135 3.96938 8.97098 4.19765 10.1187C4.42592 11.2664 4.98937 12.3206 5.81676 13.148C5.81678 13.1481 5.81673 13.148 5.81676 13.148L9.35322 16.6837C9.5251 16.8554 9.75812 16.9518 10.0011 16.9518C10.244 16.9518 10.477 16.8554 10.6489 16.6837L14.1845 13.1481C15.0119 12.3207 15.5754 11.2664 15.8037 10.1187C16.0319 8.97098 15.9147 7.78135 15.4669 6.70024C15.0191 5.61913 14.2607 4.69509 13.2877 4.04497C12.3148 3.39485 11.1708 3.04785 10.0007 3.04785ZM5.88022 2.79776C7.09987 1.98282 8.53379 1.54785 10.0007 1.54785C11.4675 1.54785 12.9014 1.98282 14.1211 2.79776C15.3408 3.6127 16.2914 4.771 16.8527 6.12619C17.4141 7.48139 17.561 8.97262 17.2748 10.4113C16.9887 11.85 16.2824 13.1715 15.2452 14.2088L11.7093 17.7446C11.2562 18.1973 10.6416 18.4518 10.0011 18.4518C9.36055 18.4518 8.74623 18.1976 8.29309 17.7449L4.75622 14.2088C3.71902 13.1716 3.01261 11.85 2.72647 10.4113C2.44033 8.97262 2.58722 7.48139 3.14858 6.12619C3.70995 4.771 4.66056 3.6127 5.88022 2.79776ZM7.70255 6.66618C8.31205 6.05669 9.1387 5.71428 10.0007 5.71428C10.8626 5.71428 11.6893 6.05669 12.2987 6.66618C12.9082 7.27567 13.2507 8.10232 13.2507 8.96428C13.2507 9.82623 12.9082 10.6529 12.2987 11.2624C11.6893 11.8719 10.8626 12.2143 10.0007 12.2143C9.1387 12.2143 8.31205 11.8719 7.70255 11.2624C7.09306 10.6529 6.75065 9.82623 6.75065 8.96428C6.75065 8.10232 7.09306 7.27567 7.70255 6.66618ZM10.0007 7.21428C9.53652 7.21428 9.0914 7.39865 8.76321 7.72684C8.43503 8.05503 8.25065 8.50015 8.25065 8.96428C8.25065 9.42841 8.43503 9.87353 8.76321 10.2017C9.0914 10.5299 9.53652 10.7143 10.0007 10.7143C10.4648 10.7143 10.9099 10.5299 11.2381 10.2017C11.5663 9.87353 11.7507 9.42841 11.7507 8.96428C11.7507 8.50015 11.5663 8.05503 11.2381 7.72684C10.9099 7.39865 10.4648 7.21428 10.0007 7.21428Z" fill="currentColor"/>
</svg>
