<svg width="20" height="20" viewBox="0 0 20 20" fill="none" xmlns="http://www.w3.org/2000/svg">
<path fill-rule="evenodd" clip-rule="evenodd" d="M2.45783 3.29083C2.91104 2.83762 3.52573 2.58301 4.16667 2.58301H10C10.6409 2.58301 11.2556 2.83762 11.7088 3.29083C12.1621 3.74405 12.4167 4.35873 12.4167 4.99967V6.66634C12.4167 7.08055 12.0809 7.41634 11.6667 7.41634C11.2525 7.41634 10.9167 7.08055 10.9167 6.66634V4.99967C10.9167 4.75656 10.8201 4.5234 10.6482 4.35149C10.4763 4.17958 10.2431 4.08301 10 4.08301H4.16667C3.92355 4.08301 3.69039 4.17958 3.51849 4.35149C3.34658 4.5234 3.25 4.75656 3.25 4.99967V14.9997C3.25 15.2428 3.34658 15.4759 3.51849 15.6479C3.69039 15.8198 3.92355 15.9163 4.16667 15.9163H10C10.2431 15.9163 10.4763 15.8198 10.6482 15.6479C10.8201 15.4759 10.9167 15.2428 10.9167 14.9997V13.333C10.9167 12.9188 11.2525 12.583 11.6667 12.583C12.0809 12.583 12.4167 12.9188 12.4167 13.333V14.9997C12.4167 15.6406 12.1621 16.2553 11.7088 16.7085C11.2556 17.1617 10.6409 17.4163 10 17.4163H4.16667C3.52573 17.4163 2.91104 17.1617 2.45783 16.7085C2.00461 16.2553 1.75 15.6406 1.75 14.9997V4.99967C1.75 4.35873 2.00461 3.74405 2.45783 3.29083ZM14.4697 6.96934C14.7626 6.67645 15.2374 6.67645 15.5303 6.96934L18.0303 9.46934C18.3232 9.76224 18.3232 10.2371 18.0303 10.53L15.5303 13.03C15.2374 13.3229 14.7626 13.3229 14.4697 13.03C14.1768 12.7371 14.1768 12.2622 14.4697 11.9693L15.6893 10.7497H5.83333C5.41912 10.7497 5.08333 10.4139 5.08333 9.99967C5.08333 9.58546 5.41912 9.24967 5.83333 9.24967H15.6893L14.4697 8.03C14.1768 7.73711 14.1768 7.26224 14.4697 6.96934Z" fill="black"/>
</svg>
