<svg width="20" height="20" viewBox="0 0 20 20" fill="none" xmlns="http://www.w3.org/2000/svg">
<path fill-rule="evenodd" clip-rule="evenodd" d="M10 4.33301C9.82319 4.33301 9.65362 4.40325 9.5286 4.52827C9.40357 4.65329 9.33333 4.82286 9.33333 4.99967V6.66634C9.33333 7.21863 8.88562 7.66634 8.33333 7.66634C7.78105 7.66634 7.33333 7.21863 7.33333 6.66634V4.99967C7.33333 4.29243 7.61429 3.61415 8.11438 3.11406C8.61448 2.61396 9.29276 2.33301 10 2.33301H15.8333C16.5406 2.33301 17.2189 2.61396 17.719 3.11406C18.219 3.61415 18.5 4.29243 18.5 4.99967V14.9997C18.5 15.7069 18.219 16.3852 17.719 16.8853C17.2189 17.3854 16.5406 17.6663 15.8333 17.6663H10C9.29276 17.6663 8.61448 17.3854 8.11438 16.8853C7.61429 16.3852 7.33333 15.7069 7.33333 14.9997V13.333C7.33333 12.7807 7.78105 12.333 8.33333 12.333C8.88562 12.333 9.33333 12.7807 9.33333 13.333V14.9997C9.33333 15.1765 9.40357 15.3461 9.52859 15.4711C9.65362 15.5961 9.82319 15.6663 10 15.6663H15.8333C16.0101 15.6663 16.1797 15.5961 16.3047 15.4711C16.4298 15.3461 16.5 15.1765 16.5 14.9997V4.99967C16.5 4.82286 16.4298 4.65329 16.3047 4.52827C16.1797 4.40325 16.0101 4.33301 15.8333 4.33301H10ZM10.9596 6.79257C11.3501 6.40204 11.9832 6.40204 12.3738 6.79257L14.8738 9.29257C15.2643 9.68309 15.2643 10.3163 14.8738 10.7068L12.3738 13.2068C11.9832 13.5973 11.3501 13.5973 10.9596 13.2068C10.569 12.8163 10.569 12.1831 10.9596 11.7926L11.7525 10.9997H2.5C1.94772 10.9997 1.5 10.552 1.5 9.99967C1.5 9.44739 1.94772 8.99967 2.5 8.99967H11.7525L10.9596 8.20678C10.569 7.81626 10.569 7.18309 10.9596 6.79257Z" fill="black"/>
</svg>
