<svg width="32" height="32" viewBox="0 0 32 32" fill="none" xmlns="http://www.w3.org/2000/svg">
<path fill-rule="evenodd" clip-rule="evenodd" d="M28.5257 4.48236C28.8205 4.66456 29 4.98643 29 5.33301V22.6663C29 23.0451 28.786 23.3914 28.4472 23.5608L20.4472 27.5608C20.1657 27.7015 19.8343 27.7015 19.5528 27.5608L12 23.7844L4.44721 27.5608C4.13723 27.7158 3.76909 27.6992 3.47427 27.517C3.17945 27.3348 3 27.0129 3 26.6663V9.33301C3 8.95424 3.214 8.60797 3.55279 8.43858L11.5528 4.43858C11.8343 4.29782 12.1657 4.29782 12.4472 4.43858L20 8.21497L27.5528 4.43858C27.8628 4.28359 28.2309 4.30015 28.5257 4.48236ZM19 9.95104L13 6.95104V22.0483L19 25.0483V9.95104ZM21 25.0483L27 22.0483V6.95104L21 9.95104V25.0483ZM11 22.0483V6.95104L5 9.95104V25.0483L11 22.0483Z" fill="black"/>
</svg>
