<svg width="281" height="124" viewBox="0 0 281 124" fill="none" xmlns="http://www.w3.org/2000/svg">
<g clip-path="url(#clip0_249_13977)">
<path d="M161.886 50.2926C152.934 50.2926 143.842 49.9271 135.327 47.5404C126.973 45.2075 119.302 40.6814 112.465 35.4457C107.978 32.0377 103.918 29.3177 98.0957 29.7263C92.4092 30.0435 86.9747 32.1919 82.5941 35.8542C75.1905 42.3692 76.3122 54.4209 79.2608 62.8926C83.7158 75.6538 97.2303 84.5232 108.736 90.2964C122.016 96.9727 136.599 100.821 151.235 103.079C164.055 105.047 180.518 106.466 191.629 98.0477C201.842 90.3071 204.641 72.622 202.141 60.6886C201.531 57.1621 199.662 53.9812 196.885 51.7439C189.717 46.4653 179.023 49.9916 170.967 50.1636C167.976 50.2926 164.942 50.2926 161.886 50.2926Z" fill="#C7C7C7" fill-opacity="0.2"/>
<path d="M139.996 124C161.656 124 179.215 122.898 179.215 121.538C179.215 120.178 161.656 119.076 139.996 119.076C118.336 119.076 100.777 120.178 100.777 121.538C100.777 122.898 118.336 124 139.996 124Z" fill="#E3E8EC"/>
<path d="M160.092 0.5C160.391 0.5 160.639 0.745008 160.639 1.05371C160.639 1.36235 160.391 1.60742 160.092 1.60742C159.793 1.60737 159.545 1.36232 159.545 1.05371C159.545 0.745036 159.793 0.500052 160.092 0.5Z" fill="#E3E8EC" stroke="#E3E8EC"/>
<path d="M112.24 102.751C112.539 102.751 112.787 102.996 112.787 103.305C112.787 103.613 112.539 103.858 112.24 103.858C111.941 103.858 111.693 103.613 111.693 103.305C111.693 102.996 111.941 102.751 112.24 102.751Z" fill="#E3E8EC" stroke="#E3E8EC"/>
<path d="M172.431 109.745V114.367" stroke="#E3E8EC" stroke-linecap="round" stroke-linejoin="round"/>
<path d="M170.123 112.056H174.728" stroke="#E3E8EC" stroke-linecap="round" stroke-linejoin="round"/>
<path d="M138.308 6.08496C126.974 6.08496 116.105 10.6157 108.091 18.6803C100.076 26.745 95.5742 37.6831 95.5742 49.0882C95.5742 80.6527 138.308 110.207 138.308 110.207C138.308 110.207 181.042 81.1042 181.042 49.0882C181.042 37.6831 176.539 26.745 168.525 18.6803C160.511 10.6157 149.642 6.08496 138.308 6.08496ZM138.308 65.2145C134.98 65.2145 131.726 64.2218 128.958 62.362C126.19 60.5021 124.032 57.8585 122.757 54.765C121.481 51.6715 121.145 48.267 121.791 44.9815C122.437 41.696 124.037 38.6769 126.387 36.3057C128.738 33.9344 131.734 32.3173 134.997 31.6587C138.26 31.0001 141.644 31.3295 144.722 32.6053C147.799 33.8811 150.431 36.0461 152.287 38.8267C154.142 41.6074 155.136 44.879 155.145 48.2282C155.142 52.721 153.367 57.0289 150.21 60.2058C147.053 63.3826 142.772 65.1686 138.308 65.1715V65.2145Z" fill="#C8C8C8"/>
<path d="M93.0957 14.0513V18.6741" stroke="#E3E8EC" stroke-linecap="round" stroke-linejoin="round"/>
<path d="M90.7881 16.3628H95.3926" stroke="#E3E8EC" stroke-linecap="round" stroke-linejoin="round"/>
<path d="M188.733 26.6299V31.2527" stroke="#E3E8EC" stroke-linecap="round" stroke-linejoin="round"/>
<path d="M186.426 28.9414H191.03" stroke="#E3E8EC" stroke-linecap="round" stroke-linejoin="round"/>
</g>
<defs>
<clipPath id="clip0_249_13977">
<rect width="281" height="124" rx="12" fill="white"/>
</clipPath>
</defs>
</svg>
