<svg width="24" height="24" viewBox="0 0 24 24" fill="none" xmlns="http://www.w3.org/2000/svg">
<path fill-rule="evenodd" clip-rule="evenodd" d="M6.58346 5.6168C6.32709 5.6168 6.08121 5.71864 5.89993 5.89993C5.72304 6.07681 5.62179 6.31518 5.61698 6.5648C5.80942 9.63592 7.11621 12.5315 9.29246 14.7078C11.4687 16.8841 14.3643 18.1908 17.4355 18.3833C17.6851 18.3785 17.9234 18.2772 18.1003 18.1003C18.2816 17.919 18.3835 17.6732 18.3835 17.4168V14.5574L15.2103 13.2881L14.267 14.8603C14.0796 15.1727 13.6839 15.2891 13.3572 15.1279C11.4094 14.1673 9.83294 12.5909 8.87233 10.6431C8.71119 10.3164 8.82759 9.92065 9.13998 9.73322L10.7121 8.78993L9.44287 5.6168H6.58346ZM4.90998 4.90998C5.35381 4.46614 5.95578 4.2168 6.58346 4.2168H9.9168C10.203 4.2168 10.4604 4.39106 10.5667 4.65682L12.2334 8.82349C12.361 9.14249 12.2382 9.50694 11.9436 9.68371L10.4341 10.5894C11.1598 11.8164 12.1839 12.8404 13.4108 13.5662L14.3166 12.0567C14.4933 11.762 14.8578 11.6393 15.1768 11.7669L19.3434 13.4335C19.6092 13.5398 19.7835 13.7972 19.7835 14.0835V17.4168C19.7835 18.0445 19.5341 18.6464 19.0903 19.0903C18.6464 19.5341 18.0445 19.7835 17.4168 19.7835C17.4026 19.7835 17.3885 19.783 17.3743 19.7822C13.9531 19.5743 10.7262 18.1214 8.30251 15.6977C5.87885 13.2741 4.426 10.0472 4.21809 6.62592C4.21723 6.61179 4.2168 6.59763 4.2168 6.58346C4.2168 5.95578 4.46614 5.35381 4.90998 4.90998Z" fill="black"/>
</svg>
