<svg width="32" height="32" viewBox="0 0 32 32" fill="none" xmlns="http://www.w3.org/2000/svg">
<path fill-rule="evenodd" clip-rule="evenodd" d="M11.334 5.25C11.3119 5.25 11.2907 5.25878 11.2751 5.27441C11.2594 5.29004 11.2507 5.31123 11.2507 5.33333C11.2507 6.3721 10.838 7.36832 10.1035 8.10284C9.36897 8.83735 8.37275 9.25 7.33398 9.25H6.00065C5.62493 9.25 5.26459 9.39926 4.99892 9.66493C4.73324 9.93061 4.58398 10.2909 4.58398 10.6667V22.6667C4.58398 23.0424 4.73324 23.4027 4.99892 23.6684C5.26459 23.9341 5.62493 24.0833 6.00065 24.0833H15.334C16.0243 24.0833 16.584 24.643 16.584 25.3333C16.584 26.0237 16.0243 26.5833 15.334 26.5833H6.00065C4.96189 26.5833 3.96567 26.1707 3.23115 25.4362C2.49663 24.7017 2.08398 23.7054 2.08398 22.6667V10.6667C2.08398 9.6279 2.49663 8.63168 3.23115 7.89717C3.96567 7.16265 4.96189 6.75 6.00065 6.75H7.33398C7.70971 6.75 8.07004 6.60074 8.33572 6.33507C8.6014 6.06939 8.75065 5.70906 8.75065 5.33333C8.75065 4.64819 9.02282 3.99111 9.50729 3.50664C9.99176 3.02217 10.6488 2.75 11.334 2.75H19.334C20.0191 2.75 20.6762 3.02217 21.1607 3.50664C21.6451 3.99111 21.9173 4.64819 21.9173 5.33333C21.9173 5.70906 22.0666 6.06939 22.3323 6.33507C22.5979 6.60074 22.9583 6.75 23.334 6.75H24.6673C25.7061 6.75 26.7023 7.16265 27.4368 7.89717C28.1713 8.63168 28.584 9.6279 28.584 10.6667V15.3333C28.584 16.0237 28.0243 16.5833 27.334 16.5833C26.6436 16.5833 26.084 16.0237 26.084 15.3333V10.6667C26.084 10.2909 25.9347 9.93061 25.6691 9.66493C25.4034 9.39926 25.043 9.25 24.6673 9.25H23.334C22.2952 9.25 21.299 8.83735 20.5645 8.10284C19.83 7.36832 19.4173 6.3721 19.4173 5.33333C19.4173 5.31123 19.4085 5.29004 19.3929 5.27441C19.3773 5.25878 19.3561 5.25 19.334 5.25H11.334ZM11.6217 12.2877C12.6062 11.3031 13.9416 10.75 15.334 10.75C16.7264 10.75 18.0617 11.3031 19.0463 12.2877C20.0309 13.2723 20.584 14.6076 20.584 16C20.584 17.3924 20.0309 18.7277 19.0463 19.7123C18.0617 20.6969 16.7264 21.25 15.334 21.25C13.9416 21.25 12.6062 20.6969 11.6217 19.7123C10.6371 18.7277 10.084 17.3924 10.084 16C10.084 14.6076 10.6371 13.2723 11.6217 12.2877ZM15.334 13.25C14.6046 13.25 13.9052 13.5397 13.3894 14.0555C12.8737 14.5712 12.584 15.2707 12.584 16C12.584 16.7293 12.8737 17.4288 13.3894 17.9445C13.9052 18.4603 14.6046 18.75 15.334 18.75C16.0633 18.75 16.7628 18.4603 17.2785 17.9445C17.7943 17.4288 18.084 16.7293 18.084 16C18.084 15.2707 17.7943 14.5712 17.2785 14.0555C16.7628 13.5397 16.0633 13.25 15.334 13.25ZM24.6673 18.75C25.3577 18.75 25.9173 19.3096 25.9173 20V22.75H28.6673C29.3577 22.75 29.9173 23.3096 29.9173 24C29.9173 24.6904 29.3577 25.25 28.6673 25.25H25.9173V28C25.9173 28.6904 25.3577 29.25 24.6673 29.25C23.977 29.25 23.4173 28.6904 23.4173 28V25.25H20.6673C19.977 25.25 19.4173 24.6904 19.4173 24C19.4173 23.3096 19.977 22.75 20.6673 22.75H23.4173V20C23.4173 19.3096 23.977 18.75 24.6673 18.75Z" fill="black"/>
</svg>
