<svg width="16" height="16" viewBox="0 0 16 16" fill="none" xmlns="http://www.w3.org/2000/svg">
<path fill-rule="evenodd" clip-rule="evenodd" d="M7.99909 2.7334C8.33046 2.7334 8.59909 3.00203 8.59909 3.3334V7.40006H12.6658C12.9971 7.40006 13.2658 7.66869 13.2658 8.00007C13.2658 8.33144 12.9971 8.60007 12.6658 8.60007H8.59909V12.6667C8.59909 12.9981 8.33046 13.2667 7.99909 13.2667C7.66772 13.2667 7.39909 12.9981 7.39909 12.6667V8.60007H3.33242C3.00105 8.60007 2.73242 8.33144 2.73242 8.00007C2.73242 7.66869 3.00105 7.40006 3.33242 7.40006H7.39909V3.3334C7.39909 3.00203 7.66772 2.7334 7.99909 2.7334Z" fill="black"/>
</svg>
