<svg width="20" height="20" viewBox="0 0 20 20" fill="none" xmlns="http://www.w3.org/2000/svg">
<path fill-rule="evenodd" clip-rule="evenodd" d="M6.2299 3.60154C7.65437 2.77861 9.30989 2.44686 10.9414 2.65738C12.573 2.8679 14.0901 3.60903 15.259 4.76659C16.4279 5.92414 17.1838 7.43392 17.4103 9.06335C17.4673 9.47362 17.1809 9.85243 16.7706 9.90945C16.3604 9.96646 15.9816 9.68009 15.9245 9.26982C15.7434 7.96628 15.1387 6.75846 14.2035 5.83241C13.2684 4.90636 12.0547 4.31347 10.7495 4.14505C9.44424 3.97663 8.11982 4.24203 6.98025 4.90037C6.18371 5.36055 5.50837 5.99485 5.00113 6.74992H6.66741C7.08162 6.74992 7.41741 7.08571 7.41741 7.49992C7.41741 7.91413 7.08162 8.24992 6.66741 8.24992H3.76751C3.75615 8.25018 3.74477 8.25018 3.73337 8.24992H3.33408C2.91986 8.24992 2.58408 7.91413 2.58408 7.49992V4.16659C2.58408 3.75237 2.91986 3.41659 3.33408 3.41659C3.74829 3.41659 4.08408 3.75237 4.08408 4.16659V5.4623C4.67054 4.71584 5.39725 4.08257 6.2299 3.60154ZM3.23084 10.0904C3.64111 10.0334 4.01992 10.3197 4.07694 10.73C4.25809 12.0335 4.86281 13.2414 5.79795 14.1674C6.73308 15.0935 7.94675 15.6864 9.252 15.8548C10.5572 16.0232 11.8817 15.7578 13.0212 15.0995C13.8178 14.6393 14.4931 14.005 15.0004 13.2499H13.3341C12.9199 13.2499 12.5841 12.9141 12.5841 12.4999C12.5841 12.0857 12.9199 11.7499 13.3341 11.7499H16.234C16.2453 11.7496 16.2567 11.7496 16.2681 11.7499H16.6674C17.0816 11.7499 17.4174 12.0857 17.4174 12.4999V15.8332C17.4174 16.2475 17.0816 16.5832 16.6674 16.5832C16.2532 16.5832 15.9174 16.2475 15.9174 15.8332V14.5375C15.3309 15.284 14.6042 15.9173 13.7716 16.3983C12.3471 17.2212 10.6916 17.553 9.06004 17.3424C7.42848 17.1319 5.91139 16.3908 4.74248 15.2332C3.57356 14.0757 2.81766 12.5659 2.59122 10.9365C2.5342 10.5262 2.82057 10.1474 3.23084 10.0904Z" fill="black"/>
</svg>
