<svg width="24" height="24" viewBox="0 0 24 24" fill="none" xmlns="http://www.w3.org/2000/svg">
<path fill-rule="evenodd" clip-rule="evenodd" d="M7.55585 2.68508C8.64778 2.23279 9.8181 2 11 2C12.1819 2 13.3522 2.23279 14.4442 2.68508C15.5361 3.13738 16.5282 3.80031 17.364 4.63604C18.1997 5.47177 18.8626 6.46392 19.3149 7.55585C19.7672 8.64778 20 9.8181 20 11C20 12.1819 19.7672 13.3522 19.3149 14.4442C18.8626 15.5361 18.1997 16.5282 17.364 17.364C16.5282 18.1997 15.5361 18.8626 14.4442 19.3149C13.3522 19.7672 12.1819 20 11 20C9.8181 20 8.64778 19.7672 7.55585 19.3149C6.46392 18.8626 5.47177 18.1997 4.63604 17.364C3.80031 16.5282 3.13738 15.5361 2.68508 14.4442C2.23279 13.3522 2 12.1819 2 11C2 9.8181 2.23279 8.64778 2.68508 7.55585C3.13738 6.46392 3.80031 5.47177 4.63604 4.63604C5.47177 3.80031 6.46392 3.13738 7.55585 2.68508ZM11 4C10.0807 4 9.1705 4.18106 8.32122 4.53284C7.47194 4.88463 6.70026 5.40024 6.05025 6.05025C5.40024 6.70026 4.88463 7.47194 4.53284 8.32122C4.18106 9.1705 4 10.0807 4 11C4 11.9193 4.18106 12.8295 4.53284 13.6788C4.88463 14.5281 5.40024 15.2997 6.05025 15.9497C6.70026 16.5998 7.47194 17.1154 8.32122 17.4672C9.1705 17.8189 10.0807 18 11 18C11.9193 18 12.8295 17.8189 13.6788 17.4672C14.5281 17.1154 15.2997 16.5998 15.9497 15.9497C16.5998 15.2997 17.1154 14.5281 17.4672 13.6788C17.8189 12.8295 18 11.9193 18 11C18 10.0807 17.8189 9.1705 17.4672 8.32122C17.1154 7.47194 16.5998 6.70026 15.9497 6.05025C15.2997 5.40024 14.5281 4.88463 13.6788 4.53284C12.8295 4.18106 11.9193 4 11 4Z" fill="black"/>
<path fill-rule="evenodd" clip-rule="evenodd" d="M16.2929 16.2929C16.6834 15.9024 17.3166 15.9024 17.7071 16.2929L21.7071 20.2929C22.0976 20.6834 22.0976 21.3166 21.7071 21.7071C21.3166 22.0976 20.6834 22.0976 20.2929 21.7071L16.2929 17.7071C15.9024 17.3166 15.9024 16.6834 16.2929 16.2929Z" fill="black"/>
</svg>
