<svg width="20" height="20" viewBox="0 0 20 20" fill="none" xmlns="http://www.w3.org/2000/svg">
<path fill-rule="evenodd" clip-rule="evenodd" d="M3.5 4.33301V7.33301H6.5V4.33301H3.5ZM2.03697 2.86998C2.38079 2.52616 2.8471 2.33301 3.33333 2.33301H6.66667C7.1529 2.33301 7.61921 2.52616 7.96303 2.86998C8.30685 3.2138 8.5 3.68011 8.5 4.16634V7.49967C8.5 7.98591 8.30685 8.45222 7.96303 8.79604C7.61921 9.13985 7.1529 9.33301 6.66667 9.33301H3.33333C2.8471 9.33301 2.38079 9.13985 2.03697 8.79604C1.69315 8.45222 1.5 7.9859 1.5 7.49967V4.16634C1.5 3.68011 1.69315 3.2138 2.03697 2.86998ZM9.83333 4.16634C9.83333 3.61406 10.281 3.16634 10.8333 3.16634H17.5C18.0523 3.16634 18.5 3.61406 18.5 4.16634C18.5 4.71863 18.0523 5.16634 17.5 5.16634H10.8333C10.281 5.16634 9.83333 4.71863 9.83333 4.16634ZM9.83333 7.49967C9.83333 6.94739 10.281 6.49967 10.8333 6.49967H15C15.5523 6.49967 16 6.94739 16 7.49967C16 8.05196 15.5523 8.49967 15 8.49967H10.8333C10.281 8.49967 9.83333 8.05196 9.83333 7.49967ZM3.5 12.6663V15.6663H6.5V12.6663H3.5ZM2.03697 11.2033C2.38079 10.8595 2.8471 10.6663 3.33333 10.6663H6.66667C7.1529 10.6663 7.61921 10.8595 7.96303 11.2033C8.30685 11.5471 8.5 12.0134 8.5 12.4997V15.833C8.5 16.3192 8.30685 16.7856 7.96303 17.1294C7.61921 17.4732 7.15289 17.6663 6.66667 17.6663H3.33333C2.84711 17.6663 2.38079 17.4732 2.03697 17.1294C1.69315 16.7856 1.5 16.3192 1.5 15.833V12.4997C1.5 12.0134 1.69315 11.5471 2.03697 11.2033ZM9.83333 12.4997C9.83333 11.9474 10.281 11.4997 10.8333 11.4997H17.5C18.0523 11.4997 18.5 11.9474 18.5 12.4997C18.5 13.052 18.0523 13.4997 17.5 13.4997H10.8333C10.281 13.4997 9.83333 13.052 9.83333 12.4997ZM9.83333 15.833C9.83333 15.2807 10.281 14.833 10.8333 14.833H15C15.5523 14.833 16 15.2807 16 15.833C16 16.3853 15.5523 16.833 15 16.833H10.8333C10.281 16.833 9.83333 16.3853 9.83333 15.833Z" fill="black"/>
</svg>
