<svg width="20" height="20" viewBox="0 0 20 20" fill="none" xmlns="http://www.w3.org/2000/svg">
<path fill-rule="evenodd" clip-rule="evenodd" d="M8.33398 3.25C8.31188 3.25 8.29069 3.25878 8.27506 3.27441C8.25943 3.29004 8.25065 3.31123 8.25065 3.33333V5.08333H11.7507V3.33333C11.7507 3.31123 11.7419 3.29004 11.7262 3.27441C11.7106 3.25878 11.6894 3.25 11.6673 3.25H8.33398ZM13.2507 5.08333V3.33333C13.2507 2.91341 13.0838 2.51068 12.7869 2.21375C12.49 1.91681 12.0872 1.75 11.6673 1.75H8.33398C7.91406 1.75 7.51133 1.91681 7.2144 2.21375C6.91747 2.51068 6.75065 2.91341 6.75065 3.33333V5.08333H4.17609C4.17081 5.08328 4.16552 5.08328 4.16022 5.08333H3.33398C2.91977 5.08333 2.58398 5.41912 2.58398 5.83333C2.58398 6.24755 2.91977 6.58333 3.33398 6.58333H3.47722L4.25089 15.8674C4.25974 16.496 4.5133 17.097 4.95848 17.5422C5.41169 17.9954 6.02638 18.25 6.66732 18.25H13.334C13.9749 18.25 14.5896 17.9954 15.0428 17.5422C15.488 17.097 15.7416 16.496 15.7504 15.8674L16.5241 6.58333H16.6673C17.0815 6.58333 17.4173 6.24755 17.4173 5.83333C17.4173 5.41912 17.0815 5.08333 16.6673 5.08333H15.8411C15.8358 5.08328 15.8305 5.08328 15.8252 5.08333H13.2507ZM4.98242 6.58333L5.74806 15.771C5.74979 15.7918 5.75065 15.8125 5.75065 15.8333C5.75065 16.0764 5.84723 16.3096 6.01914 16.4815C6.19105 16.6534 6.4242 16.75 6.66732 16.75H13.334C13.5771 16.75 13.8103 16.6534 13.9822 16.4815C14.1541 16.3096 14.2507 16.0764 14.2507 15.8333C14.2507 15.8125 14.2515 15.7918 14.2532 15.771L15.0189 6.58333H4.98242ZM8.33398 8.41667C8.7482 8.41667 9.08398 8.75245 9.08398 9.16667V14.1667C9.08398 14.5809 8.7482 14.9167 8.33398 14.9167C7.91977 14.9167 7.58398 14.5809 7.58398 14.1667V9.16667C7.58398 8.75245 7.91977 8.41667 8.33398 8.41667ZM11.6673 8.41667C12.0815 8.41667 12.4173 8.75245 12.4173 9.16667V14.1667C12.4173 14.5809 12.0815 14.9167 11.6673 14.9167C11.2531 14.9167 10.9173 14.5809 10.9173 14.1667V9.16667C10.9173 8.75245 11.2531 8.41667 11.6673 8.41667Z" fill="black"/>
</svg>
