<svg width="91" height="90" viewBox="0 0 91 90" fill="none" xmlns="http://www.w3.org/2000/svg">
<circle cx="45.5" cy="45" r="43.5" fill="#FF831B" stroke="url(#paint0_linear_4_11)" stroke-width="3"/>
<path d="M45.5 41.5H45.5175M43.75 46.75H45.5V53.75H47.25M42.42 30.9247L27.6815 55.5297C27.3778 56.056 27.2172 56.6525 27.2155 57.2601C27.2139 57.8676 27.3713 58.465 27.6721 58.9929C27.973 59.5208 28.4067 59.9607 28.9303 60.2689C29.4538 60.5772 30.049 60.743 30.6565 60.75H60.1352C60.7427 60.743 61.3379 60.5772 61.8614 60.2689C62.385 59.9607 62.8187 59.5208 63.1196 58.9929C63.4204 58.465 63.5778 57.8676 63.5762 57.2601C63.5745 56.6525 63.4139 56.056 63.1102 55.5297L48.37 30.9247C48.0596 30.4137 47.6228 29.9913 47.1017 29.6981C46.5807 29.4049 45.9929 29.2509 45.395 29.2509C44.7971 29.2509 44.2093 29.4049 43.6882 29.6981C43.1671 29.9913 42.7303 30.4137 42.42 30.9247Z" stroke="white" stroke-width="4" stroke-linecap="round" stroke-linejoin="round"/>
<defs>
<linearGradient id="paint0_linear_4_11" x1="45.5" y1="0" x2="45.5" y2="90" gradientUnits="userSpaceOnUse">
<stop stop-color="white" stop-opacity="0.2"/>
<stop offset="1" stop-color="white" stop-opacity="0.1"/>
</linearGradient>
</defs>
</svg>
