<svg width="69" height="24" viewBox="0 0 69 24" fill="none" xmlns="http://www.w3.org/2000/svg">
<path d="M24.3975 21.0876C24.5499 20.6818 24.9999 20.4878 25.4097 20.6252C25.8086 20.759 26.2161 20.8574 26.6433 20.8574C27.2323 20.8574 27.7372 20.7476 28.1579 20.5279C28.9736 20.1499 29.2757 19.1891 29.622 18.4243L25.5249 7.45461C25.3821 7.07225 25.6636 6.66437 26.0703 6.66437H28.5094C28.8424 6.66437 29.1384 6.87757 29.2451 7.19434L31.3889 13.5581L33.5327 7.19435C33.6395 6.87757 33.9354 6.66437 34.2685 6.66437H36.5521C36.9599 6.66437 37.2415 7.07431 37.0966 7.45706L32.4744 19.6662C31.9359 21.0517 31.2291 22.1162 30.354 22.8596C29.4789 23.62 28.3262 24.0002 26.8957 24.0002C26.0526 24.0002 25.2277 23.8454 24.4359 23.576C23.9508 23.4109 23.7297 22.8651 23.9105 22.3839L24.3975 21.0876Z" fill="#1B9684"/>
<path d="M20.5695 17.3852C19.6785 18.2798 18.5472 18.5312 17.275 18.5257C15.0143 18.5159 13.1347 17.4035 12.3909 15.2562C11.8292 13.6349 11.8173 11.6802 12.3909 10.0606C13.1445 7.93247 15.0124 6.66437 17.2879 6.66437C18.5104 6.66437 19.6523 6.83816 20.5695 7.65281V7.44421C20.5695 7.01352 20.9172 6.66437 21.3462 6.66437H24.1112V18.5257H21.3462C20.9172 18.5257 20.5695 18.1765 20.5695 17.7459V17.3852ZM20.0899 14.8254C20.5443 14.234 20.7714 13.4905 20.7714 12.595C20.7714 11.5812 20.519 10.8125 20.0142 10.2887C19.0261 9.22816 17.1335 9.21117 16.2277 10.39C15.3045 11.6023 15.3281 13.647 16.253 14.8507C17.1789 16.0214 19.181 16.0083 20.0899 14.8254Z" fill="#1B9684"/>
<path d="M5.75534 2.10233H2.48544C1.61545 2.10233 1.18046 2.10233 0.84817 2.27232C0.555879 2.42185 0.31824 2.66045 0.16931 2.95392C0 3.28755 0 3.7243 0 4.5978V5.14369H5.45243C6.2602 5.14369 6.88285 5.3549 7.32039 5.77731C7.37719 5.828 7.43043 5.88053 7.48013 5.93492C7.828 6.31562 8.00194 6.78687 8.00194 7.34868C8.00194 7.39092 8.00112 7.43273 7.99948 7.47412C7.97483 8.09486 7.76529 8.61908 7.37087 9.04677C7.32039 9.1038 7.26635 9.15726 7.20877 9.20716C6.80568 9.55644 6.22864 9.73108 5.47767 9.73108H0V16.0302C0 16.9037 0 17.3405 0.16931 17.6741C0.31824 17.9676 0.555879 18.2062 0.84817 18.3557C1.18046 18.5257 1.61545 18.5257 2.48544 18.5257H3.37282V12.6457H5.83107C6.67249 12.6457 7.43819 12.5274 8.12816 12.2909C8.83495 12.0543 9.44078 11.708 9.94563 11.2518C10.4505 10.7787 10.8375 10.1957 11.1068 9.50298C11.3929 8.79333 11.5359 7.9823 11.5359 7.06989C11.5359 6.30955 11.4013 5.62524 11.132 5.01697C10.8628 4.40869 10.4757 3.89335 9.97087 3.47094C9.46602 3.03163 8.85178 2.6937 8.12816 2.45715C7.42136 2.2206 6.63042 2.10233 5.75534 2.10233Z" fill="#1B9684"/>
<path d="M56.4559 7.47849C56.2923 7.0927 56.5743 6.66446 56.9919 6.66446H59.4637C59.7855 6.66446 60.074 6.86376 60.189 7.16556L62.3456 12.8232L64.478 7.16818C64.5923 6.86501 64.8815 6.66446 65.2044 6.66446H67.5192C67.9377 6.66446 68.2197 7.09439 68.0543 7.48042L63.4817 18.1554C63.359 18.4417 63.0785 18.6272 62.7682 18.6272H61.6979C61.3865 18.6272 61.1053 18.4405 60.9833 18.1529L56.4559 7.47849Z" fill="#6E7787"/>
<path d="M50.2464 15.7125C50.6839 15.7125 51.0626 15.628 51.3823 15.4591C51.7189 15.2901 51.9965 15.0705 52.2153 14.8001C52.4509 14.5129 52.6192 14.1834 52.7202 13.8117C52.838 13.4231 52.8968 13.0175 52.8968 12.5951C52.8968 12.1727 52.838 11.7756 52.7202 11.4039C52.6192 11.0153 52.4509 10.6858 52.2153 10.4155C51.9965 10.1282 51.7189 9.90014 51.3823 9.73117C51.0626 9.56221 50.6839 9.47773 50.2464 9.47773C49.8088 9.47773 49.4218 9.56221 49.0852 9.73117C48.7655 9.90014 48.4878 10.1282 48.2522 10.4155C48.0334 10.6858 47.8651 11.0153 47.7473 11.4039C47.6295 11.7756 47.5706 12.1727 47.5706 12.5951C47.5706 13.0175 47.6295 13.4231 47.7473 13.8117C47.8651 14.1834 48.0334 14.5129 48.2522 14.8001C48.4878 15.0705 48.7655 15.2901 49.0852 15.4591C49.4218 15.628 49.8088 15.7125 50.2464 15.7125ZM50.2464 18.906C49.2871 18.906 48.4205 18.7454 47.6464 18.4244C46.8891 18.0865 46.2328 17.6387 45.6774 17.0811C45.1389 16.5067 44.7266 15.8392 44.4405 15.0789C44.1545 14.3017 44.0114 13.4737 44.0114 12.5951C44.0114 11.7165 44.1545 10.897 44.4405 10.1367C44.7266 9.37635 45.1389 8.70894 45.6774 8.13446C46.2328 7.55998 46.8891 7.11222 47.6464 6.79119C48.4205 6.45326 49.2871 6.28429 50.2464 6.28429C51.2056 6.28429 52.0638 6.45326 52.8211 6.79119C53.5952 7.11222 54.2515 7.55998 54.7901 8.13446C55.3454 8.70894 55.7661 9.37635 56.0522 10.1367C56.3383 10.897 56.4813 11.7165 56.4813 12.5951C56.4813 13.4737 56.3383 14.3017 56.0522 15.0789C55.7661 15.8392 55.3454 16.5067 54.7901 17.0811C54.2515 17.6387 53.5952 18.0865 52.8211 18.4244C52.0638 18.7454 51.2056 18.906 50.2464 18.906Z" fill="#6E7787"/>
<path d="M38.6953 3.5919C38.6953 2.73051 39.3908 2.03223 40.2487 2.03223H42.4312V18.5258H40.2487C39.3908 18.5258 38.6953 17.8275 38.6953 16.9661V3.5919Z" fill="#6E7787"/>
<ellipse cx="5.605" cy="7.44819" rx="1.06985" ry="1.07417" fill="#FA8231"/>
</svg>
