<svg width="68" height="24" viewBox="0 0 68 24" fill="none" xmlns="http://www.w3.org/2000/svg">
<g clip-path="url(#clip0_1966_13249)">
<path d="M28.3398 17.9906V6.23477H33.3381C34.1129 6.23477 34.8214 6.41425 35.4631 6.77216C36.1076 7.12208 36.6467 7.63822 37.0242 8.26695C37.4113 8.89408 37.6054 9.6219 37.6054 10.4504C37.6054 11.2784 37.4113 12.0177 37.0242 12.6668C36.6499 13.2922 36.1172 13.8079 35.4798 14.1616C34.8381 14.52 34.1233 14.6989 33.3381 14.6989H31.1296V17.9906H28.3398ZM31.1296 12.3313H33.0225C33.3543 12.3313 33.6538 12.2582 33.9188 12.1127C34.1849 11.9671 34.4009 11.7542 34.5668 11.4746C34.7327 11.1949 34.8157 10.8589 34.8157 10.4671C34.8157 10.0753 34.7322 9.73929 34.5668 9.45912C34.4099 9.18811 34.1797 8.96692 33.9026 8.82103C33.6365 8.66451 33.3433 8.58625 33.0225 8.58625H31.1296V12.3313ZM38.976 17.9906V5.73129H41.5498V17.9906H38.976ZM47.7021 18.192C46.8271 18.192 46.0691 18.024 45.4273 17.6885C44.796 17.341 44.3092 16.8767 43.9659 16.2944C43.6226 15.7012 43.4515 15.0459 43.4515 14.3296V9.37564H46.0247V14.2622C46.0247 14.5649 46.0967 14.8445 46.2407 15.1022C46.3847 15.3485 46.5783 15.5499 46.8219 15.7069C47.0765 15.852 47.3645 15.925 47.6854 15.925C47.9953 15.925 48.2718 15.852 48.515 15.7069C48.7701 15.5499 48.9689 15.3485 49.1134 15.1017C49.2569 14.8445 49.3289 14.5643 49.3289 14.2622V9.37564H51.9026V14.3296C51.9026 15.0459 51.7367 15.7012 51.4044 16.2944C51.0725 16.8767 50.5905 17.341 49.9602 17.6885C49.3398 18.024 48.588 18.192 47.7021 18.192ZM53.8289 17.9906V12.9021C53.8289 12.1967 53.9891 11.5643 54.3105 11.0045C54.6423 10.4332 55.1129 9.98555 55.7218 9.66103C56.3306 9.33599 57.0553 9.17373 57.8969 9.17373C58.3174 9.17373 58.7051 9.22434 59.0588 9.32503C59.3964 9.40777 59.7207 9.53775 60.0219 9.71112C60.3068 9.85736 60.565 10.0505 60.7858 10.2824H60.8191C61.0404 10.0581 61.295 9.86816 61.583 9.71112C61.8909 9.53964 62.2202 9.40981 62.5623 9.32503C62.9467 9.22178 63.3433 9.17088 63.7414 9.17373C64.5825 9.17373 65.3077 9.33599 65.9165 9.66103C66.5254 9.98555 66.996 10.4332 67.3278 11.0045C67.6602 11.5643 67.8261 12.1967 67.8261 12.9021V17.9906H65.2357V12.9861C65.2392 12.7185 65.1641 12.4559 65.0197 12.2306C64.8885 11.9967 64.7 11.8001 64.4718 11.6593C64.2326 11.5119 63.9561 11.4362 63.6751 11.4412C63.3762 11.4412 63.1049 11.5142 62.8612 11.6593C62.6333 11.8004 62.4449 11.997 62.3134 12.2306C62.1791 12.4595 62.1102 12.7208 62.1141 12.9861V17.9906H59.5404V12.9861C59.5404 12.7059 59.4684 12.4539 59.3249 12.2306C59.1903 11.9938 58.9955 11.7967 58.7604 11.6593C58.5209 11.5119 58.2443 11.4362 57.9631 11.4412C57.6642 11.4412 57.3929 11.5142 57.1498 11.6593C56.9216 11.8003 56.7329 11.9968 56.6014 12.2306C56.4676 12.4596 56.3988 12.7208 56.4026 12.9861V17.9906H53.8289Z" fill="#1F3E79"/>
<path d="M19.2297 0.0015564H4.49739C2.01391 0.0015564 0 2.03843 0 4.5506V19.4515C0 21.9626 2.01391 24 4.49739 24H19.2297C21.7132 24 23.7271 21.9631 23.7271 19.4509V4.55008C23.7271 2.03843 21.7132 0.0015564 19.2297 0.0015564Z" fill="#2792FC"/>
<mask id="mask0_1966_13249" style="mask-type:alpha" maskUnits="userSpaceOnUse" x="0" y="0" width="24" height="24">
<path d="M19.2805 0H4.54817C2.06469 0 0.0507812 2.03687 0.0507812 4.54904V19.4499C0.0507812 21.9616 2.06469 23.9984 4.54817 23.9984H19.2805C21.7645 23.9984 23.7779 21.9616 23.7779 19.4494V4.54852C23.7779 2.03687 21.7645 0 19.2805 0Z" fill="#2792FC"/>
</mask>
<g mask="url(#mask0_1966_13249)">
<path fill-rule="evenodd" clip-rule="evenodd" d="M4.7202 11.6316C2.57272 15.733 1.18699 20.4386 0.433594 23.412L3.57968 24.2275C4.30699 21.3563 5.59359 17.0353 7.50577 13.3315C13.6352 16.608 18.3319 15.9308 20.7079 12.9381C23.0786 9.95112 22.3722 5.01025 18.1054 3.59112C15.2912 2.65459 12.7534 3.1539 10.6007 4.52607C8.9609 5.57216 7.57203 7.10346 6.39916 8.81529C5.45793 8.16361 4.54509 7.47184 3.66316 6.7419L1.61272 9.28903C2.61258 10.1167 3.64947 10.898 4.7202 11.6316ZM9.18577 10.5172C14.5456 13.3508 17.2503 12.0459 18.1753 10.8809C19.3717 9.37407 18.8452 7.29442 17.0906 6.71059C15.275 6.10694 13.7385 6.40799 12.3329 7.30433C11.2148 8.01703 10.1614 9.12416 9.18577 10.5172Z" fill="#F3F2F5"/>
</g>
</g>
<defs>
<clipPath id="clip0_1966_13249">
<rect width="67.8261" height="24" fill="white"/>
</clipPath>
</defs>
</svg>
