<svg width="85" height="16" viewBox="0 0 85 16" fill="none" xmlns="http://www.w3.org/2000/svg">
<g id="Group 23">
<g id="Group 15">
<path id="Rectangle 25" d="M10.6904 3.76707C10.6904 1.68657 9.00382 0 6.92332 0C4.84282 0 3.15625 1.68657 3.15625 3.76707H10.6904Z" fill="#EFD45C"/>
<path id="xazna" d="M0.0243549 3.76782L13.8457 3.76782L13.8457 6.92387L0.0243548 6.92387L0.0243549 3.76782Z" fill="#4A864E"/>
<path id="xazna_2" d="M3.15625 3.76729L3.15625 16L0.000204086 16L0.000205156 3.76729L3.15625 3.76729Z" fill="#4A864E"/>
<path id="xazna_3" d="M3.15625 3.76729L3.15625 16L0.000204086 16L0.000205156 3.76729L3.15625 3.76729Z" fill="#4A864E"/>
<path id="xazna_4" d="M13.8457 3.76729L13.8457 16L10.6897 16L10.6897 3.76729L13.8457 3.76729Z" fill="#4A864E"/>
<path id="xazna_5" d="M0.0243549 12.8442L13.8457 12.8442L13.8457 16.0003L0.0243548 16.0003L0.0243549 12.8442Z" fill="#4A864E"/>
</g>
<g id="xazna_6">
<path d="M32.8361 15.4378H28.7065L26.3467 12.1341L23.9279 15.4378H19.877L24.2327 9.92178L19.9458 4.39594H24.0754L26.3959 7.64065L28.7262 4.39594H32.787L28.4902 9.83329L32.8361 15.4378Z" fill="#1D1D1D"/>
<path d="M41.4494 12.5569V10.2561C40.9709 10.2954 40.453 10.3511 39.8958 10.4232C39.3387 10.4888 38.9159 10.5674 38.6275 10.6592C38.2735 10.7707 38.0015 10.9345 37.8114 11.1508C37.6278 11.3606 37.5361 11.6392 37.5361 11.9866C37.5361 12.216 37.5557 12.4028 37.5951 12.5471C37.6344 12.6913 37.7327 12.8289 37.89 12.96C38.0408 13.0911 38.2211 13.1894 38.4308 13.255C38.6406 13.314 38.9683 13.3435 39.4141 13.3435C39.768 13.3435 40.1253 13.2714 40.4858 13.1272C40.8529 12.983 41.1741 12.7929 41.4494 12.5569ZM41.4494 14.2677C41.2593 14.4119 41.0233 14.5856 40.7414 14.7889C40.4596 14.9921 40.1941 15.1527 39.945 15.2706C39.5976 15.428 39.2371 15.5427 38.8634 15.6148C38.4898 15.6934 38.0801 15.7328 37.6344 15.7328C36.5856 15.7328 35.7072 15.4083 34.9993 14.7594C34.2913 14.1104 33.9374 13.2812 33.9374 12.2717C33.9374 11.4655 34.1176 10.8067 34.4782 10.2954C34.8387 9.78413 35.35 9.381 36.012 9.08602C36.6675 8.79105 37.4803 8.58129 38.4505 8.45675C39.4206 8.3322 40.4268 8.24043 41.469 8.18144V8.12244C41.469 7.51283 41.22 7.09331 40.7218 6.86389C40.2236 6.62791 39.4894 6.50992 38.5193 6.50992C37.9359 6.50992 37.3132 6.6148 36.6511 6.82456C35.9891 7.02776 35.5138 7.18508 35.2254 7.29651H34.901V4.63192C35.2746 4.53359 35.8809 4.41888 36.72 4.28778C37.5656 4.15013 38.4111 4.0813 39.2567 4.0813C41.2691 4.0813 42.721 4.39266 43.6125 5.01538C44.5106 5.63155 44.9596 6.60169 44.9596 7.92579V15.4378H41.4494V14.2677Z" fill="#1D1D1D"/>
<path d="M57.7418 15.4378H47.3685V13.1665L53.1893 6.98188H47.6045V4.39594H57.6336V6.62791L51.9013 12.8027H57.7418V15.4378Z" fill="#1D1D1D"/>
<path d="M71.3204 15.4378H67.7611V9.96111C67.7611 9.51537 67.7381 9.07291 67.6922 8.63373C67.6463 8.18799 67.5677 7.86024 67.4562 7.65048C67.3251 7.40795 67.1318 7.23096 66.8761 7.11953C66.627 7.0081 66.2763 6.95238 65.8241 6.95238C65.5029 6.95238 65.1751 7.00482 64.8408 7.1097C64.5131 7.21458 64.1558 7.38173 63.7691 7.61115V15.4378H60.2294V4.39594H63.7691V5.61516C64.3983 5.12354 65.0014 4.74663 65.5782 4.48443C66.1616 4.22223 66.8073 4.09113 67.5152 4.09113C68.7082 4.09113 69.639 4.43855 70.3077 5.13337C70.9828 5.8282 71.3204 6.86716 71.3204 8.25026V15.4378Z" fill="#1D1D1D"/>
<path d="M81.2709 12.5569V10.2561C80.7923 10.2954 80.2745 10.3511 79.7173 10.4232C79.1602 10.4888 78.7374 10.5674 78.4489 10.6592C78.095 10.7707 77.8229 10.9345 77.6328 11.1508C77.4493 11.3606 77.3575 11.6392 77.3575 11.9866C77.3575 12.216 77.3772 12.4028 77.4165 12.5471C77.4559 12.6913 77.5542 12.8289 77.7115 12.96C77.8623 13.0911 78.0425 13.1894 78.2523 13.255C78.462 13.314 78.7898 13.3435 79.2355 13.3435C79.5895 13.3435 79.9468 13.2714 80.3073 13.1272C80.6744 12.983 80.9955 12.7929 81.2709 12.5569ZM81.2709 14.2677C81.0808 14.4119 80.8448 14.5856 80.5629 14.7889C80.2811 14.9921 80.0156 15.1527 79.7665 15.2706C79.4191 15.428 79.0586 15.5427 78.6849 15.6148C78.3113 15.6934 77.9016 15.7328 77.4559 15.7328C76.4071 15.7328 75.5287 15.4083 74.8208 14.7594C74.1128 14.1104 73.7589 13.2812 73.7589 12.2717C73.7589 11.4655 73.9391 10.8067 74.2996 10.2954C74.6602 9.78413 75.1715 9.381 75.8335 9.08602C76.489 8.79105 77.3018 8.58129 78.272 8.45675C79.2421 8.3322 80.2483 8.24043 81.2905 8.18144V8.12244C81.2905 7.51283 81.0414 7.09331 80.5433 6.86389C80.0451 6.62791 79.3109 6.50992 78.3408 6.50992C77.7574 6.50992 77.1347 6.6148 76.4726 6.82456C75.8106 7.02776 75.3353 7.18508 75.0469 7.29651H74.7224V4.63192C75.0961 4.53359 75.7024 4.41888 76.5414 4.28778C77.387 4.15013 78.2326 4.0813 79.0782 4.0813C81.0906 4.0813 82.5425 4.39266 83.434 5.01538C84.332 5.63155 84.781 6.60169 84.781 7.92579V15.4378H81.2709V14.2677Z" fill="#1D1D1D"/>
</g>
</g>
</svg>
