<svg width="88" height="28" viewBox="0 0 88 28" fill="none" xmlns="http://www.w3.org/2000/svg">
<g clip-path="url(#clip0_1966_13220)">
<path d="M39.0664 18.966C38.4083 18.966 37.81 18.8537 37.2716 18.6854C36.7331 18.5171 36.2545 18.2365 35.8357 17.8437C35.4169 17.451 35.1178 17.0021 34.8785 16.4409C34.6392 15.8798 34.5195 15.2065 34.5195 14.477V14.1404C34.5195 13.467 34.6392 12.8498 34.8785 12.2887C35.1178 11.7837 35.4768 11.3348 35.8956 10.942C36.3144 10.5492 36.793 10.3248 37.3314 10.1003C37.8699 9.93199 38.4682 9.81976 39.0664 9.81976C39.7245 9.81976 40.263 9.87587 40.8014 10.0442C41.28 10.2125 41.6988 10.437 42.0578 10.7176C42.4168 10.9981 42.6561 11.3348 42.8954 11.7276C43.0749 12.1203 43.1945 12.5131 43.2544 12.962H40.9211C40.8014 12.5692 40.5621 12.2326 40.3228 12.0081C40.0237 11.7837 39.6647 11.6714 39.1263 11.6714C38.8271 11.6714 38.528 11.7276 38.2887 11.8398C38.0494 11.952 37.81 12.0642 37.5707 12.2887C37.3913 12.5131 37.2118 12.7376 37.0921 13.0742C36.9725 13.3548 36.9126 13.7476 36.9126 14.1965V14.5331C36.9126 14.982 36.9725 15.3748 37.0921 15.7115C37.2118 16.0482 37.3314 16.3287 37.5707 16.4971C37.7502 16.7215 37.9895 16.8898 38.2887 16.9459C38.528 17.0582 38.8271 17.1143 39.1263 17.1143C39.6049 17.1143 39.9638 17.0021 40.3228 16.7776C40.6219 16.5532 40.8613 16.2165 40.9809 15.8237H43.3142C43.2544 16.3287 43.1347 16.7215 42.8954 17.1143C42.6561 17.5071 42.3569 17.8437 41.998 18.1243C41.639 18.4049 41.2202 18.6293 40.7416 18.7415C40.2031 18.9099 39.6647 18.966 39.0664 18.966Z" fill="#111014"/>
<path d="M47.9809 18.9096C47.4424 18.9096 46.9638 18.8535 46.6049 18.7974C46.2459 18.6851 45.8869 18.5168 45.6476 18.2924C45.4083 18.0679 45.2288 17.7312 45.1092 17.3385C44.9895 16.9457 44.9297 16.4407 44.9297 15.8796V7.29446H47.263V15.599C47.263 15.8796 47.263 16.104 47.3228 16.2723C47.3826 16.4407 47.4424 16.609 47.5023 16.7212C47.6219 16.8335 47.7416 16.9457 47.8612 16.9457C48.0407 17.0018 48.2202 17.0018 48.4595 17.0018C48.5792 17.0018 48.6988 17.0018 48.8185 17.0018C48.9381 17.0018 48.998 17.0018 49.1176 17.0018V18.7974C49.0578 18.7974 48.998 18.7974 48.8783 18.8535C48.8185 18.8535 48.6988 18.8535 48.5792 18.8535C48.4595 18.8535 48.3997 18.8535 48.28 18.8535H47.9809V18.9096Z" fill="#111014"/>
<path d="M51.9307 9.14621C51.5119 9.14621 51.153 9.03399 50.9137 8.80954C50.6743 8.5851 50.5547 8.30454 50.5547 7.96787C50.5547 7.6312 50.6743 7.35064 50.9137 7.12619C51.153 6.90174 51.5119 6.78952 51.9307 6.78952C52.3495 6.78952 52.7085 6.90174 52.9478 7.12619C53.1871 7.35064 53.3068 7.6312 53.3068 7.96787C53.3068 8.30454 53.1871 8.5851 52.9478 8.80954C52.7085 9.03399 52.4093 9.14621 51.9307 9.14621ZM50.794 10.1001H53.1273V18.7974H50.794V10.1001Z" fill="#111014"/>
<path d="M59.4688 18.9658C58.8107 18.9658 58.2124 18.8535 57.6739 18.6852C57.1355 18.5169 56.6569 18.2363 56.2381 17.8435C55.8193 17.4507 55.5201 17.0018 55.2808 16.4407C55.0415 15.8796 54.9219 15.2063 54.9219 14.4768V14.1402C54.9219 13.4668 55.0415 12.8496 55.2808 12.2885C55.5201 11.7835 55.8791 11.3346 56.2979 10.9418C56.7167 10.549 57.1953 10.3246 57.7338 10.1001C58.2722 9.93177 58.8705 9.81955 59.4688 9.81955C60.1269 9.81955 60.6653 9.87566 61.2038 10.044C61.6824 10.2123 62.1012 10.4368 62.4601 10.7173C62.8191 10.9979 63.0584 11.3346 63.2977 11.7273C63.4772 12.1201 63.5969 12.5129 63.6567 12.9618H61.3234C61.2038 12.569 60.9645 12.2324 60.7251 12.0079C60.426 11.7835 60.067 11.6712 59.5286 11.6712C59.2295 11.6712 58.9303 11.7273 58.691 11.8396C58.4517 11.9518 58.2124 12.064 57.9731 12.2885C57.7936 12.5129 57.6141 12.7374 57.4945 13.074C57.3748 13.3546 57.315 13.7474 57.315 14.1963V14.5329C57.315 14.9818 57.3748 15.3746 57.4945 15.7113C57.6141 16.0479 57.7338 16.3285 57.9731 16.4968C58.1526 16.7213 58.3919 16.8896 58.691 16.9457C58.9303 17.058 59.2295 17.1141 59.5286 17.1141C60.0072 17.1141 60.3662 17.0018 60.7251 16.7774C61.0243 16.553 61.2636 16.2163 61.3832 15.8235H63.7165C63.6567 16.3285 63.537 16.7213 63.2977 17.1141C63.0584 17.5069 62.7593 17.8435 62.4003 18.1241C62.0414 18.4046 61.6226 18.6291 61.1439 18.7413C60.6055 18.9096 60.067 18.9658 59.4688 18.9658Z" fill="#111014"/>
<path d="M65.2695 18.7975V7.29465H67.543V13.6914L70.9531 10.1002H73.6454L70.1754 13.7475L74.0044 18.7975H71.2523L68.6199 15.2625L67.543 16.3286V18.7975H65.2695Z" fill="#111014"/>
<path d="M9.57241 19.0219C5.8631 15.5429 5.92293 12.4007 9.57241 8.92176C13.2219 5.49895 16.6321 5.44284 20.3414 8.92176C24.0507 12.4007 23.9908 15.5429 20.3414 19.0219C18.4867 20.7613 16.7517 21.603 14.9569 21.603C13.1621 21.6591 11.4271 20.7613 9.57241 19.0219ZM5.08534 4.7695C1.735 7.91175 0 10.9418 0 13.9718V14.0279C0 17.058 1.67517 20.088 5.08534 23.2302C8.49551 26.4286 11.7262 27.9997 14.8971 27.9997H14.9569C18.1876 27.9997 21.4183 26.3725 24.7686 23.2302C31.5291 16.8896 31.5889 11.1101 24.7686 4.71338C21.4183 1.57113 18.1876 0 14.9569 0C11.6664 0 8.43568 1.57113 5.08534 4.7695Z" fill="url(#paint0_linear_1966_13220)"/>
<path d="M77.176 10.1556C76.5179 10.1556 75.9794 9.98723 75.6205 9.59445C75.2615 9.20166 75.082 8.64055 75.082 7.9111V4.54439H76.5179V7.74276C76.5179 8.13554 76.6375 8.47221 76.817 8.69666C76.9965 8.92111 77.2956 9.03333 77.7144 9.03333C77.9538 9.03333 78.1332 8.97722 78.3127 8.92111C78.4922 8.86499 78.6119 8.75277 78.7315 8.64055C78.8512 8.52832 78.911 8.4161 78.9708 8.24777C79.0306 8.07943 79.0307 7.91109 79.0307 7.74276V4.48828H80.4665V9.98723H79.0905V9.14555C78.9708 9.42611 78.7315 9.65056 78.4324 9.81889C78.0734 10.0433 77.6546 10.1556 77.176 10.1556Z" fill="url(#paint1_linear_1966_13220)"/>
<path d="M81.7227 12.0639V4.48881H83.0987V5.33049C83.2782 5.04993 83.5175 4.82548 83.8166 4.65715C84.1158 4.48881 84.5346 4.37659 85.0132 4.37659C85.7909 4.37659 86.449 4.60103 86.8678 5.04993C87.2866 5.49882 87.5259 6.17216 87.5259 7.06995V7.2944C87.5259 7.74329 87.4661 8.19218 87.3464 8.52885C87.2268 8.86552 87.0473 9.20219 86.8678 9.42664C86.6285 9.65109 86.3892 9.81942 86.0901 9.93165C85.7909 10.0439 85.432 10.1 85.073 10.1C84.6542 10.1 84.3551 10.0439 83.9961 9.87553C83.697 9.7072 83.4577 9.48275 83.2183 9.20219V12.0639H81.7227ZM84.6542 8.97775C84.8337 8.97775 85.0132 8.92163 85.1926 8.86552C85.3721 8.80941 85.4918 8.69719 85.6114 8.52885C85.7311 8.41663 85.8508 8.19218 85.9106 8.02385C85.9704 7.7994 86.0302 7.57495 86.0302 7.2944V7.06995C86.0302 6.78939 85.9704 6.56494 85.9106 6.39661C85.8508 6.22827 85.7311 6.05994 85.6114 5.8916C85.4918 5.77938 85.3721 5.66716 85.1926 5.61104C85.0132 5.55493 84.8337 5.49882 84.6542 5.49882C84.4747 5.49882 84.2354 5.55493 84.0559 5.61104C83.8764 5.66716 83.697 5.77938 83.5773 5.8916C83.4576 6.00383 83.338 6.17216 83.2782 6.3405C83.2183 6.50883 83.1585 6.67717 83.1585 6.90161V7.51884C83.1585 7.74329 83.2183 7.96774 83.2782 8.13607C83.338 8.30441 83.4576 8.47274 83.5773 8.58496C83.697 8.69719 83.8764 8.80941 84.0559 8.86552C84.2354 8.92163 84.4149 8.97775 84.6542 8.97775Z" fill="url(#paint2_linear_1966_13220)"/>
</g>
<defs>
<linearGradient id="paint0_linear_1966_13220" x1="4.80834" y1="23.4467" x2="23.5118" y2="3.6167" gradientUnits="userSpaceOnUse">
<stop stop-color="#0073FF"/>
<stop offset="1" stop-color="#00DEFF"/>
</linearGradient>
<linearGradient id="paint1_linear_1966_13220" x1="75.5173" y1="9.94722" x2="82.3623" y2="0.490657" gradientUnits="userSpaceOnUse">
<stop offset="0.1022" stop-color="#0073FF"/>
<stop offset="1" stop-color="#00DEFF"/>
</linearGradient>
<linearGradient id="paint2_linear_1966_13220" x1="79.4613" y1="12.8027" x2="86.3063" y2="3.34616" gradientUnits="userSpaceOnUse">
<stop stop-color="#0073FF"/>
<stop offset="1" stop-color="#00DEFF"/>
</linearGradient>
<clipPath id="clip0_1966_13220">
<rect width="88" height="28" fill="white"/>
</clipPath>
</defs>
</svg>
