<svg width="40" height="40" viewBox="0 0 40 40" fill="none" xmlns="http://www.w3.org/2000/svg">
  <path fill-rule="evenodd" clip-rule="evenodd" d="M20 4C20.5523 4 21 4.44772 21 5V10C21 10.5523 20.5523 11 20 11C19.4477 11 19 10.5523 19 10V5C19 4.44772 19.4477 4 20 4ZM31.3738 8.62624C31.7643 9.01676 31.7643 9.64993 31.3738 10.0405L27.7904 13.6238C27.3999 14.0143 26.7668 14.0143 26.3762 13.6238C25.9857 13.2333 25.9857 12.6001 26.3762 12.2096L29.9596 8.62624C30.3501 8.23571 30.9832 8.23571 31.3738 8.62624ZM8.62624 8.62624C9.01676 8.23571 9.64993 8.23571 10.0405 8.62624L13.6238 12.2096C14.0143 12.6001 14.0143 13.2333 13.6238 13.6238C13.2333 14.0143 12.6001 14.0143 12.2096 13.6238L8.62624 10.0405C8.23571 9.64993 8.23571 9.01676 8.62624 8.62624ZM4 20C4 19.4477 4.44772 19 5 19H10C10.5523 19 11 19.4477 11 20C11 20.5523 10.5523 21 10 21H5C4.44772 21 4 20.5523 4 20ZM29 20C29 19.4477 29.4477 19 30 19H35C35.5523 19 36 19.4477 36 20C36 20.5523 35.5523 21 35 21H30C29.4477 21 29 20.5523 29 20ZM13.6238 26.3762C14.0143 26.7668 14.0143 27.3999 13.6238 27.7904L10.0405 31.3738C9.64993 31.7643 9.01676 31.7643 8.62624 31.3738C8.23571 30.9832 8.23571 30.3501 8.62624 29.9596L12.2096 26.3762C12.6001 25.9857 13.2333 25.9857 13.6238 26.3762ZM26.3762 26.3762C26.7668 25.9857 27.3999 25.9857 27.7904 26.3762L31.3738 29.9596C31.7643 30.3501 31.7643 30.9832 31.3738 31.3738C30.9832 31.7643 30.3501 31.7643 29.9596 31.3738L26.3762 27.7904C25.9857 27.3999 25.9857 26.7668 26.3762 26.3762ZM20 29C20.5523 29 21 29.4477 21 30V35C21 35.5523 20.5523 36 20 36C19.4477 36 19 35.5523 19 35V30C19 29.4477 19.4477 29 20 29Z" fill="black"/>
</svg>
